M48
METRIC,LZ,000.000
;FILE_FORMAT=3:3
;TYPE=PLATED
;Layer: PTH_Through
;EasyEDA v6.5.20, 2023-01-06 03:34:03
;a67cddfb3fce44daa9051d46cbbcc19f,10
;Gerber Generator version 0.2
;Holesize 1 = 0.600 mm
T01C0.600
;Holesize 2 = 0.889 mm
T02C0.889
;Holesize 3 = 1.194 mm
T03C1.194
;Holesize 4 = 1.921 mm
T04C1.921
;Holesize 5 = 2.501 mm
T05C2.501
;Holesize 6 = 2.850 mm
T06C2.850
;Holesize 7 = 3.201 mm
T07C3.201
%
G05
G90
T01
X010200Y030250G85X011800Y030250
X010200Y013750G85X011800Y013750
X003670Y030250G85X004770Y030250
X003670Y013750G85X004770Y013750
T02
X066270Y063650
X063730Y063650
X066270Y066190
X063730Y066190
X066270Y068730
X063730Y068730
X066270Y071270
X063730Y071270
X066270Y073810
X063730Y073810
X066270Y076350
X063730Y076350
X063730Y057810
X066270Y057810
X063730Y055270
X066270Y055270
X063730Y052730
X066270Y052730
X063730Y050190
X066270Y050190
X066270Y084190
X063730Y084190
X066270Y086730
X063730Y086730
X066270Y089270
X063730Y089270
X066270Y091810
X063730Y091810
X029770Y057220
X027230Y057220
X029770Y059760
X027230Y059760
X029770Y062300
X027230Y062300
X029770Y064840
X027230Y064840
X029770Y067380
X027230Y067380
X029770Y069920
X027230Y069920
X029770Y072460
X027230Y072460
X029770Y075000
X027230Y075000
X029770Y077540
X027230Y077540
X029770Y080080
X027230Y080080
X029770Y082620
X027230Y082620
X029770Y085160
X027230Y085160
X029770Y087700
X027230Y087700
X029770Y090240
X027230Y090240
X029770Y092780
X027230Y092780
X029770Y004220
X027230Y004220
X029770Y006760
X027230Y006760
X029770Y009300
X027230Y009300
X029770Y011840
X027230Y011840
X029770Y014380
X027230Y014380
X029770Y016920
X027230Y016920
X029770Y019460
X027230Y019460
X029770Y022000
X027230Y022000
X029770Y024540
X027230Y024540
X029770Y027080
X027230Y027080
X029770Y029620
X027230Y029620
X029770Y032160
X027230Y032160
X029770Y034700
X027230Y034700
X029770Y037240
X027230Y037240
X029770Y039780
X027230Y039780
T03
X089459Y064936
X089459Y067186
X089459Y069436
X089459Y071686
X089459Y073936
X091999Y066061
X091999Y068311
X091999Y070561
X091999Y072811
X091999Y075061
X094539Y064936
X094539Y067186
X094539Y069436
X094539Y071686
X094539Y073936
T04
X001840Y067750G85X001840Y067750
X001840Y082250G85X001840Y082250
T05
X048750Y022500G85X051250Y022500
X048750Y047500G85X051250Y047500
X048750Y052500G85X051250Y052500
X048750Y077500G85X051250Y077500
X048750Y082500G85X051250Y082500
X048750Y017500G85X051250Y017500
T06
X007800Y067752G85X007800Y067747
X007800Y082252G85X007800Y082247
T07
X091999Y057499
X091999Y082499
M30
