M48
METRIC,LZ,000.000
;FILE_FORMAT=3:3
;TYPE=PLATED
;Layer: PTH_Through_Via
;EasyEDA v6.5.20, 2023-01-06 03:34:03
;a67cddfb3fce44daa9051d46cbbcc19f,10
;Gerber Generator version 0.2
;Holesize 1 = 0.305 mm
T01C0.305
;Holesize 2 = 0.306 mm
T02C0.306
%
G05
G90
T01
X011000Y025500
X011000Y024000
X011000Y021500
X011000Y020000
X011000Y018500
X011000Y017000
X006000Y071000
X006000Y072500
X006000Y074000
X006000Y075500
X006000Y078500
T02
X001072Y088928
X001072Y078928
X001072Y058928
X001072Y048928
X001072Y038928
X001072Y028928
X001072Y018928
X011072Y098928
X011072Y088928
X011072Y068928
X011072Y058928
X011072Y048928
X011072Y038928
X011072Y008928
X021072Y098928
X021072Y088928
X021072Y058928
X021072Y048928
X021072Y038928
X021072Y008928
X031072Y098928
X031072Y088928
X031072Y078928
X031072Y068928
X031072Y048928
X041072Y098928
X041072Y088928
X041072Y078928
X041072Y068928
X041072Y058928
X041072Y048928
X041072Y038928
X041072Y028928
X041072Y018928
X041072Y008928
X051072Y098928
X051072Y088928
X051072Y068928
X051072Y058928
X051072Y038928
X051072Y028928
X051072Y008928
X061072Y098928
X061072Y058928
X061072Y048928
X061072Y038928
X061072Y028928
X061072Y018928
X071072Y098928
X071072Y078928
X071072Y058928
X071072Y048928
X071072Y038928
X071072Y028928
X071072Y018928
X081072Y098928
X081072Y078928
X081072Y058928
X081072Y048928
X081072Y038928
X081072Y028928
X081072Y018928
X081072Y008928
X091072Y098928
X091072Y078928
X091072Y048928
X091072Y038928
X091072Y028928
X091072Y018928
X091072Y008928
M30
