G04 Layer: BottomLayer*
G04 EasyEDA v6.5.20, 2023-01-06 03:34:03*
G04 a67cddfb3fce44daa9051d46cbbcc19f,10*
G04 Gerber Generator version 0.2*
G04 Scale: 100 percent, Rotated: No, Reflected: No *
G04 Dimensions in millimeters *
G04 leading zeros omitted , absolute positions ,4 integer and 5 decimal *
%FSLAX45Y45*%
%MOMM*%

%ADD10C,0.2540*%
%ADD11C,3.5992*%
%ADD12C,1.5926*%
%ADD13C,1.5748*%
%ADD14R,1.5748X1.5748*%
%ADD15C,4.2751*%
%ADD16C,2.8801*%
%ADD17O,2.800096X1.400048*%
%ADD18O,2.400046X1.199896*%
%ADD19O,6.999986000000001X3.9999919999999998*%
%ADD20C,0.6096*%
%ADD21C,0.6100*%
%ADD22C,0.0122*%

%LPD*%
D10*
X2722994Y8769985D02*
G01*
X2722994Y8776982D01*
X2599994Y8899982D01*
X2599994Y9154985D01*
X2722994Y9277985D01*
X2976994Y421995D02*
G01*
X2976994Y9277985D01*
X421995Y1375003D02*
G01*
X1099997Y1375003D01*
X421995Y3024987D02*
G01*
X1099997Y3024987D01*
X1099997Y1375003D02*
G01*
X1099997Y3024987D01*
X1099997Y1375003D02*
G01*
X1099997Y999997D01*
X1899996Y199999D01*
X2754998Y199999D01*
X2976994Y421995D01*
X183997Y6774992D02*
G01*
X780008Y6774992D01*
X183997Y8224977D02*
G01*
X780008Y8224977D01*
X780008Y6774992D02*
G01*
X599998Y6955002D01*
X599998Y7849984D01*
X780008Y8224977D02*
G01*
X599998Y8044967D01*
X599998Y7849984D01*
X780008Y6774992D02*
G01*
X2155012Y5399989D01*
X2654998Y5399989D01*
X2976994Y5721985D01*
X6372859Y5781039D02*
G01*
X6503924Y5649976D01*
X8426160Y5649976D01*
X8776147Y5299989D01*
X9299981Y5299989D01*
X9899980Y5899988D01*
X9899980Y7199985D01*
X9706305Y7393660D01*
X9453879Y7393660D01*
X6626986Y6618986D02*
G01*
X8380984Y6618986D01*
X8699982Y6299987D01*
X9074983Y6299987D01*
X9453879Y6678884D01*
X9453879Y6718655D01*
X6372859Y6618986D02*
G01*
X6491986Y6500113D01*
X6800088Y6500113D01*
X7100061Y6199886D01*
X9400031Y6199886D01*
X9599929Y6400037D01*
X9599929Y6797547D01*
X9453879Y6943597D01*
X2976994Y9277985D02*
G01*
X3073996Y9180982D01*
X6372986Y9180982D01*
X6626986Y9180982D02*
G01*
X6645986Y9199981D01*
X8599982Y9199981D01*
X9199879Y8600084D01*
X9199879Y8249920D01*
X6626986Y5780989D02*
G01*
X6626986Y6364986D01*
X6372986Y6364986D02*
G01*
X6099987Y6637985D01*
X6099987Y8907983D01*
X6372986Y9180982D01*
X9199879Y8249920D02*
G01*
X9324982Y8124817D01*
X9324982Y6731261D01*
X9199879Y6606159D01*
D11*
G01*
X9199879Y5749899D03*
G01*
X9199879Y8249920D03*
D12*
G01*
X8945879Y6493662D03*
G01*
X8945879Y6718655D03*
G01*
X8945879Y6943648D03*
G01*
X8945879Y7168642D03*
G01*
X8945879Y7393660D03*
G01*
X9199879Y6606159D03*
G01*
X9199879Y6831152D03*
G01*
X9199879Y7056145D03*
G01*
X9199879Y7281138D03*
G01*
X9199879Y7506157D03*
G01*
X9453879Y6493662D03*
G01*
X9453879Y6718655D03*
G01*
X9453879Y6943648D03*
G01*
X9453879Y7168642D03*
G01*
X9453879Y7393660D03*
D13*
G01*
X6626986Y6364986D03*
G01*
X6372986Y6364986D03*
G01*
X6626986Y6618986D03*
G01*
X6372986Y6618986D03*
G01*
X6626986Y6872986D03*
G01*
X6372986Y6872986D03*
G01*
X6626986Y7126986D03*
G01*
X6372986Y7126986D03*
G01*
X6626986Y7380986D03*
G01*
X6372986Y7380986D03*
G01*
X6626986Y7634986D03*
D14*
G01*
X6372986Y7634986D03*
G01*
X6372986Y5780989D03*
D13*
G01*
X6626986Y5780989D03*
G01*
X6372986Y5526989D03*
G01*
X6626986Y5526989D03*
G01*
X6372986Y5272989D03*
G01*
X6626986Y5272989D03*
G01*
X6372986Y5018989D03*
G01*
X6626986Y5018989D03*
D14*
G01*
X6626986Y8418982D03*
D13*
G01*
X6372986Y8418982D03*
G01*
X6626986Y8672982D03*
G01*
X6372986Y8672982D03*
G01*
X6626986Y8926982D03*
G01*
X6372986Y8926982D03*
G01*
X6626986Y9180982D03*
G01*
X6372986Y9180982D03*
D15*
G01*
X780008Y6774992D03*
G01*
X780008Y8224977D03*
D16*
G01*
X183997Y6774992D03*
G01*
X183997Y8224977D03*
D14*
G01*
X2977006Y5721985D03*
D13*
G01*
X2723006Y5721985D03*
G01*
X2977006Y5975985D03*
G01*
X2723006Y5975985D03*
G01*
X2977006Y6229985D03*
G01*
X2723006Y6229985D03*
G01*
X2977006Y6483985D03*
G01*
X2723006Y6483985D03*
G01*
X2977006Y6737985D03*
G01*
X2723006Y6737985D03*
G01*
X2977006Y6991985D03*
G01*
X2723006Y6991985D03*
G01*
X2977006Y7245985D03*
G01*
X2723006Y7245985D03*
G01*
X2977006Y7499985D03*
G01*
X2723006Y7499985D03*
G01*
X2977006Y7753985D03*
G01*
X2723006Y7753985D03*
G01*
X2977006Y8007985D03*
G01*
X2723006Y8007985D03*
G01*
X2977006Y8261985D03*
G01*
X2723006Y8261985D03*
G01*
X2977006Y8515985D03*
G01*
X2723006Y8515985D03*
G01*
X2977006Y8769985D03*
G01*
X2723006Y8769985D03*
G01*
X2977006Y9023985D03*
G01*
X2723006Y9023985D03*
G01*
X2977006Y9277985D03*
G01*
X2723006Y9277985D03*
D17*
G01*
X1099997Y3024987D03*
G01*
X1099997Y1375003D03*
D18*
G01*
X421995Y3024987D03*
G01*
X421995Y1375003D03*
D14*
G01*
X2977006Y421995D03*
D13*
G01*
X2723006Y421995D03*
G01*
X2977006Y675995D03*
G01*
X2723006Y675995D03*
G01*
X2977006Y929995D03*
G01*
X2723006Y929995D03*
G01*
X2977006Y1183995D03*
G01*
X2723006Y1183995D03*
G01*
X2977006Y1437995D03*
G01*
X2723006Y1437995D03*
G01*
X2977006Y1691995D03*
G01*
X2723006Y1691995D03*
G01*
X2977006Y1945995D03*
G01*
X2723006Y1945995D03*
G01*
X2977006Y2199995D03*
G01*
X2723006Y2199995D03*
G01*
X2977006Y2453995D03*
G01*
X2723006Y2453995D03*
G01*
X2977006Y2707995D03*
G01*
X2723006Y2707995D03*
G01*
X2977006Y2961995D03*
G01*
X2723006Y2961995D03*
G01*
X2977006Y3215995D03*
G01*
X2723006Y3215995D03*
G01*
X2977006Y3469995D03*
G01*
X2723006Y3469995D03*
G01*
X2977006Y3723995D03*
G01*
X2723006Y3723995D03*
G01*
X2977006Y3977995D03*
G01*
X2723006Y3977995D03*
D19*
G01*
X4999990Y2249982D03*
G01*
X4999990Y4749977D03*
G01*
X4999990Y5249976D03*
G01*
X4999990Y7749971D03*
G01*
X4999990Y8249970D03*
G01*
X4999990Y1749983D03*
D20*
G01*
X1099997Y2549982D03*
G01*
X1099997Y2399995D03*
G01*
X1099997Y2149982D03*
G01*
X1099997Y1999995D03*
G01*
X1099997Y1849983D03*
G01*
X1099997Y1699996D03*
G01*
X599998Y7099985D03*
G01*
X599998Y7249972D03*
G01*
X599998Y7399985D03*
G01*
X599998Y7549972D03*
G01*
X599998Y7849971D03*
D21*
G01*
X107213Y8892768D03*
G01*
X107213Y7892770D03*
G01*
X107213Y5892774D03*
G01*
X107213Y4892776D03*
G01*
X107213Y3892778D03*
G01*
X107213Y2892780D03*
G01*
X107213Y1892782D03*
G01*
X1107211Y9892766D03*
G01*
X1107211Y8892768D03*
G01*
X1107211Y6892772D03*
G01*
X1107211Y5892774D03*
G01*
X1107211Y4892776D03*
G01*
X1107211Y3892778D03*
G01*
X1107211Y892784D03*
G01*
X2107209Y9892766D03*
G01*
X2107209Y8892768D03*
G01*
X2107209Y5892774D03*
G01*
X2107209Y4892776D03*
G01*
X2107209Y3892778D03*
G01*
X2107209Y892784D03*
G01*
X3107207Y9892766D03*
G01*
X3107207Y8892768D03*
G01*
X3107207Y7892770D03*
G01*
X3107207Y6892772D03*
G01*
X3107207Y4892776D03*
G01*
X4107205Y9892766D03*
G01*
X4107205Y8892768D03*
G01*
X4107205Y7892770D03*
G01*
X4107205Y6892772D03*
G01*
X4107205Y5892774D03*
G01*
X4107205Y4892776D03*
G01*
X4107205Y3892778D03*
G01*
X4107205Y2892780D03*
G01*
X4107205Y1892782D03*
G01*
X4107205Y892784D03*
G01*
X5107203Y9892766D03*
G01*
X5107203Y8892768D03*
G01*
X5107203Y6892772D03*
G01*
X5107203Y5892774D03*
G01*
X5107203Y3892778D03*
G01*
X5107203Y2892780D03*
G01*
X5107203Y892784D03*
G01*
X6107201Y9892766D03*
G01*
X6107201Y5892774D03*
G01*
X6107201Y4892776D03*
G01*
X6107201Y3892778D03*
G01*
X6107201Y2892780D03*
G01*
X6107201Y1892782D03*
G01*
X7107199Y9892766D03*
G01*
X7107199Y7892770D03*
G01*
X7107199Y5892774D03*
G01*
X7107199Y4892776D03*
G01*
X7107199Y3892778D03*
G01*
X7107199Y2892780D03*
G01*
X7107199Y1892782D03*
G01*
X8107197Y9892766D03*
G01*
X8107197Y7892770D03*
G01*
X8107197Y5892774D03*
G01*
X8107197Y4892776D03*
G01*
X8107197Y3892778D03*
G01*
X8107197Y2892780D03*
G01*
X8107197Y1892782D03*
G01*
X8107197Y892784D03*
G01*
X9107195Y9892766D03*
G01*
X9107195Y7892770D03*
G01*
X9107195Y4892776D03*
G01*
X9107195Y3892778D03*
G01*
X9107195Y2892780D03*
G01*
X9107195Y1892782D03*
G01*
X9107195Y892784D03*
M02*
