G04 Layer: TopLayer*
G04 EasyEDA v6.5.20, 2023-01-06 03:34:03*
G04 a67cddfb3fce44daa9051d46cbbcc19f,10*
G04 Gerber Generator version 0.2*
G04 Scale: 100 percent, Rotated: No, Reflected: No *
G04 Dimensions in millimeters *
G04 leading zeros omitted , absolute positions ,4 integer and 5 decimal *
%FSLAX45Y45*%
%MOMM*%

%AMMACRO1*4,1,4,1.2,0.1401,1.2,-0.1401,-1.2,-0.1401,-1.2,0.1401,1.2,0.1401,0*%
%AMMACRO2*4,1,4,1.2,0.14,1.2,-0.14,-1.2,-0.14,-1.2,0.14,1.2,0.14,0*%
%ADD10C,0.2540*%
%ADD11R,2.5999X0.3000*%
%ADD12MACRO1*%
%ADD13MACRO2*%
%ADD14C,3.5992*%
%ADD15C,1.5926*%
%ADD16C,1.5748*%
%ADD17R,1.5748X1.5748*%
%ADD18C,4.2751*%
%ADD19C,2.8801*%
%ADD20O,2.800096X1.400048*%
%ADD21O,2.400046X1.199896*%
%ADD22O,6.999986000000001X3.9999919999999998*%
%ADD23C,0.6096*%
%ADD24C,0.6100*%
%ADD25C,0.0171*%

%LPD*%
G36*
X731012Y25908D02*
G01*
X727202Y26670D01*
X723950Y28803D01*
X721715Y32004D01*
X720852Y35864D01*
X721563Y39674D01*
X723595Y43027D01*
X726795Y45313D01*
X730402Y46939D01*
X757834Y61722D01*
X784301Y78130D01*
X809701Y96164D01*
X833932Y115722D01*
X856945Y136702D01*
X878586Y159105D01*
X898855Y182778D01*
X917549Y207670D01*
X934719Y233629D01*
X950264Y260654D01*
X964133Y288544D01*
X976223Y317246D01*
X986485Y346659D01*
X994968Y376631D01*
X1001572Y407060D01*
X1006297Y437845D01*
X1009091Y468884D01*
X1010005Y499973D01*
X1009091Y531114D01*
X1006297Y562152D01*
X1001572Y592937D01*
X994968Y623366D01*
X986485Y653338D01*
X976223Y682752D01*
X964133Y711454D01*
X950264Y739343D01*
X934719Y766368D01*
X917549Y792327D01*
X898855Y817219D01*
X878586Y840892D01*
X856945Y863295D01*
X833932Y884275D01*
X809701Y903833D01*
X784301Y921867D01*
X757834Y938276D01*
X730402Y953058D01*
X702106Y966063D01*
X673049Y977341D01*
X643382Y986790D01*
X613206Y994410D01*
X582574Y1000150D01*
X551637Y1003960D01*
X520547Y1005890D01*
X489407Y1005890D01*
X458317Y1003960D01*
X427431Y1000150D01*
X396798Y994410D01*
X366623Y986790D01*
X336956Y977341D01*
X307898Y966063D01*
X279603Y953058D01*
X252171Y938276D01*
X225704Y921867D01*
X200304Y903833D01*
X176072Y884275D01*
X153060Y863295D01*
X131419Y840892D01*
X111150Y817219D01*
X92405Y792327D01*
X75234Y766368D01*
X59740Y739343D01*
X45872Y711454D01*
X43230Y707085D01*
X39928Y704900D01*
X36017Y704138D01*
X32156Y704951D01*
X28854Y707136D01*
X26670Y710438D01*
X25908Y714298D01*
X25908Y6672630D01*
X26822Y6676847D01*
X29413Y6680301D01*
X33172Y6682333D01*
X37490Y6682689D01*
X41503Y6681165D01*
X44602Y6678117D01*
X46532Y6675120D01*
X57759Y6661302D01*
X70307Y6648754D01*
X84124Y6637528D01*
X99060Y6627875D01*
X105664Y6624472D01*
X105664Y6696659D01*
X36068Y6696659D01*
X32156Y6697421D01*
X28905Y6699605D01*
X26670Y6702907D01*
X25908Y6706819D01*
X25908Y6843166D01*
X26670Y6847078D01*
X28905Y6850380D01*
X32156Y6852564D01*
X36068Y6853326D01*
X105664Y6853326D01*
X105664Y6925513D01*
X99060Y6922109D01*
X84124Y6912457D01*
X70307Y6901230D01*
X57759Y6888683D01*
X46532Y6874865D01*
X44602Y6871868D01*
X41503Y6868820D01*
X37490Y6867296D01*
X33172Y6867652D01*
X29413Y6869684D01*
X26822Y6873138D01*
X25908Y6877354D01*
X25908Y8122615D01*
X26822Y8126831D01*
X29413Y8130286D01*
X33172Y8132318D01*
X37490Y8132673D01*
X41503Y8131149D01*
X44602Y8128101D01*
X46532Y8125104D01*
X57759Y8111286D01*
X70307Y8098739D01*
X84124Y8087512D01*
X99060Y8077860D01*
X105664Y8074456D01*
X105664Y8146643D01*
X36068Y8146643D01*
X32156Y8147405D01*
X28905Y8149590D01*
X26670Y8152892D01*
X25908Y8156803D01*
X25908Y8293150D01*
X26670Y8297062D01*
X28905Y8300364D01*
X32156Y8302548D01*
X36068Y8303310D01*
X105664Y8303310D01*
X105664Y8375497D01*
X99060Y8372094D01*
X84124Y8362442D01*
X70307Y8351215D01*
X57759Y8338667D01*
X46532Y8324850D01*
X44602Y8321852D01*
X41503Y8318804D01*
X37490Y8317280D01*
X33172Y8317636D01*
X29413Y8319668D01*
X26822Y8323122D01*
X25908Y8327339D01*
X25908Y9285681D01*
X26670Y9289542D01*
X28854Y9292844D01*
X32156Y9295028D01*
X36017Y9295841D01*
X39928Y9295079D01*
X43230Y9292894D01*
X45872Y9288526D01*
X59740Y9260636D01*
X75234Y9233611D01*
X92405Y9207652D01*
X111150Y9182760D01*
X131419Y9159087D01*
X153060Y9136684D01*
X176072Y9115704D01*
X200304Y9096146D01*
X225704Y9078112D01*
X252171Y9061704D01*
X279603Y9046921D01*
X307898Y9033916D01*
X336956Y9022638D01*
X366623Y9013190D01*
X396798Y9005570D01*
X427431Y8999829D01*
X458317Y8996019D01*
X489407Y8994089D01*
X520547Y8994089D01*
X551637Y8996019D01*
X582574Y8999829D01*
X613206Y9005570D01*
X643382Y9013190D01*
X673049Y9022638D01*
X702106Y9033916D01*
X730402Y9046921D01*
X757834Y9061704D01*
X784301Y9078112D01*
X809701Y9096146D01*
X833932Y9115704D01*
X856945Y9136684D01*
X878586Y9159087D01*
X898855Y9182760D01*
X917549Y9207652D01*
X934719Y9233611D01*
X950264Y9260636D01*
X964133Y9288526D01*
X976223Y9317228D01*
X986485Y9346641D01*
X994968Y9376613D01*
X1001572Y9407042D01*
X1006297Y9437827D01*
X1009091Y9468866D01*
X1010005Y9499955D01*
X1009091Y9531096D01*
X1006297Y9562134D01*
X1001572Y9592919D01*
X994968Y9623348D01*
X986485Y9653320D01*
X976223Y9682734D01*
X964133Y9711436D01*
X950264Y9739325D01*
X934719Y9766350D01*
X917549Y9792309D01*
X898855Y9817201D01*
X878586Y9840874D01*
X856945Y9863277D01*
X833932Y9884257D01*
X809701Y9903815D01*
X784301Y9921849D01*
X757834Y9938258D01*
X730402Y9953040D01*
X726795Y9954666D01*
X723595Y9956952D01*
X721563Y9960305D01*
X720852Y9964115D01*
X721715Y9967976D01*
X723950Y9971176D01*
X727202Y9973310D01*
X731012Y9974072D01*
X9278975Y9974072D01*
X9282785Y9973310D01*
X9286036Y9971176D01*
X9288272Y9967976D01*
X9289084Y9964115D01*
X9288424Y9960305D01*
X9286392Y9956952D01*
X9283192Y9954666D01*
X9279585Y9953040D01*
X9252153Y9938258D01*
X9225686Y9921849D01*
X9200286Y9903815D01*
X9176054Y9884257D01*
X9153042Y9863277D01*
X9131401Y9840874D01*
X9111132Y9817201D01*
X9092387Y9792309D01*
X9075216Y9766350D01*
X9059722Y9739325D01*
X9045854Y9711436D01*
X9033764Y9682734D01*
X9023451Y9653320D01*
X9015018Y9623348D01*
X9008414Y9592919D01*
X9003690Y9562134D01*
X9000896Y9531096D01*
X8999982Y9500006D01*
X9000896Y9468866D01*
X9003690Y9437827D01*
X9008414Y9407042D01*
X9015018Y9376613D01*
X9023451Y9346641D01*
X9033764Y9317228D01*
X9045854Y9288526D01*
X9059722Y9260636D01*
X9075216Y9233611D01*
X9092387Y9207652D01*
X9111132Y9182760D01*
X9131401Y9159087D01*
X9153042Y9136684D01*
X9176054Y9115704D01*
X9200286Y9096146D01*
X9225686Y9078112D01*
X9252153Y9061704D01*
X9279585Y9046921D01*
X9307880Y9033916D01*
X9336938Y9022638D01*
X9366605Y9013190D01*
X9396780Y9005570D01*
X9427413Y8999829D01*
X9458299Y8996019D01*
X9489389Y8994089D01*
X9520529Y8994089D01*
X9551619Y8996019D01*
X9582556Y8999829D01*
X9613188Y9005570D01*
X9643364Y9013190D01*
X9673031Y9022638D01*
X9702088Y9033916D01*
X9730384Y9046921D01*
X9757816Y9061704D01*
X9784283Y9078112D01*
X9809683Y9096146D01*
X9833914Y9115704D01*
X9856927Y9136684D01*
X9878568Y9159087D01*
X9898837Y9182760D01*
X9917531Y9207652D01*
X9934702Y9233611D01*
X9950246Y9260636D01*
X9954818Y9269831D01*
X9957663Y9273286D01*
X9961727Y9275216D01*
X9966248Y9275165D01*
X9970262Y9273235D01*
X9973056Y9269679D01*
X9974072Y9265310D01*
X9974072Y734669D01*
X9973056Y730300D01*
X9970262Y726744D01*
X9966248Y724814D01*
X9961727Y724763D01*
X9957663Y726694D01*
X9954818Y730148D01*
X9950246Y739343D01*
X9934702Y766368D01*
X9917531Y792327D01*
X9898837Y817219D01*
X9878568Y840892D01*
X9856927Y863295D01*
X9833914Y884275D01*
X9809683Y903833D01*
X9784283Y921867D01*
X9757816Y938276D01*
X9730384Y953058D01*
X9702088Y966063D01*
X9673031Y977341D01*
X9643364Y986790D01*
X9613188Y994410D01*
X9582556Y1000150D01*
X9551619Y1003960D01*
X9520529Y1005890D01*
X9489389Y1005890D01*
X9458299Y1003960D01*
X9427413Y1000150D01*
X9396780Y994410D01*
X9366605Y986790D01*
X9336938Y977341D01*
X9307880Y966063D01*
X9279585Y953058D01*
X9252153Y938276D01*
X9225686Y921867D01*
X9200286Y903833D01*
X9176054Y884275D01*
X9153042Y863295D01*
X9131401Y840892D01*
X9111132Y817219D01*
X9092387Y792327D01*
X9075216Y766368D01*
X9059722Y739343D01*
X9045854Y711454D01*
X9033764Y682752D01*
X9023451Y653338D01*
X9015018Y623366D01*
X9008414Y592937D01*
X9003690Y562152D01*
X9000896Y531114D01*
X8999982Y500024D01*
X9000896Y468884D01*
X9003690Y437845D01*
X9008414Y407060D01*
X9015018Y376631D01*
X9023451Y346659D01*
X9033764Y317246D01*
X9045854Y288544D01*
X9059722Y260654D01*
X9075216Y233629D01*
X9092387Y207670D01*
X9111132Y182778D01*
X9131401Y159105D01*
X9153042Y136702D01*
X9176054Y115722D01*
X9200286Y96164D01*
X9225686Y78130D01*
X9252153Y61722D01*
X9279585Y46939D01*
X9283192Y45313D01*
X9286392Y43027D01*
X9288424Y39674D01*
X9289084Y35864D01*
X9288272Y32004D01*
X9286036Y28803D01*
X9282785Y26670D01*
X9278975Y25908D01*
G37*

%LPC*%
G36*
X2883154Y7037679D02*
G01*
X2931261Y7037679D01*
X2931261Y7085838D01*
X2924657Y7082586D01*
X2913278Y7074966D01*
X2903016Y7065975D01*
X2893974Y7055662D01*
X2886405Y7044283D01*
G37*
G36*
X2722981Y317347D02*
G01*
X2736646Y318262D01*
X2750058Y320954D01*
X2763012Y325323D01*
X2775305Y331368D01*
X2786684Y338988D01*
X2796997Y348030D01*
X2805988Y358292D01*
X2813608Y369671D01*
X2819654Y381965D01*
X2824073Y394919D01*
X2826715Y408330D01*
X2827629Y421995D01*
X2826715Y435660D01*
X2824073Y449072D01*
X2819654Y462026D01*
X2813608Y474319D01*
X2805988Y485698D01*
X2796997Y495960D01*
X2786684Y505002D01*
X2775305Y512622D01*
X2763012Y518668D01*
X2750058Y523036D01*
X2736646Y525729D01*
X2722981Y526643D01*
X2709316Y525729D01*
X2695905Y523036D01*
X2687421Y520192D01*
X2683713Y519633D01*
X2680055Y520496D01*
X2676956Y522630D01*
X1522679Y1676907D01*
X1516430Y1682038D01*
X1511300Y1684782D01*
X1508455Y1687068D01*
X1506575Y1690166D01*
X1505915Y1693773D01*
X1505915Y1701241D01*
X1506677Y1705152D01*
X1508912Y1708404D01*
X1512163Y1710639D01*
X1516075Y1711401D01*
X1628800Y1711401D01*
X1632661Y1710639D01*
X1635963Y1708404D01*
X2622397Y722020D01*
X2624480Y718921D01*
X2625344Y715264D01*
X2624836Y711555D01*
X2621940Y703072D01*
X2619248Y689660D01*
X2618384Y675995D01*
X2619248Y662330D01*
X2621940Y648919D01*
X2626309Y635965D01*
X2632405Y623671D01*
X2639974Y612292D01*
X2649016Y602030D01*
X2659278Y592988D01*
X2670657Y585368D01*
X2682951Y579323D01*
X2695905Y574954D01*
X2709316Y572262D01*
X2722981Y571347D01*
X2736646Y572262D01*
X2750058Y574954D01*
X2763012Y579323D01*
X2775305Y585368D01*
X2786684Y592988D01*
X2796997Y602030D01*
X2805988Y612292D01*
X2813608Y623671D01*
X2819654Y635965D01*
X2824073Y648919D01*
X2826715Y662330D01*
X2827629Y675995D01*
X2826715Y689660D01*
X2824073Y703072D01*
X2819654Y716026D01*
X2813608Y728319D01*
X2805988Y739698D01*
X2796997Y749960D01*
X2786684Y759002D01*
X2775305Y766622D01*
X2763012Y772668D01*
X2750058Y777036D01*
X2736646Y779729D01*
X2722981Y780643D01*
X2709316Y779729D01*
X2695905Y777036D01*
X2687421Y774192D01*
X2683713Y773633D01*
X2680055Y774496D01*
X2676956Y776630D01*
X1709521Y1744065D01*
X1707337Y1747316D01*
X1706575Y1751228D01*
X1707337Y1755139D01*
X1709521Y1758391D01*
X1712823Y1760626D01*
X1716735Y1761388D01*
X1832813Y1761388D01*
X1836674Y1760626D01*
X1839975Y1758391D01*
X2622397Y976020D01*
X2624480Y972921D01*
X2625344Y969264D01*
X2624836Y965555D01*
X2621940Y957071D01*
X2619248Y943660D01*
X2618384Y929995D01*
X2619248Y916330D01*
X2621940Y902919D01*
X2626309Y889965D01*
X2632405Y877671D01*
X2639974Y866292D01*
X2649016Y856030D01*
X2659278Y846988D01*
X2670657Y839368D01*
X2682951Y833323D01*
X2695905Y828954D01*
X2709316Y826262D01*
X2722981Y825347D01*
X2736646Y826262D01*
X2750058Y828954D01*
X2763012Y833323D01*
X2775305Y839368D01*
X2786684Y846988D01*
X2796997Y856030D01*
X2805988Y866292D01*
X2813608Y877671D01*
X2819654Y889965D01*
X2824073Y902919D01*
X2826715Y916330D01*
X2827629Y929995D01*
X2826715Y943660D01*
X2824073Y957071D01*
X2819654Y970026D01*
X2813608Y982319D01*
X2805988Y993698D01*
X2796997Y1003960D01*
X2786684Y1013002D01*
X2775305Y1020622D01*
X2763012Y1026668D01*
X2750058Y1031036D01*
X2736646Y1033729D01*
X2722981Y1034643D01*
X2709316Y1033729D01*
X2695905Y1031036D01*
X2687421Y1028192D01*
X2683713Y1027633D01*
X2680055Y1028496D01*
X2676956Y1030630D01*
X1880666Y1826920D01*
X1874418Y1832051D01*
X1867763Y1835607D01*
X1860499Y1837791D01*
X1852472Y1838604D01*
X1516075Y1838604D01*
X1512163Y1839366D01*
X1508912Y1841601D01*
X1506677Y1844852D01*
X1505915Y1848764D01*
X1505915Y1851202D01*
X1506677Y1855114D01*
X1508912Y1858416D01*
X1512163Y1860600D01*
X1516075Y1861362D01*
X1986788Y1861362D01*
X1990699Y1860600D01*
X1994001Y1858416D01*
X2622397Y1230020D01*
X2624480Y1226921D01*
X2625344Y1223264D01*
X2624836Y1219555D01*
X2621940Y1211072D01*
X2619248Y1197660D01*
X2618384Y1183995D01*
X2619248Y1170330D01*
X2621940Y1156919D01*
X2626309Y1143965D01*
X2632405Y1131671D01*
X2639974Y1120292D01*
X2649016Y1110030D01*
X2659278Y1100988D01*
X2670657Y1093368D01*
X2682951Y1087323D01*
X2695905Y1082954D01*
X2709316Y1080262D01*
X2722981Y1079347D01*
X2736646Y1080262D01*
X2750058Y1082954D01*
X2763012Y1087323D01*
X2775305Y1093368D01*
X2786684Y1100988D01*
X2796997Y1110030D01*
X2805988Y1120292D01*
X2813608Y1131671D01*
X2819654Y1143965D01*
X2824073Y1156919D01*
X2826715Y1170330D01*
X2827629Y1183995D01*
X2826715Y1197660D01*
X2824073Y1211072D01*
X2819654Y1224026D01*
X2813608Y1236319D01*
X2805988Y1247698D01*
X2796997Y1257960D01*
X2786684Y1267002D01*
X2775305Y1274622D01*
X2763012Y1280668D01*
X2750058Y1285036D01*
X2736646Y1287729D01*
X2722981Y1288643D01*
X2709316Y1287729D01*
X2695905Y1285036D01*
X2687421Y1282192D01*
X2683713Y1281633D01*
X2680055Y1282496D01*
X2676956Y1284630D01*
X2067509Y1894078D01*
X2065324Y1897329D01*
X2064562Y1901240D01*
X2065324Y1905152D01*
X2067509Y1908403D01*
X2070811Y1910638D01*
X2074722Y1911400D01*
X2190800Y1911400D01*
X2194661Y1910638D01*
X2197963Y1908403D01*
X2622397Y1484020D01*
X2624480Y1480921D01*
X2625344Y1477264D01*
X2624836Y1473555D01*
X2621940Y1465072D01*
X2619248Y1451660D01*
X2618384Y1437995D01*
X2619248Y1424330D01*
X2621940Y1410919D01*
X2626309Y1397965D01*
X2632405Y1385671D01*
X2639974Y1374292D01*
X2649016Y1364030D01*
X2659278Y1354988D01*
X2670657Y1347368D01*
X2682951Y1341323D01*
X2695905Y1336954D01*
X2709316Y1334262D01*
X2722981Y1333347D01*
X2736646Y1334262D01*
X2750058Y1336954D01*
X2763012Y1341323D01*
X2775305Y1347368D01*
X2786684Y1354988D01*
X2796997Y1364030D01*
X2805988Y1374292D01*
X2813608Y1385671D01*
X2819654Y1397965D01*
X2824073Y1410919D01*
X2826715Y1424330D01*
X2827629Y1437995D01*
X2826715Y1451660D01*
X2824073Y1465072D01*
X2819654Y1478026D01*
X2813608Y1490319D01*
X2805988Y1501698D01*
X2796997Y1511960D01*
X2786684Y1521002D01*
X2775305Y1528622D01*
X2763012Y1534668D01*
X2750058Y1539036D01*
X2736646Y1541729D01*
X2722981Y1542643D01*
X2709316Y1541729D01*
X2695905Y1539036D01*
X2687421Y1536192D01*
X2683713Y1535633D01*
X2680055Y1536496D01*
X2676956Y1538630D01*
X2238654Y1976932D01*
X2232406Y1982063D01*
X2225751Y1985619D01*
X2218486Y1987804D01*
X2210460Y1988616D01*
X1516075Y1988616D01*
X1512163Y1989378D01*
X1508912Y1991614D01*
X1506677Y1994865D01*
X1505915Y1998776D01*
X1505915Y2001215D01*
X1506677Y2005126D01*
X1508912Y2008378D01*
X1512163Y2010613D01*
X1516075Y2011375D01*
X2344826Y2011375D01*
X2348687Y2010613D01*
X2351989Y2008378D01*
X2622397Y1738020D01*
X2624480Y1734921D01*
X2625344Y1731264D01*
X2624836Y1727555D01*
X2621940Y1719072D01*
X2619248Y1705660D01*
X2618384Y1691995D01*
X2619248Y1678330D01*
X2621940Y1664919D01*
X2626309Y1651965D01*
X2632405Y1639671D01*
X2639974Y1628292D01*
X2649016Y1618030D01*
X2659278Y1608988D01*
X2670657Y1601368D01*
X2682951Y1595323D01*
X2695905Y1590954D01*
X2709316Y1588262D01*
X2722981Y1587347D01*
X2736646Y1588262D01*
X2750058Y1590954D01*
X2763012Y1595323D01*
X2775305Y1601368D01*
X2786684Y1608988D01*
X2796997Y1618030D01*
X2805988Y1628292D01*
X2813608Y1639671D01*
X2819654Y1651965D01*
X2824073Y1664919D01*
X2826715Y1678330D01*
X2827629Y1691995D01*
X2826715Y1705660D01*
X2824073Y1719072D01*
X2819654Y1732025D01*
X2813608Y1744319D01*
X2805988Y1755698D01*
X2796997Y1765960D01*
X2786684Y1775002D01*
X2775305Y1782622D01*
X2763012Y1788668D01*
X2750058Y1793036D01*
X2736646Y1795729D01*
X2722981Y1796643D01*
X2709316Y1795729D01*
X2695905Y1793036D01*
X2687421Y1790192D01*
X2683713Y1789633D01*
X2680055Y1790496D01*
X2676956Y1792630D01*
X2425547Y2044039D01*
X2423363Y2047341D01*
X2422550Y2051202D01*
X2423363Y2055114D01*
X2425547Y2058416D01*
X2428849Y2060600D01*
X2432710Y2061362D01*
X2548788Y2061362D01*
X2552700Y2060600D01*
X2556002Y2058416D01*
X2622397Y1992020D01*
X2624480Y1988921D01*
X2625344Y1985264D01*
X2624836Y1981555D01*
X2621940Y1973072D01*
X2619248Y1959660D01*
X2618384Y1945995D01*
X2619248Y1932330D01*
X2621940Y1918919D01*
X2626309Y1905965D01*
X2632405Y1893671D01*
X2639974Y1882292D01*
X2649016Y1872030D01*
X2659278Y1862988D01*
X2670657Y1855368D01*
X2682951Y1849323D01*
X2695905Y1844954D01*
X2709316Y1842262D01*
X2722981Y1841347D01*
X2736646Y1842262D01*
X2750058Y1844954D01*
X2763012Y1849323D01*
X2775305Y1855368D01*
X2786684Y1862988D01*
X2796997Y1872030D01*
X2805988Y1882292D01*
X2813608Y1893671D01*
X2819654Y1905965D01*
X2824073Y1918919D01*
X2826715Y1932330D01*
X2827629Y1945995D01*
X2826715Y1959660D01*
X2824073Y1973072D01*
X2819654Y1986025D01*
X2813608Y1998319D01*
X2805988Y2009698D01*
X2796997Y2019960D01*
X2786684Y2029002D01*
X2775305Y2036622D01*
X2763012Y2042668D01*
X2750058Y2047036D01*
X2736646Y2049729D01*
X2722981Y2050643D01*
X2709316Y2049729D01*
X2695905Y2047036D01*
X2687421Y2044192D01*
X2683713Y2043633D01*
X2680055Y2044496D01*
X2676956Y2046630D01*
X2596642Y2126945D01*
X2590393Y2132076D01*
X2583738Y2135632D01*
X2576525Y2137816D01*
X2568498Y2138578D01*
X1516075Y2138578D01*
X1512163Y2139391D01*
X1508912Y2141575D01*
X1506677Y2144877D01*
X1505915Y2148738D01*
X1505915Y2151227D01*
X1506677Y2155139D01*
X1508912Y2158390D01*
X1512163Y2160625D01*
X1516075Y2161387D01*
X2619298Y2161387D01*
X2623007Y2160676D01*
X2626156Y2158695D01*
X2628442Y2155698D01*
X2632405Y2147671D01*
X2639974Y2136292D01*
X2649016Y2126030D01*
X2659278Y2116988D01*
X2670657Y2109368D01*
X2682951Y2103323D01*
X2695905Y2098954D01*
X2709316Y2096262D01*
X2722981Y2095347D01*
X2736646Y2096262D01*
X2750058Y2098954D01*
X2763012Y2103323D01*
X2775305Y2109368D01*
X2786684Y2116988D01*
X2796997Y2126030D01*
X2805988Y2136292D01*
X2813608Y2147671D01*
X2819654Y2159965D01*
X2824073Y2172919D01*
X2826715Y2186330D01*
X2827629Y2199995D01*
X2826715Y2213660D01*
X2824073Y2227072D01*
X2819654Y2240026D01*
X2813608Y2252319D01*
X2805988Y2263698D01*
X2796997Y2273960D01*
X2786684Y2283002D01*
X2775305Y2290622D01*
X2763012Y2296668D01*
X2750058Y2301036D01*
X2736646Y2303729D01*
X2722981Y2304643D01*
X2709316Y2303729D01*
X2695905Y2301036D01*
X2682951Y2296668D01*
X2670657Y2290622D01*
X2659278Y2283002D01*
X2649016Y2273960D01*
X2639974Y2263698D01*
X2632405Y2252319D01*
X2628442Y2244293D01*
X2626156Y2241296D01*
X2623007Y2239314D01*
X2619298Y2238603D01*
X2586736Y2238603D01*
X2582824Y2239365D01*
X2579522Y2241600D01*
X2577338Y2244852D01*
X2576576Y2248763D01*
X2577338Y2252675D01*
X2579522Y2255926D01*
X2676956Y2353360D01*
X2680055Y2355494D01*
X2683713Y2356358D01*
X2687421Y2355799D01*
X2695905Y2352954D01*
X2709316Y2350262D01*
X2722981Y2349347D01*
X2736646Y2350262D01*
X2750058Y2352954D01*
X2763012Y2357323D01*
X2775305Y2363368D01*
X2786684Y2370988D01*
X2796997Y2380030D01*
X2805988Y2390292D01*
X2813608Y2401671D01*
X2819654Y2413965D01*
X2824073Y2426919D01*
X2826715Y2440330D01*
X2827629Y2453995D01*
X2826715Y2467660D01*
X2824073Y2481072D01*
X2819654Y2494026D01*
X2813608Y2506319D01*
X2805988Y2517698D01*
X2796997Y2527960D01*
X2786684Y2537002D01*
X2775305Y2544622D01*
X2763012Y2550668D01*
X2750058Y2555036D01*
X2736646Y2557729D01*
X2722981Y2558643D01*
X2709316Y2557729D01*
X2695905Y2555036D01*
X2682951Y2550668D01*
X2670657Y2544622D01*
X2659278Y2537002D01*
X2649016Y2527960D01*
X2639974Y2517698D01*
X2632405Y2506319D01*
X2626309Y2494026D01*
X2621940Y2481072D01*
X2619248Y2467660D01*
X2618384Y2453995D01*
X2619248Y2440330D01*
X2621940Y2426919D01*
X2624836Y2418435D01*
X2625344Y2414727D01*
X2624480Y2411069D01*
X2622397Y2407970D01*
X2506014Y2291588D01*
X2502712Y2289403D01*
X2498801Y2288590D01*
X2382723Y2288590D01*
X2378862Y2289403D01*
X2375560Y2291588D01*
X2373376Y2294890D01*
X2372563Y2298750D01*
X2373376Y2302662D01*
X2375560Y2305964D01*
X2676956Y2607360D01*
X2680055Y2609494D01*
X2683713Y2610358D01*
X2687421Y2609799D01*
X2695905Y2606954D01*
X2709316Y2604262D01*
X2722981Y2603347D01*
X2736646Y2604262D01*
X2750058Y2606954D01*
X2763012Y2611323D01*
X2775305Y2617368D01*
X2786684Y2624988D01*
X2796997Y2634030D01*
X2805988Y2644292D01*
X2813608Y2655671D01*
X2819654Y2667965D01*
X2824073Y2680919D01*
X2826715Y2694330D01*
X2827629Y2707995D01*
X2826715Y2721660D01*
X2824073Y2735072D01*
X2819654Y2748026D01*
X2813608Y2760319D01*
X2805988Y2771698D01*
X2796997Y2781960D01*
X2786684Y2791002D01*
X2775305Y2798622D01*
X2763012Y2804668D01*
X2750058Y2809036D01*
X2736646Y2811729D01*
X2722981Y2812643D01*
X2709316Y2811729D01*
X2695905Y2809036D01*
X2682951Y2804668D01*
X2670657Y2798622D01*
X2659278Y2791002D01*
X2649016Y2781960D01*
X2639974Y2771698D01*
X2632405Y2760319D01*
X2626309Y2748026D01*
X2621940Y2735072D01*
X2619248Y2721660D01*
X2618384Y2707995D01*
X2619248Y2694330D01*
X2621940Y2680919D01*
X2624836Y2672435D01*
X2625344Y2668727D01*
X2624480Y2665069D01*
X2622397Y2661970D01*
X2302002Y2341575D01*
X2298700Y2339390D01*
X2294788Y2338578D01*
X2178710Y2338578D01*
X2174849Y2339390D01*
X2171547Y2341575D01*
X2169363Y2344877D01*
X2168550Y2348738D01*
X2169363Y2352649D01*
X2171547Y2355951D01*
X2676956Y2861360D01*
X2680055Y2863494D01*
X2683713Y2864358D01*
X2687421Y2863799D01*
X2695905Y2860954D01*
X2709316Y2858262D01*
X2722981Y2857347D01*
X2736646Y2858262D01*
X2750058Y2860954D01*
X2763012Y2865323D01*
X2775305Y2871368D01*
X2786684Y2878988D01*
X2796997Y2888030D01*
X2805988Y2898292D01*
X2813608Y2909671D01*
X2819654Y2921965D01*
X2824073Y2934919D01*
X2826715Y2948330D01*
X2827629Y2961995D01*
X2826715Y2975660D01*
X2824073Y2989072D01*
X2819654Y3002026D01*
X2813608Y3014319D01*
X2805988Y3025698D01*
X2796997Y3035960D01*
X2786684Y3045002D01*
X2775305Y3052622D01*
X2763012Y3058668D01*
X2750058Y3063036D01*
X2736646Y3065729D01*
X2722981Y3066643D01*
X2709316Y3065729D01*
X2695905Y3063036D01*
X2682951Y3058668D01*
X2670657Y3052622D01*
X2659278Y3045002D01*
X2649016Y3035960D01*
X2639974Y3025698D01*
X2632405Y3014319D01*
X2626309Y3002026D01*
X2621940Y2989072D01*
X2619248Y2975660D01*
X2618384Y2961995D01*
X2619248Y2948330D01*
X2621940Y2934919D01*
X2624836Y2926435D01*
X2625344Y2922727D01*
X2624480Y2919069D01*
X2622397Y2915970D01*
X2097989Y2391613D01*
X2094687Y2389378D01*
X2090826Y2388616D01*
X1516075Y2388616D01*
X1512163Y2389378D01*
X1508912Y2391613D01*
X1506677Y2394864D01*
X1505915Y2398776D01*
X1505915Y2401214D01*
X1506677Y2405126D01*
X1508912Y2408377D01*
X1512163Y2410612D01*
X1516075Y2411374D01*
X1956460Y2411374D01*
X1964486Y2412187D01*
X1971751Y2414371D01*
X1978406Y2417927D01*
X1984654Y2423058D01*
X2676956Y3115360D01*
X2680055Y3117494D01*
X2683713Y3118358D01*
X2687421Y3117799D01*
X2695905Y3114954D01*
X2709316Y3112262D01*
X2722981Y3111347D01*
X2736646Y3112262D01*
X2750058Y3114954D01*
X2763012Y3119323D01*
X2775305Y3125368D01*
X2786684Y3132988D01*
X2796997Y3142030D01*
X2805988Y3152292D01*
X2813608Y3163671D01*
X2819654Y3175965D01*
X2824073Y3188919D01*
X2826715Y3202330D01*
X2827629Y3215995D01*
X2826715Y3229660D01*
X2824073Y3243072D01*
X2819654Y3256026D01*
X2813608Y3268319D01*
X2805988Y3279698D01*
X2796997Y3289960D01*
X2786684Y3299002D01*
X2775305Y3306622D01*
X2763012Y3312668D01*
X2750058Y3317036D01*
X2736646Y3319729D01*
X2722981Y3320643D01*
X2709316Y3319729D01*
X2695905Y3317036D01*
X2682951Y3312668D01*
X2670657Y3306622D01*
X2659278Y3299002D01*
X2649016Y3289960D01*
X2639974Y3279698D01*
X2632405Y3268319D01*
X2626309Y3256026D01*
X2621940Y3243072D01*
X2619248Y3229660D01*
X2618384Y3215995D01*
X2619248Y3202330D01*
X2621940Y3188919D01*
X2624836Y3180435D01*
X2625344Y3176727D01*
X2624480Y3173069D01*
X2622397Y3169970D01*
X1943963Y2491587D01*
X1940661Y2489352D01*
X1936800Y2488590D01*
X1820722Y2488590D01*
X1816811Y2489352D01*
X1813509Y2491587D01*
X1811324Y2494838D01*
X1810562Y2498750D01*
X1811324Y2502662D01*
X1813509Y2505913D01*
X2676956Y3369360D01*
X2680055Y3371494D01*
X2683713Y3372358D01*
X2687421Y3371799D01*
X2695905Y3368954D01*
X2709316Y3366262D01*
X2722981Y3365347D01*
X2736646Y3366262D01*
X2750058Y3368954D01*
X2763012Y3373323D01*
X2775305Y3379368D01*
X2786684Y3386988D01*
X2796997Y3396030D01*
X2805988Y3406292D01*
X2813608Y3417671D01*
X2819654Y3429965D01*
X2824073Y3442919D01*
X2826715Y3456330D01*
X2827629Y3469995D01*
X2826715Y3483660D01*
X2824073Y3497072D01*
X2819654Y3510026D01*
X2813608Y3522319D01*
X2805988Y3533698D01*
X2796997Y3543960D01*
X2786684Y3553002D01*
X2775305Y3560622D01*
X2763012Y3566668D01*
X2750058Y3571036D01*
X2736646Y3573729D01*
X2722981Y3574643D01*
X2709316Y3573729D01*
X2695905Y3571036D01*
X2682951Y3566668D01*
X2670657Y3560622D01*
X2659278Y3553002D01*
X2649016Y3543960D01*
X2639974Y3533698D01*
X2632405Y3522319D01*
X2626309Y3510026D01*
X2621940Y3497072D01*
X2619248Y3483660D01*
X2618384Y3469995D01*
X2619248Y3456330D01*
X2621940Y3442919D01*
X2624836Y3434435D01*
X2625344Y3430727D01*
X2624480Y3427069D01*
X2622397Y3423970D01*
X1740001Y2541574D01*
X1736699Y2539390D01*
X1732788Y2538577D01*
X1516075Y2538577D01*
X1512163Y2539390D01*
X1508912Y2541574D01*
X1506677Y2544876D01*
X1505915Y2548737D01*
X1505915Y2551226D01*
X1506677Y2555138D01*
X1508912Y2558389D01*
X1512163Y2560624D01*
X1516075Y2561386D01*
X1598472Y2561386D01*
X1606499Y2562199D01*
X1613763Y2564384D01*
X1620418Y2567940D01*
X1626666Y2573070D01*
X2676956Y3623360D01*
X2680055Y3625494D01*
X2683713Y3626358D01*
X2687421Y3625799D01*
X2695905Y3622954D01*
X2709316Y3620262D01*
X2722981Y3619347D01*
X2736646Y3620262D01*
X2750058Y3622954D01*
X2763012Y3627323D01*
X2775305Y3633368D01*
X2786684Y3640988D01*
X2796997Y3650030D01*
X2805988Y3660292D01*
X2813608Y3671671D01*
X2819654Y3683965D01*
X2824073Y3696919D01*
X2826715Y3710330D01*
X2827629Y3723995D01*
X2826715Y3737660D01*
X2824073Y3751072D01*
X2819654Y3764026D01*
X2813608Y3776319D01*
X2805988Y3787698D01*
X2796997Y3797960D01*
X2786684Y3807002D01*
X2775305Y3814622D01*
X2767177Y3818585D01*
X2764180Y3820871D01*
X2762199Y3824020D01*
X2761538Y3827729D01*
X2761538Y3874312D01*
X2762250Y3877970D01*
X2764231Y3881170D01*
X2767228Y3883406D01*
X2775305Y3887368D01*
X2786684Y3894988D01*
X2796997Y3904030D01*
X2805988Y3914292D01*
X2813608Y3925671D01*
X2819654Y3937965D01*
X2824073Y3950919D01*
X2826715Y3964330D01*
X2827629Y3977995D01*
X2826715Y3991660D01*
X2824073Y4005072D01*
X2819654Y4018026D01*
X2813608Y4030319D01*
X2805988Y4041698D01*
X2796997Y4051960D01*
X2786684Y4061002D01*
X2775305Y4068622D01*
X2763012Y4074668D01*
X2750058Y4079036D01*
X2736646Y4081729D01*
X2722981Y4082643D01*
X2709316Y4081729D01*
X2695905Y4079036D01*
X2682951Y4074668D01*
X2670657Y4068622D01*
X2659278Y4061002D01*
X2649016Y4051960D01*
X2639974Y4041698D01*
X2632405Y4030319D01*
X2626309Y4018026D01*
X2621940Y4005072D01*
X2619248Y3991660D01*
X2618384Y3977995D01*
X2619248Y3964330D01*
X2621940Y3950919D01*
X2626309Y3937965D01*
X2632405Y3925671D01*
X2639974Y3914292D01*
X2649016Y3904030D01*
X2659278Y3894988D01*
X2670657Y3887368D01*
X2678684Y3883456D01*
X2681681Y3881170D01*
X2683662Y3878021D01*
X2684322Y3874312D01*
X2684322Y3827627D01*
X2683611Y3823970D01*
X2681630Y3820769D01*
X2678633Y3818534D01*
X2670657Y3814622D01*
X2659278Y3807002D01*
X2649016Y3797960D01*
X2639974Y3787698D01*
X2632405Y3776319D01*
X2626309Y3764026D01*
X2621940Y3751072D01*
X2619248Y3737660D01*
X2618384Y3723995D01*
X2619248Y3710330D01*
X2621940Y3696919D01*
X2624836Y3688435D01*
X2625344Y3684727D01*
X2624480Y3681069D01*
X2622397Y3677970D01*
X1585976Y2641600D01*
X1582674Y2639364D01*
X1578813Y2638602D01*
X1489151Y2638602D01*
X1479448Y2639872D01*
X1240586Y2639872D01*
X1234236Y2639161D01*
X1228801Y2637282D01*
X1223873Y2634183D01*
X1219809Y2630119D01*
X1216710Y2625191D01*
X1214831Y2619756D01*
X1214120Y2613406D01*
X1214120Y2586583D01*
X1214831Y2580233D01*
X1216050Y2575001D01*
X1214831Y2569768D01*
X1214120Y2563418D01*
X1214120Y2536545D01*
X1214831Y2530246D01*
X1216050Y2524963D01*
X1214831Y2519730D01*
X1214120Y2513431D01*
X1214120Y2486558D01*
X1214831Y2480259D01*
X1216050Y2474976D01*
X1214831Y2469743D01*
X1214120Y2463444D01*
X1214120Y2436571D01*
X1214831Y2430221D01*
X1216050Y2424988D01*
X1214831Y2419756D01*
X1214120Y2413406D01*
X1214120Y2386584D01*
X1214831Y2380234D01*
X1216050Y2375001D01*
X1214831Y2369769D01*
X1214120Y2363419D01*
X1214120Y2336546D01*
X1214831Y2330246D01*
X1216050Y2324963D01*
X1214831Y2319731D01*
X1214120Y2313432D01*
X1214120Y2286558D01*
X1214831Y2280259D01*
X1216050Y2274976D01*
X1214831Y2269744D01*
X1214120Y2263444D01*
X1214120Y2236571D01*
X1214831Y2230221D01*
X1216050Y2224989D01*
X1214831Y2219756D01*
X1214120Y2213406D01*
X1214120Y2186584D01*
X1214831Y2180234D01*
X1216050Y2175002D01*
X1214831Y2169769D01*
X1214120Y2163419D01*
X1214120Y2136546D01*
X1214831Y2130247D01*
X1216050Y2124964D01*
X1214831Y2119731D01*
X1214120Y2113432D01*
X1214120Y2086559D01*
X1214831Y2080260D01*
X1216050Y2074976D01*
X1214831Y2069744D01*
X1214120Y2063445D01*
X1214120Y2036572D01*
X1214831Y2030222D01*
X1216050Y2024989D01*
X1214831Y2019757D01*
X1214120Y2013407D01*
X1214120Y1986584D01*
X1214831Y1980234D01*
X1216050Y1975002D01*
X1214831Y1969770D01*
X1214120Y1963420D01*
X1214120Y1936546D01*
X1214831Y1930247D01*
X1216050Y1924964D01*
X1214831Y1919732D01*
X1214120Y1913432D01*
X1214120Y1886559D01*
X1214831Y1880260D01*
X1216050Y1874977D01*
X1214831Y1869744D01*
X1214120Y1863445D01*
X1214120Y1836572D01*
X1214831Y1830222D01*
X1216050Y1824989D01*
X1214831Y1819757D01*
X1214120Y1813407D01*
X1214120Y1786585D01*
X1214831Y1780235D01*
X1216050Y1775002D01*
X1214831Y1769770D01*
X1214120Y1763420D01*
X1214120Y1736547D01*
X1214831Y1730248D01*
X1216050Y1724964D01*
X1214831Y1719732D01*
X1214120Y1713433D01*
X1214120Y1686560D01*
X1214831Y1680260D01*
X1216050Y1674977D01*
X1214831Y1669745D01*
X1214120Y1663446D01*
X1214120Y1636572D01*
X1214831Y1630222D01*
X1216710Y1624787D01*
X1219809Y1619859D01*
X1223873Y1615795D01*
X1228801Y1612696D01*
X1234236Y1610817D01*
X1240586Y1610055D01*
X1476095Y1610055D01*
X1480007Y1609293D01*
X1483309Y1607108D01*
X2622397Y468020D01*
X2624480Y464921D01*
X2625344Y461264D01*
X2624836Y457555D01*
X2621940Y449072D01*
X2619248Y435660D01*
X2618384Y421995D01*
X2619248Y408330D01*
X2621940Y394919D01*
X2626309Y381965D01*
X2632405Y369671D01*
X2639974Y358292D01*
X2649016Y348030D01*
X2659278Y338988D01*
X2670657Y331368D01*
X2682951Y325323D01*
X2695905Y320954D01*
X2709316Y318262D01*
G37*
G36*
X2872333Y467715D02*
G01*
X2931261Y467715D01*
X2931261Y526643D01*
X2898800Y526643D01*
X2892501Y525932D01*
X2887065Y524001D01*
X2882138Y520954D01*
X2878074Y516839D01*
X2874975Y511962D01*
X2873044Y506476D01*
X2872333Y500176D01*
G37*
G36*
X3022701Y467715D02*
G01*
X3081629Y467715D01*
X3081629Y500176D01*
X3080918Y506476D01*
X3079038Y511962D01*
X3075940Y516839D01*
X3071825Y520954D01*
X3066948Y524001D01*
X3061462Y525932D01*
X3055162Y526643D01*
X3022701Y526643D01*
G37*
G36*
X3022701Y9323679D02*
G01*
X3070860Y9323679D01*
X3067608Y9330283D01*
X3059988Y9341662D01*
X3050997Y9351975D01*
X3040684Y9360966D01*
X3029305Y9368586D01*
X3022701Y9371838D01*
G37*
G36*
X2883154Y9323679D02*
G01*
X2931261Y9323679D01*
X2931261Y9371838D01*
X2924657Y9368586D01*
X2913278Y9360966D01*
X2903016Y9351975D01*
X2893974Y9341662D01*
X2886405Y9330283D01*
G37*
G36*
X3022701Y582117D02*
G01*
X3029305Y585368D01*
X3040684Y592988D01*
X3050997Y602030D01*
X3059988Y612292D01*
X3067608Y623671D01*
X3070860Y630275D01*
X3022701Y630275D01*
G37*
G36*
X2931261Y582117D02*
G01*
X2931261Y630275D01*
X2883154Y630275D01*
X2886405Y623671D01*
X2893974Y612292D01*
X2903016Y602030D01*
X2913278Y592988D01*
X2924657Y585368D01*
G37*
G36*
X6672732Y9226702D02*
G01*
X6720840Y9226702D01*
X6717588Y9233306D01*
X6709968Y9244685D01*
X6700977Y9254947D01*
X6690664Y9263989D01*
X6679285Y9271609D01*
X6672732Y9274860D01*
G37*
G36*
X3022701Y721715D02*
G01*
X3070860Y721715D01*
X3067608Y728319D01*
X3059988Y739698D01*
X3050997Y749960D01*
X3040684Y759002D01*
X3029305Y766622D01*
X3022701Y769874D01*
G37*
G36*
X2883154Y721715D02*
G01*
X2931261Y721715D01*
X2931261Y769874D01*
X2924657Y766622D01*
X2913278Y759002D01*
X2903016Y749960D01*
X2893974Y739698D01*
X2886405Y728319D01*
G37*
G36*
X6533134Y9226702D02*
G01*
X6581292Y9226702D01*
X6581292Y9274860D01*
X6574688Y9271609D01*
X6563309Y9263989D01*
X6552996Y9254947D01*
X6544005Y9244685D01*
X6536385Y9233306D01*
G37*
G36*
X6279134Y9226702D02*
G01*
X6327292Y9226702D01*
X6327292Y9274860D01*
X6320688Y9271609D01*
X6309309Y9263989D01*
X6298996Y9254947D01*
X6290005Y9244685D01*
X6282385Y9233306D01*
G37*
G36*
X6418732Y9226702D02*
G01*
X6466840Y9226702D01*
X6463588Y9233306D01*
X6455968Y9244685D01*
X6446977Y9254947D01*
X6436664Y9263989D01*
X6425285Y9271609D01*
X6418732Y9274860D01*
G37*
G36*
X3022701Y836117D02*
G01*
X3029305Y839368D01*
X3040684Y846988D01*
X3050997Y856030D01*
X3059988Y866292D01*
X3067608Y877671D01*
X3070860Y884275D01*
X3022701Y884275D01*
G37*
G36*
X2931261Y836117D02*
G01*
X2931261Y884275D01*
X2883154Y884275D01*
X2886405Y877671D01*
X2893974Y866292D01*
X2903016Y856030D01*
X2913278Y846988D01*
X2924657Y839368D01*
G37*
G36*
X3022701Y975715D02*
G01*
X3070860Y975715D01*
X3067608Y982319D01*
X3059988Y993698D01*
X3050997Y1003960D01*
X3040684Y1013002D01*
X3029305Y1020622D01*
X3022701Y1023874D01*
G37*
G36*
X2883154Y975715D02*
G01*
X2931261Y975715D01*
X2931261Y1023874D01*
X2924657Y1020622D01*
X2913278Y1013002D01*
X2903016Y1003960D01*
X2893974Y993698D01*
X2886405Y982319D01*
G37*
G36*
X2931261Y9184132D02*
G01*
X2931261Y9232239D01*
X2883154Y9232239D01*
X2886405Y9225686D01*
X2893974Y9214307D01*
X2903016Y9203994D01*
X2913278Y9195003D01*
X2924657Y9187383D01*
G37*
G36*
X3022701Y9184132D02*
G01*
X3029305Y9187383D01*
X3040684Y9195003D01*
X3050997Y9203994D01*
X3059988Y9214307D01*
X3067608Y9225686D01*
X3070860Y9232239D01*
X3022701Y9232239D01*
G37*
G36*
X3022701Y1090117D02*
G01*
X3029305Y1093368D01*
X3040684Y1100988D01*
X3050997Y1110030D01*
X3059988Y1120292D01*
X3067608Y1131671D01*
X3070860Y1138275D01*
X3022701Y1138275D01*
G37*
G36*
X2931261Y1090117D02*
G01*
X2931261Y1138275D01*
X2883154Y1138275D01*
X2886405Y1131671D01*
X2893974Y1120292D01*
X2903016Y1110030D01*
X2913278Y1100988D01*
X2924657Y1093368D01*
G37*
G36*
X2883154Y1229715D02*
G01*
X2931261Y1229715D01*
X2931261Y1277874D01*
X2924657Y1274622D01*
X2913278Y1267002D01*
X2903016Y1257960D01*
X2893974Y1247698D01*
X2886405Y1236319D01*
G37*
G36*
X3022701Y1229715D02*
G01*
X3070860Y1229715D01*
X3067608Y1236319D01*
X3059988Y1247698D01*
X3050997Y1257960D01*
X3040684Y1267002D01*
X3029305Y1274622D01*
X3022701Y1277874D01*
G37*
G36*
X1176375Y1279550D02*
G01*
X1183081Y1280007D01*
X1195882Y1282649D01*
X1208176Y1287068D01*
X1219809Y1293063D01*
X1230528Y1300632D01*
X1240078Y1309573D01*
X1248359Y1319682D01*
X1255115Y1330909D01*
X1256334Y1333652D01*
X1176375Y1333652D01*
G37*
G36*
X1023670Y1279550D02*
G01*
X1023670Y1333652D01*
X943660Y1333652D01*
X944880Y1330909D01*
X951636Y1319682D01*
X959916Y1309573D01*
X969467Y1300632D01*
X980186Y1293063D01*
X991819Y1287068D01*
X1004112Y1282649D01*
X1016914Y1280007D01*
G37*
G36*
X2722981Y9173362D02*
G01*
X2736646Y9174276D01*
X2750058Y9176918D01*
X2763012Y9181338D01*
X2775305Y9187383D01*
X2786684Y9195003D01*
X2796997Y9203994D01*
X2805988Y9214307D01*
X2813608Y9225686D01*
X2819654Y9237929D01*
X2824073Y9250883D01*
X2826715Y9264345D01*
X2827629Y9277959D01*
X2826715Y9291624D01*
X2824073Y9305086D01*
X2819654Y9318040D01*
X2813608Y9330283D01*
X2805988Y9341662D01*
X2796997Y9351975D01*
X2786684Y9360966D01*
X2775305Y9368586D01*
X2763012Y9374632D01*
X2750058Y9379051D01*
X2736646Y9381693D01*
X2722981Y9382607D01*
X2709316Y9381693D01*
X2695905Y9379051D01*
X2682951Y9374632D01*
X2670657Y9368586D01*
X2659278Y9360966D01*
X2649016Y9351975D01*
X2639974Y9341662D01*
X2632405Y9330283D01*
X2626309Y9318040D01*
X2621940Y9305086D01*
X2619248Y9291624D01*
X2618384Y9277959D01*
X2619248Y9264345D01*
X2621940Y9250883D01*
X2626309Y9237929D01*
X2632405Y9225686D01*
X2639974Y9214307D01*
X2649016Y9203994D01*
X2659278Y9195003D01*
X2670657Y9187383D01*
X2682951Y9181338D01*
X2695905Y9176918D01*
X2709316Y9174276D01*
G37*
G36*
X488340Y1289558D02*
G01*
X494233Y1290015D01*
X506222Y1292606D01*
X517702Y1296873D01*
X528421Y1302766D01*
X538226Y1310081D01*
X546912Y1318768D01*
X554228Y1328572D01*
X559765Y1338630D01*
X488340Y1338630D01*
G37*
G36*
X355650Y1289558D02*
G01*
X355650Y1338630D01*
X284226Y1338630D01*
X289763Y1328572D01*
X297078Y1318768D01*
X305765Y1310081D01*
X315569Y1302766D01*
X326288Y1296873D01*
X337769Y1292606D01*
X349758Y1290015D01*
G37*
G36*
X6327292Y9087104D02*
G01*
X6327292Y9135262D01*
X6279134Y9135262D01*
X6282385Y9128658D01*
X6290005Y9117279D01*
X6298996Y9107017D01*
X6309309Y9097975D01*
X6320688Y9090355D01*
G37*
G36*
X3022701Y1344117D02*
G01*
X3029305Y1347368D01*
X3040684Y1354988D01*
X3050997Y1364030D01*
X3059988Y1374292D01*
X3067608Y1385671D01*
X3070860Y1392275D01*
X3022701Y1392275D01*
G37*
G36*
X2931261Y1344117D02*
G01*
X2931261Y1392275D01*
X2883154Y1392275D01*
X2886405Y1385671D01*
X2893974Y1374292D01*
X2903016Y1364030D01*
X2913278Y1354988D01*
X2924657Y1347368D01*
G37*
G36*
X488340Y1411325D02*
G01*
X559765Y1411325D01*
X554228Y1421434D01*
X546912Y1431239D01*
X538226Y1439926D01*
X528421Y1447241D01*
X517702Y1453134D01*
X506222Y1457401D01*
X494233Y1459992D01*
X488340Y1460449D01*
G37*
G36*
X284226Y1411325D02*
G01*
X355650Y1411325D01*
X355650Y1460449D01*
X349758Y1459992D01*
X337769Y1457401D01*
X326288Y1453134D01*
X315569Y1447241D01*
X305765Y1439926D01*
X297078Y1431239D01*
X289763Y1421434D01*
G37*
G36*
X943660Y1416354D02*
G01*
X1023670Y1416354D01*
X1023670Y1470456D01*
X1016914Y1469999D01*
X1004112Y1467358D01*
X991819Y1462938D01*
X980186Y1456944D01*
X969467Y1449374D01*
X959916Y1440434D01*
X951636Y1430324D01*
X944880Y1419098D01*
G37*
G36*
X1176375Y1416354D02*
G01*
X1256334Y1416354D01*
X1255115Y1419098D01*
X1248359Y1430324D01*
X1240078Y1440434D01*
X1230528Y1449374D01*
X1219809Y1456944D01*
X1208176Y1462938D01*
X1195882Y1467358D01*
X1183081Y1469999D01*
X1176375Y1470456D01*
G37*
G36*
X2883154Y1483715D02*
G01*
X2931261Y1483715D01*
X2931261Y1531874D01*
X2924657Y1528622D01*
X2913278Y1521002D01*
X2903016Y1511960D01*
X2893974Y1501698D01*
X2886405Y1490319D01*
G37*
G36*
X3022701Y1483715D02*
G01*
X3070860Y1483715D01*
X3067608Y1490319D01*
X3059988Y1501698D01*
X3050997Y1511960D01*
X3040684Y1521002D01*
X3029305Y1528622D01*
X3022701Y1531874D01*
G37*
G36*
X5181346Y1526540D02*
G01*
X5191506Y1527962D01*
X5211826Y1532737D01*
X5231587Y1539341D01*
X5250688Y1547774D01*
X5268925Y1557934D01*
X5286146Y1569720D01*
X5302199Y1583080D01*
X5316931Y1597812D01*
X5330240Y1613865D01*
X5342026Y1631086D01*
X5349036Y1643634D01*
X5181346Y1643634D01*
G37*
G36*
X4818634Y1526540D02*
G01*
X4818634Y1643634D01*
X4650943Y1643634D01*
X4657953Y1631086D01*
X4669739Y1613865D01*
X4683048Y1597812D01*
X4697780Y1583080D01*
X4713833Y1569720D01*
X4731054Y1557934D01*
X4749292Y1547774D01*
X4768392Y1539341D01*
X4788154Y1532737D01*
X4808474Y1527962D01*
G37*
G36*
X6581292Y9087104D02*
G01*
X6581292Y9135262D01*
X6533134Y9135262D01*
X6536385Y9128658D01*
X6544005Y9117279D01*
X6552996Y9107017D01*
X6563309Y9097975D01*
X6574688Y9090355D01*
G37*
G36*
X6672732Y9087104D02*
G01*
X6679285Y9090355D01*
X6690664Y9097975D01*
X6700977Y9107017D01*
X6709968Y9117279D01*
X6717588Y9128658D01*
X6720840Y9135262D01*
X6672732Y9135262D01*
G37*
G36*
X3022701Y1598117D02*
G01*
X3029305Y1601368D01*
X3040684Y1608988D01*
X3050997Y1618030D01*
X3059988Y1628292D01*
X3067608Y1639671D01*
X3070860Y1646275D01*
X3022701Y1646275D01*
G37*
G36*
X2931261Y1598117D02*
G01*
X2931261Y1646275D01*
X2883154Y1646275D01*
X2886405Y1639671D01*
X2893974Y1628292D01*
X2903016Y1618030D01*
X2913278Y1608988D01*
X2924657Y1601368D01*
G37*
G36*
X6418732Y9087104D02*
G01*
X6425285Y9090355D01*
X6436664Y9097975D01*
X6446977Y9107017D01*
X6455968Y9117279D01*
X6463588Y9128658D01*
X6466840Y9135262D01*
X6418732Y9135262D01*
G37*
G36*
X3022701Y1737715D02*
G01*
X3070860Y1737715D01*
X3067608Y1744319D01*
X3059988Y1755698D01*
X3050997Y1765960D01*
X3040684Y1775002D01*
X3029305Y1782622D01*
X3022701Y1785874D01*
G37*
G36*
X2883154Y1737715D02*
G01*
X2931261Y1737715D01*
X2931261Y1785874D01*
X2924657Y1782622D01*
X2913278Y1775002D01*
X2903016Y1765960D01*
X2893974Y1755698D01*
X2886405Y1744319D01*
G37*
G36*
X3022701Y9069679D02*
G01*
X3070860Y9069679D01*
X3067608Y9076283D01*
X3059988Y9087662D01*
X3050997Y9097975D01*
X3040684Y9106966D01*
X3029305Y9114586D01*
X3022701Y9117838D01*
G37*
G36*
X2883154Y9069679D02*
G01*
X2931261Y9069679D01*
X2931261Y9117838D01*
X2924657Y9114586D01*
X2913278Y9106966D01*
X2903016Y9097975D01*
X2893974Y9087662D01*
X2886405Y9076283D01*
G37*
G36*
X2931261Y8930132D02*
G01*
X2931261Y8978239D01*
X2883154Y8978239D01*
X2886405Y8971686D01*
X2893974Y8960307D01*
X2903016Y8949994D01*
X2913278Y8941003D01*
X2924657Y8933383D01*
G37*
G36*
X3022701Y1852117D02*
G01*
X3029305Y1855368D01*
X3040684Y1862988D01*
X3050997Y1872030D01*
X3059988Y1882292D01*
X3067608Y1893671D01*
X3070860Y1900275D01*
X3022701Y1900275D01*
G37*
G36*
X2931261Y1852117D02*
G01*
X2931261Y1900275D01*
X2883154Y1900275D01*
X2886405Y1893671D01*
X2893974Y1882292D01*
X2903016Y1872030D01*
X2913278Y1862988D01*
X2924657Y1855368D01*
G37*
G36*
X4650943Y1856333D02*
G01*
X4818634Y1856333D01*
X4818634Y1973427D01*
X4808474Y1972056D01*
X4788154Y1967280D01*
X4768392Y1960625D01*
X4749292Y1952193D01*
X4731054Y1942033D01*
X4713833Y1930247D01*
X4697780Y1916938D01*
X4683048Y1902206D01*
X4669739Y1886153D01*
X4657953Y1868932D01*
G37*
G36*
X5181346Y1856333D02*
G01*
X5349036Y1856333D01*
X5342026Y1868932D01*
X5330240Y1886153D01*
X5316931Y1902206D01*
X5302199Y1916938D01*
X5286146Y1930247D01*
X5268925Y1942033D01*
X5250688Y1952193D01*
X5231587Y1960625D01*
X5211826Y1967280D01*
X5191506Y1972056D01*
X5181346Y1973427D01*
G37*
G36*
X3022701Y8930132D02*
G01*
X3029305Y8933383D01*
X3040684Y8941003D01*
X3050997Y8949994D01*
X3059988Y8960307D01*
X3067608Y8971686D01*
X3070860Y8978239D01*
X3022701Y8978239D01*
G37*
G36*
X3022701Y1991715D02*
G01*
X3070860Y1991715D01*
X3067608Y1998319D01*
X3059988Y2009698D01*
X3050997Y2019960D01*
X3040684Y2029002D01*
X3029305Y2036622D01*
X3022701Y2039874D01*
G37*
G36*
X2883154Y1991715D02*
G01*
X2931261Y1991715D01*
X2931261Y2039874D01*
X2924657Y2036622D01*
X2913278Y2029002D01*
X2903016Y2019960D01*
X2893974Y2009698D01*
X2886405Y1998319D01*
G37*
G36*
X5181346Y2026564D02*
G01*
X5191506Y2027936D01*
X5211826Y2032711D01*
X5231587Y2039366D01*
X5250688Y2047798D01*
X5268925Y2057958D01*
X5286146Y2069744D01*
X5302199Y2083054D01*
X5316931Y2097786D01*
X5330240Y2113838D01*
X5342026Y2131060D01*
X5349036Y2143658D01*
X5181346Y2143658D01*
G37*
G36*
X4818634Y2026564D02*
G01*
X4818634Y2143658D01*
X4650943Y2143658D01*
X4657953Y2131060D01*
X4669739Y2113838D01*
X4683048Y2097786D01*
X4697780Y2083054D01*
X4713833Y2069744D01*
X4731054Y2057958D01*
X4749292Y2047798D01*
X4768392Y2039366D01*
X4788154Y2032711D01*
X4808474Y2027936D01*
G37*
G36*
X2883154Y8815679D02*
G01*
X2931261Y8815679D01*
X2931261Y8863838D01*
X2924657Y8860586D01*
X2913278Y8852966D01*
X2903016Y8843975D01*
X2893974Y8833662D01*
X2886405Y8822283D01*
G37*
G36*
X3022701Y8815679D02*
G01*
X3070860Y8815679D01*
X3067608Y8822283D01*
X3059988Y8833662D01*
X3050997Y8843975D01*
X3040684Y8852966D01*
X3029305Y8860586D01*
X3022701Y8863838D01*
G37*
G36*
X2931261Y8676132D02*
G01*
X2931261Y8724239D01*
X2883154Y8724239D01*
X2886405Y8717686D01*
X2893974Y8706307D01*
X2903016Y8695994D01*
X2913278Y8687003D01*
X2924657Y8679383D01*
G37*
G36*
X325272Y2101850D02*
G01*
X338734Y2101850D01*
X352044Y2103678D01*
X364947Y2107285D01*
X377240Y2112670D01*
X388721Y2119630D01*
X399135Y2128113D01*
X408330Y2137918D01*
X416051Y2148890D01*
X422249Y2160778D01*
X426720Y2173478D01*
X429463Y2186584D01*
X430377Y2199995D01*
X429463Y2213406D01*
X426720Y2226513D01*
X422249Y2239213D01*
X416051Y2251100D01*
X408330Y2262073D01*
X399135Y2271877D01*
X388721Y2280361D01*
X377240Y2287320D01*
X364947Y2292705D01*
X352044Y2296312D01*
X338734Y2298141D01*
X325272Y2298141D01*
X312013Y2296312D01*
X299059Y2292705D01*
X286766Y2287320D01*
X275285Y2280361D01*
X264871Y2271877D01*
X255676Y2262073D01*
X247954Y2251100D01*
X241757Y2239213D01*
X237286Y2226513D01*
X234543Y2213406D01*
X233629Y2199995D01*
X234543Y2186584D01*
X237286Y2173478D01*
X241757Y2160778D01*
X247954Y2148890D01*
X255676Y2137918D01*
X264871Y2128113D01*
X275285Y2119630D01*
X286766Y2112670D01*
X299059Y2107285D01*
X312013Y2103678D01*
G37*
G36*
X3022701Y2106117D02*
G01*
X3029305Y2109368D01*
X3040684Y2116988D01*
X3050997Y2126030D01*
X3059988Y2136292D01*
X3067608Y2147671D01*
X3070860Y2154275D01*
X3022701Y2154275D01*
G37*
G36*
X2931261Y2106117D02*
G01*
X2931261Y2154275D01*
X2883154Y2154275D01*
X2886405Y2147671D01*
X2893974Y2136292D01*
X2903016Y2126030D01*
X2913278Y2116988D01*
X2924657Y2109368D01*
G37*
G36*
X3022701Y8676132D02*
G01*
X3029305Y8679383D01*
X3040684Y8687003D01*
X3050997Y8695994D01*
X3059988Y8706307D01*
X3067608Y8717686D01*
X3070860Y8724239D01*
X3022701Y8724239D01*
G37*
G36*
X3022701Y2245715D02*
G01*
X3070860Y2245715D01*
X3067608Y2252319D01*
X3059988Y2263698D01*
X3050997Y2273960D01*
X3040684Y2283002D01*
X3029305Y2290622D01*
X3022701Y2293874D01*
G37*
G36*
X2883154Y2245715D02*
G01*
X2931261Y2245715D01*
X2931261Y2293874D01*
X2924657Y2290622D01*
X2913278Y2283002D01*
X2903016Y2273960D01*
X2893974Y2263698D01*
X2886405Y2252319D01*
G37*
G36*
X2883154Y8561679D02*
G01*
X2931261Y8561679D01*
X2931261Y8609838D01*
X2924657Y8606586D01*
X2913278Y8598966D01*
X2903016Y8589975D01*
X2893974Y8579662D01*
X2886405Y8568283D01*
G37*
G36*
X3022701Y8561679D02*
G01*
X3070860Y8561679D01*
X3067608Y8568283D01*
X3059988Y8579662D01*
X3050997Y8589975D01*
X3040684Y8598966D01*
X3029305Y8606586D01*
X3022701Y8609838D01*
G37*
G36*
X2931261Y8422132D02*
G01*
X2931261Y8470239D01*
X2883154Y8470239D01*
X2886405Y8463686D01*
X2893974Y8452307D01*
X2903016Y8441994D01*
X2913278Y8433003D01*
X2924657Y8425383D01*
G37*
G36*
X4650943Y2356358D02*
G01*
X4818634Y2356358D01*
X4818634Y2473452D01*
X4808474Y2472029D01*
X4788154Y2467254D01*
X4768392Y2460650D01*
X4749292Y2452217D01*
X4731054Y2442057D01*
X4713833Y2430272D01*
X4697780Y2416911D01*
X4683048Y2402179D01*
X4669739Y2386126D01*
X4657953Y2368905D01*
G37*
G36*
X5181346Y2356358D02*
G01*
X5349036Y2356358D01*
X5342026Y2368905D01*
X5330240Y2386126D01*
X5316931Y2402179D01*
X5302199Y2416911D01*
X5286146Y2430272D01*
X5268925Y2442057D01*
X5250688Y2452217D01*
X5231587Y2460650D01*
X5211826Y2467254D01*
X5191506Y2472029D01*
X5181346Y2473452D01*
G37*
G36*
X3022701Y2360117D02*
G01*
X3029305Y2363368D01*
X3040684Y2370988D01*
X3050997Y2380030D01*
X3059988Y2390292D01*
X3067608Y2401671D01*
X3070860Y2408275D01*
X3022701Y2408275D01*
G37*
G36*
X2931261Y2360117D02*
G01*
X2931261Y2408275D01*
X2883154Y2408275D01*
X2886405Y2401671D01*
X2893974Y2390292D01*
X2903016Y2380030D01*
X2913278Y2370988D01*
X2924657Y2363368D01*
G37*
G36*
X3022701Y8422132D02*
G01*
X3029305Y8425383D01*
X3040684Y8433003D01*
X3050997Y8441994D01*
X3059988Y8452307D01*
X3067608Y8463686D01*
X3070860Y8470239D01*
X3022701Y8470239D01*
G37*
G36*
X5181346Y8356346D02*
G01*
X5349036Y8356346D01*
X5342026Y8368893D01*
X5330240Y8386114D01*
X5316931Y8402167D01*
X5302199Y8416899D01*
X5286146Y8430260D01*
X5268925Y8442045D01*
X5250688Y8452205D01*
X5231587Y8460638D01*
X5211826Y8467242D01*
X5191506Y8472017D01*
X5181346Y8473440D01*
G37*
G36*
X3022701Y2499715D02*
G01*
X3070860Y2499715D01*
X3067608Y2506319D01*
X3059988Y2517698D01*
X3050997Y2527960D01*
X3040684Y2537002D01*
X3029305Y2544622D01*
X3022701Y2547874D01*
G37*
G36*
X2883154Y2499715D02*
G01*
X2931261Y2499715D01*
X2931261Y2547874D01*
X2924657Y2544622D01*
X2913278Y2537002D01*
X2903016Y2527960D01*
X2893974Y2517698D01*
X2886405Y2506319D01*
G37*
G36*
X4650943Y8356346D02*
G01*
X4818634Y8356346D01*
X4818634Y8473440D01*
X4808474Y8472017D01*
X4788154Y8467242D01*
X4768392Y8460638D01*
X4749292Y8452205D01*
X4731054Y8442045D01*
X4713833Y8430260D01*
X4697780Y8416899D01*
X4683048Y8402167D01*
X4669739Y8386114D01*
X4657953Y8368893D01*
G37*
G36*
X3022701Y2614117D02*
G01*
X3029305Y2617368D01*
X3040684Y2624988D01*
X3050997Y2634030D01*
X3059988Y2644292D01*
X3067608Y2655671D01*
X3070860Y2662275D01*
X3022701Y2662275D01*
G37*
G36*
X2931261Y2614117D02*
G01*
X2931261Y2662275D01*
X2883154Y2662275D01*
X2886405Y2655671D01*
X2893974Y2644292D01*
X2903016Y2634030D01*
X2913278Y2624988D01*
X2924657Y2617368D01*
G37*
G36*
X3022701Y2753715D02*
G01*
X3070860Y2753715D01*
X3067608Y2760319D01*
X3059988Y2771698D01*
X3050997Y2781960D01*
X3040684Y2791002D01*
X3029305Y2798622D01*
X3022701Y2801874D01*
G37*
G36*
X2883154Y2753715D02*
G01*
X2931261Y2753715D01*
X2931261Y2801874D01*
X2924657Y2798622D01*
X2913278Y2791002D01*
X2903016Y2781960D01*
X2893974Y2771698D01*
X2886405Y2760319D01*
G37*
G36*
X568807Y8338210D02*
G01*
X666800Y8338210D01*
X666800Y8435898D01*
X657098Y8430717D01*
X639165Y8418880D01*
X622350Y8405469D01*
X606806Y8390585D01*
X592632Y8374380D01*
X579983Y8357006D01*
G37*
G36*
X3022701Y2868117D02*
G01*
X3029305Y2871368D01*
X3040684Y2878988D01*
X3050997Y2888030D01*
X3059988Y2898292D01*
X3067608Y2909671D01*
X3070860Y2916275D01*
X3022701Y2916275D01*
G37*
G36*
X2931261Y2868117D02*
G01*
X2931261Y2916275D01*
X2883154Y2916275D01*
X2886405Y2909671D01*
X2893974Y2898292D01*
X2903016Y2888030D01*
X2913278Y2878988D01*
X2924657Y2871368D01*
G37*
G36*
X1176375Y2929534D02*
G01*
X1183081Y2929991D01*
X1195882Y2932633D01*
X1208176Y2937052D01*
X1219809Y2943047D01*
X1230528Y2950616D01*
X1240078Y2959557D01*
X1248359Y2969666D01*
X1255115Y2980893D01*
X1256334Y2983636D01*
X1176375Y2983636D01*
G37*
G36*
X1023670Y2929534D02*
G01*
X1023670Y2983636D01*
X943660Y2983636D01*
X944880Y2980893D01*
X951636Y2969666D01*
X959916Y2959557D01*
X969467Y2950616D01*
X980186Y2943047D01*
X991819Y2937052D01*
X1004112Y2932633D01*
X1016914Y2929991D01*
G37*
G36*
X488340Y2939542D02*
G01*
X494233Y2939999D01*
X506222Y2942590D01*
X517702Y2946857D01*
X528421Y2952750D01*
X538226Y2960065D01*
X546912Y2968752D01*
X554228Y2978556D01*
X559765Y2988614D01*
X488340Y2988614D01*
G37*
G36*
X355650Y2939542D02*
G01*
X355650Y2988614D01*
X284226Y2988614D01*
X289763Y2978556D01*
X297078Y2968752D01*
X305765Y2960065D01*
X315569Y2952750D01*
X326288Y2946857D01*
X337769Y2942590D01*
X349758Y2939999D01*
G37*
G36*
X3022701Y3007715D02*
G01*
X3070860Y3007715D01*
X3067608Y3014319D01*
X3059988Y3025698D01*
X3050997Y3035960D01*
X3040684Y3045002D01*
X3029305Y3052622D01*
X3022701Y3055874D01*
G37*
G36*
X2883154Y3007715D02*
G01*
X2931261Y3007715D01*
X2931261Y3055874D01*
X2924657Y3052622D01*
X2913278Y3045002D01*
X2903016Y3035960D01*
X2893974Y3025698D01*
X2886405Y3014319D01*
G37*
G36*
X488340Y3061309D02*
G01*
X559765Y3061309D01*
X554228Y3071418D01*
X546912Y3081223D01*
X538226Y3089910D01*
X528421Y3097225D01*
X517702Y3103118D01*
X506222Y3107385D01*
X494233Y3109976D01*
X488340Y3110433D01*
G37*
G36*
X284226Y3061309D02*
G01*
X355650Y3061309D01*
X355650Y3110433D01*
X349758Y3109976D01*
X337769Y3107385D01*
X326288Y3103118D01*
X315569Y3097225D01*
X305765Y3089910D01*
X297078Y3081223D01*
X289763Y3071418D01*
G37*
G36*
X1176375Y3066338D02*
G01*
X1256334Y3066338D01*
X1255115Y3069082D01*
X1248359Y3080308D01*
X1240078Y3090418D01*
X1230528Y3099358D01*
X1219809Y3106928D01*
X1208176Y3112922D01*
X1195882Y3117342D01*
X1183081Y3119983D01*
X1176375Y3120440D01*
G37*
G36*
X943660Y3066338D02*
G01*
X1023670Y3066338D01*
X1023670Y3120440D01*
X1016914Y3119983D01*
X1004112Y3117342D01*
X991819Y3112922D01*
X980186Y3106928D01*
X969467Y3099358D01*
X959916Y3090418D01*
X951636Y3080308D01*
X944880Y3069082D01*
G37*
G36*
X893216Y8338210D02*
G01*
X991209Y8338210D01*
X980033Y8357006D01*
X967384Y8374380D01*
X953211Y8390585D01*
X937666Y8405469D01*
X920851Y8418880D01*
X902919Y8430717D01*
X893216Y8435898D01*
G37*
G36*
X3022701Y3122117D02*
G01*
X3029305Y3125368D01*
X3040684Y3132988D01*
X3050997Y3142030D01*
X3059988Y3152292D01*
X3067608Y3163671D01*
X3070860Y3170275D01*
X3022701Y3170275D01*
G37*
G36*
X2931261Y3122117D02*
G01*
X2931261Y3170275D01*
X2883154Y3170275D01*
X2886405Y3163671D01*
X2893974Y3152292D01*
X2903016Y3142030D01*
X2913278Y3132988D01*
X2924657Y3125368D01*
G37*
G36*
X3022701Y3261715D02*
G01*
X3070860Y3261715D01*
X3067608Y3268319D01*
X3059988Y3279698D01*
X3050997Y3289960D01*
X3040684Y3299002D01*
X3029305Y3306622D01*
X3022701Y3309874D01*
G37*
G36*
X2883154Y3261715D02*
G01*
X2931261Y3261715D01*
X2931261Y3309874D01*
X2924657Y3306622D01*
X2913278Y3299002D01*
X2903016Y3289960D01*
X2893974Y3279698D01*
X2886405Y3268319D01*
G37*
G36*
X2883154Y8307679D02*
G01*
X2931261Y8307679D01*
X2931261Y8355838D01*
X2924657Y8352586D01*
X2913278Y8344966D01*
X2903016Y8335975D01*
X2893974Y8325662D01*
X2886405Y8314283D01*
G37*
G36*
X3022701Y3376117D02*
G01*
X3029305Y3379368D01*
X3040684Y3386988D01*
X3050997Y3396030D01*
X3059988Y3406292D01*
X3067608Y3417671D01*
X3070860Y3424275D01*
X3022701Y3424275D01*
G37*
G36*
X3022701Y317347D02*
G01*
X3055162Y317347D01*
X3061462Y318058D01*
X3066948Y319989D01*
X3071825Y323037D01*
X3075940Y327152D01*
X3079038Y332028D01*
X3080918Y337515D01*
X3081629Y343814D01*
X3081629Y376275D01*
X3022701Y376275D01*
G37*
G36*
X2883154Y3515715D02*
G01*
X2931261Y3515715D01*
X2931261Y3563874D01*
X2924657Y3560622D01*
X2913278Y3553002D01*
X2903016Y3543960D01*
X2893974Y3533698D01*
X2886405Y3522319D01*
G37*
G36*
X3022701Y3515715D02*
G01*
X3070860Y3515715D01*
X3067608Y3522319D01*
X3059988Y3533698D01*
X3050997Y3543960D01*
X3040684Y3553002D01*
X3029305Y3560622D01*
X3022701Y3563874D01*
G37*
G36*
X3022701Y8307679D02*
G01*
X3070860Y8307679D01*
X3067608Y8314283D01*
X3059988Y8325662D01*
X3050997Y8335975D01*
X3040684Y8344966D01*
X3029305Y8352586D01*
X3022701Y8355838D01*
G37*
G36*
X3022701Y3630117D02*
G01*
X3029305Y3633368D01*
X3040684Y3640988D01*
X3050997Y3650030D01*
X3059988Y3660292D01*
X3067608Y3671671D01*
X3070860Y3678275D01*
X3022701Y3678275D01*
G37*
G36*
X2931261Y3630117D02*
G01*
X2931261Y3678275D01*
X2883154Y3678275D01*
X2886405Y3671671D01*
X2893974Y3660292D01*
X2903016Y3650030D01*
X2913278Y3640988D01*
X2924657Y3633368D01*
G37*
G36*
X3022701Y3769715D02*
G01*
X3070860Y3769715D01*
X3067608Y3776319D01*
X3059988Y3787698D01*
X3050997Y3797960D01*
X3040684Y3807002D01*
X3029305Y3814622D01*
X3022701Y3817874D01*
G37*
G36*
X2883154Y3769715D02*
G01*
X2931261Y3769715D01*
X2931261Y3817874D01*
X2924657Y3814622D01*
X2913278Y3807002D01*
X2903016Y3797960D01*
X2893974Y3787698D01*
X2886405Y3776319D01*
G37*
G36*
X3022701Y3884117D02*
G01*
X3029305Y3887368D01*
X3040684Y3894988D01*
X3050997Y3904030D01*
X3059988Y3914292D01*
X3067608Y3925671D01*
X3070860Y3932275D01*
X3022701Y3932275D01*
G37*
G36*
X2931261Y3884117D02*
G01*
X2931261Y3932275D01*
X2883154Y3932275D01*
X2886405Y3925671D01*
X2893974Y3914292D01*
X2903016Y3904030D01*
X2913278Y3894988D01*
X2924657Y3887368D01*
G37*
G36*
X3022701Y4023715D02*
G01*
X3070860Y4023715D01*
X3067608Y4030319D01*
X3059988Y4041698D01*
X3050997Y4051960D01*
X3040684Y4061002D01*
X3029305Y4068622D01*
X3022701Y4071874D01*
G37*
G36*
X2883154Y4023715D02*
G01*
X2931261Y4023715D01*
X2931261Y4071874D01*
X2924657Y4068622D01*
X2913278Y4061002D01*
X2903016Y4051960D01*
X2893974Y4041698D01*
X2886405Y4030319D01*
G37*
G36*
X5181346Y4526534D02*
G01*
X5191506Y4527956D01*
X5211826Y4532731D01*
X5231587Y4539335D01*
X5250688Y4547768D01*
X5268925Y4557928D01*
X5286146Y4569714D01*
X5302199Y4583074D01*
X5316931Y4597806D01*
X5330240Y4613859D01*
X5342026Y4631080D01*
X5349036Y4643628D01*
X5181346Y4643628D01*
G37*
G36*
X4818634Y4526534D02*
G01*
X4818634Y4643628D01*
X4650943Y4643628D01*
X4657953Y4631080D01*
X4669739Y4613859D01*
X4683048Y4597806D01*
X4697780Y4583074D01*
X4713833Y4569714D01*
X4731054Y4557928D01*
X4749292Y4547768D01*
X4768392Y4539335D01*
X4788154Y4532731D01*
X4808474Y4527956D01*
G37*
G36*
X6592468Y4761382D02*
G01*
X9099499Y4761382D01*
X9107525Y4762195D01*
X9114739Y4764379D01*
X9121394Y4767935D01*
X9127642Y4773066D01*
X9480804Y5126228D01*
X9485934Y5132476D01*
X9489490Y5139131D01*
X9491675Y5146344D01*
X9492488Y5154371D01*
X9492488Y6388963D01*
X9493199Y6392672D01*
X9495180Y6395821D01*
X9498177Y6398107D01*
X9506610Y6402273D01*
X9518091Y6409944D01*
X9528505Y6419037D01*
X9537598Y6429400D01*
X9545269Y6440881D01*
X9551365Y6453276D01*
X9555784Y6466332D01*
X9558477Y6479895D01*
X9559391Y6493662D01*
X9558985Y6499504D01*
X9559645Y6503771D01*
X9561982Y6507378D01*
X9827006Y6772452D01*
X9832136Y6778650D01*
X9835692Y6785356D01*
X9837877Y6792569D01*
X9838690Y6800596D01*
X9838690Y8399526D01*
X9837877Y8407552D01*
X9835692Y8414766D01*
X9832136Y8421471D01*
X9827006Y8427669D01*
X9377629Y8876842D01*
X9371431Y8881922D01*
X9364726Y8885478D01*
X9357512Y8887663D01*
X9349486Y8888476D01*
X6738162Y8888476D01*
X6733794Y8889441D01*
X6730288Y8892184D01*
X6728307Y8896146D01*
X6728206Y8900617D01*
X6730695Y8913317D01*
X6731609Y8926982D01*
X6730695Y8940647D01*
X6728053Y8954058D01*
X6723634Y8967012D01*
X6717588Y8979306D01*
X6709968Y8990685D01*
X6700977Y9000947D01*
X6690664Y9009989D01*
X6679285Y9017609D01*
X6667042Y9023654D01*
X6654088Y9028023D01*
X6640626Y9030716D01*
X6627012Y9031630D01*
X6613347Y9030716D01*
X6599885Y9028023D01*
X6586931Y9023654D01*
X6574688Y9017609D01*
X6563309Y9009989D01*
X6552996Y9000947D01*
X6544005Y8990685D01*
X6536385Y8979306D01*
X6532422Y8971280D01*
X6530187Y8968282D01*
X6526987Y8966301D01*
X6523278Y8965590D01*
X6476695Y8965590D01*
X6472986Y8966301D01*
X6469786Y8968282D01*
X6467551Y8971280D01*
X6463588Y8979306D01*
X6455968Y8990685D01*
X6446977Y9000947D01*
X6436664Y9009989D01*
X6425285Y9017609D01*
X6413042Y9023654D01*
X6400088Y9028023D01*
X6386626Y9030716D01*
X6373012Y9031630D01*
X6359347Y9030716D01*
X6345885Y9028023D01*
X6332931Y9023654D01*
X6320688Y9017609D01*
X6309309Y9009989D01*
X6298996Y9000947D01*
X6290005Y8990685D01*
X6282385Y8979306D01*
X6276340Y8967012D01*
X6271920Y8954058D01*
X6269278Y8940647D01*
X6268364Y8926982D01*
X6269278Y8913317D01*
X6271920Y8899906D01*
X6276340Y8886952D01*
X6282385Y8874658D01*
X6290005Y8863279D01*
X6298996Y8853017D01*
X6309309Y8843975D01*
X6320688Y8836355D01*
X6332931Y8830310D01*
X6345885Y8825941D01*
X6359347Y8823248D01*
X6373012Y8822334D01*
X6386626Y8823248D01*
X6400088Y8825941D01*
X6413042Y8830310D01*
X6425285Y8836355D01*
X6436664Y8843975D01*
X6446977Y8853017D01*
X6455968Y8863279D01*
X6463588Y8874658D01*
X6467551Y8882684D01*
X6469786Y8885682D01*
X6472986Y8887663D01*
X6476695Y8888374D01*
X6523278Y8888374D01*
X6526987Y8887663D01*
X6530187Y8885682D01*
X6532422Y8882684D01*
X6536385Y8874658D01*
X6544005Y8863279D01*
X6552996Y8853017D01*
X6563309Y8843975D01*
X6574688Y8836355D01*
X6586931Y8830310D01*
X6599885Y8825941D01*
X6613347Y8823248D01*
X6627012Y8822334D01*
X6640626Y8823248D01*
X6654088Y8825941D01*
X6662521Y8828786D01*
X6666230Y8829344D01*
X6669887Y8828481D01*
X6672986Y8826347D01*
X6676440Y8822944D01*
X6682638Y8817813D01*
X6689344Y8814257D01*
X6696557Y8812072D01*
X6704584Y8811260D01*
X9329826Y8811260D01*
X9333687Y8810498D01*
X9336989Y8808262D01*
X9758476Y8387029D01*
X9760712Y8383727D01*
X9761474Y8379815D01*
X9761474Y6820306D01*
X9760712Y6816394D01*
X9758476Y6813092D01*
X9526778Y6581394D01*
X9523933Y6579412D01*
X9520580Y6578447D01*
X9517126Y6578701D01*
X9513976Y6580124D01*
X9506610Y6585051D01*
X9494266Y6591147D01*
X9481210Y6595567D01*
X9478111Y6596176D01*
X9474454Y6597700D01*
X9471609Y6600494D01*
X9470136Y6604152D01*
X9470136Y6608114D01*
X9471609Y6611772D01*
X9474454Y6614617D01*
X9478111Y6616090D01*
X9481210Y6616750D01*
X9494266Y6621170D01*
X9506610Y6627266D01*
X9518091Y6634937D01*
X9528505Y6644030D01*
X9537598Y6654393D01*
X9545269Y6665874D01*
X9551365Y6678269D01*
X9555784Y6691325D01*
X9558477Y6704888D01*
X9559391Y6718655D01*
X9558477Y6732422D01*
X9555784Y6745935D01*
X9551365Y6759041D01*
X9545269Y6771386D01*
X9537598Y6782866D01*
X9528505Y6793280D01*
X9518091Y6802374D01*
X9506610Y6810044D01*
X9494266Y6816140D01*
X9481210Y6820560D01*
X9478111Y6821170D01*
X9474454Y6822694D01*
X9471609Y6825488D01*
X9470085Y6829145D01*
X9470085Y6833108D01*
X9471609Y6836816D01*
X9474454Y6839610D01*
X9478111Y6841134D01*
X9481210Y6841744D01*
X9494266Y6846163D01*
X9506610Y6852259D01*
X9518091Y6859930D01*
X9528505Y6869023D01*
X9537598Y6879437D01*
X9545269Y6890867D01*
X9551365Y6903262D01*
X9555784Y6916318D01*
X9558477Y6929881D01*
X9559391Y6943648D01*
X9558477Y6957415D01*
X9555784Y6970979D01*
X9551365Y6984034D01*
X9545269Y6996430D01*
X9537598Y7007859D01*
X9528505Y7018274D01*
X9518091Y7027367D01*
X9506610Y7035038D01*
X9494266Y7041134D01*
X9481210Y7045553D01*
X9478111Y7046163D01*
X9474454Y7047687D01*
X9471609Y7050481D01*
X9470085Y7054189D01*
X9470085Y7058152D01*
X9471609Y7061809D01*
X9474454Y7064603D01*
X9478111Y7066127D01*
X9481210Y7066737D01*
X9494266Y7071156D01*
X9506610Y7077252D01*
X9518091Y7084923D01*
X9528505Y7094016D01*
X9537598Y7104430D01*
X9545269Y7115911D01*
X9549434Y7124344D01*
X9551670Y7127341D01*
X9554870Y7129322D01*
X9558528Y7130034D01*
X9568180Y7130034D01*
X9576206Y7130846D01*
X9583420Y7133031D01*
X9590125Y7136587D01*
X9596323Y7141718D01*
X9726930Y7272324D01*
X9732060Y7278522D01*
X9735616Y7285228D01*
X9737801Y7292441D01*
X9738614Y7300468D01*
X9738614Y8299450D01*
X9737801Y8307476D01*
X9735616Y8314690D01*
X9732060Y8321395D01*
X9726930Y8327593D01*
X9277553Y8776970D01*
X9271355Y8782100D01*
X9264650Y8785656D01*
X9257436Y8787841D01*
X9249410Y8788654D01*
X6704584Y8788654D01*
X6696608Y8787892D01*
X6689394Y8785707D01*
X6682689Y8782151D01*
X6676491Y8777020D01*
X6672986Y8773566D01*
X6669887Y8771483D01*
X6666280Y8770620D01*
X6662572Y8771178D01*
X6654088Y8774023D01*
X6640626Y8776716D01*
X6627012Y8777630D01*
X6613347Y8776716D01*
X6599885Y8774023D01*
X6586931Y8769654D01*
X6574688Y8763609D01*
X6563309Y8755989D01*
X6552996Y8746947D01*
X6544005Y8736685D01*
X6536385Y8725306D01*
X6532422Y8717280D01*
X6530187Y8714282D01*
X6526987Y8712301D01*
X6523278Y8711590D01*
X6476695Y8711590D01*
X6472986Y8712301D01*
X6469786Y8714282D01*
X6467551Y8717280D01*
X6463588Y8725306D01*
X6455968Y8736685D01*
X6446977Y8746947D01*
X6436664Y8755989D01*
X6425285Y8763609D01*
X6413042Y8769654D01*
X6400088Y8774023D01*
X6386626Y8776716D01*
X6373012Y8777630D01*
X6359347Y8776716D01*
X6345885Y8774023D01*
X6332931Y8769654D01*
X6320688Y8763609D01*
X6309309Y8755989D01*
X6298996Y8746947D01*
X6290005Y8736685D01*
X6282385Y8725306D01*
X6276340Y8713012D01*
X6271920Y8700058D01*
X6269278Y8686647D01*
X6268364Y8672982D01*
X6269278Y8659317D01*
X6271920Y8645906D01*
X6274816Y8637422D01*
X6275324Y8633714D01*
X6274511Y8630056D01*
X6272377Y8626957D01*
X5973064Y8327644D01*
X5967933Y8321395D01*
X5964377Y8314740D01*
X5962192Y8307527D01*
X5961380Y8299500D01*
X5961380Y5900470D01*
X5962192Y5892444D01*
X5964377Y5885230D01*
X5967933Y5878576D01*
X5973064Y5872327D01*
X6272377Y5573014D01*
X6274511Y5569915D01*
X6275324Y5566257D01*
X6274816Y5562549D01*
X6271920Y5554065D01*
X6269278Y5540654D01*
X6268364Y5526989D01*
X6269278Y5513324D01*
X6271920Y5499912D01*
X6276340Y5486958D01*
X6282385Y5474665D01*
X6290005Y5463286D01*
X6298996Y5453024D01*
X6309309Y5443982D01*
X6320688Y5436362D01*
X6332931Y5430316D01*
X6345885Y5425948D01*
X6359347Y5423255D01*
X6373012Y5422341D01*
X6386626Y5423255D01*
X6400088Y5425948D01*
X6413042Y5430316D01*
X6425285Y5436362D01*
X6436664Y5443982D01*
X6444538Y5450840D01*
X6447840Y5452821D01*
X6451650Y5453380D01*
X6455410Y5452465D01*
X6458559Y5450230D01*
X6460642Y5447030D01*
X6461404Y5443220D01*
X6461404Y5420207D01*
X6460591Y5416296D01*
X6458407Y5412994D01*
X6418986Y5373624D01*
X6415887Y5371490D01*
X6412280Y5370626D01*
X6408572Y5371185D01*
X6400088Y5374030D01*
X6386626Y5376722D01*
X6373012Y5377637D01*
X6359347Y5376722D01*
X6345885Y5374030D01*
X6332931Y5369661D01*
X6320688Y5363616D01*
X6309309Y5355996D01*
X6298996Y5346954D01*
X6290005Y5336692D01*
X6282385Y5325313D01*
X6276340Y5313019D01*
X6271920Y5300065D01*
X6269278Y5286654D01*
X6268364Y5272989D01*
X6269278Y5259324D01*
X6271920Y5245912D01*
X6276340Y5232958D01*
X6282385Y5220665D01*
X6290005Y5209286D01*
X6298996Y5199024D01*
X6309309Y5189982D01*
X6320688Y5182362D01*
X6332931Y5176316D01*
X6345885Y5171948D01*
X6359347Y5169255D01*
X6373012Y5168341D01*
X6386626Y5169255D01*
X6400088Y5171948D01*
X6413042Y5176316D01*
X6425285Y5182362D01*
X6436664Y5189982D01*
X6446977Y5199024D01*
X6455968Y5209286D01*
X6463588Y5220665D01*
X6469634Y5232958D01*
X6474053Y5245912D01*
X6476695Y5259324D01*
X6477609Y5272989D01*
X6476695Y5286654D01*
X6474053Y5300065D01*
X6471158Y5308549D01*
X6470650Y5312257D01*
X6471513Y5315915D01*
X6473596Y5319014D01*
X6526936Y5372354D01*
X6532067Y5378551D01*
X6535623Y5385257D01*
X6537807Y5392470D01*
X6538620Y5400497D01*
X6538620Y5443220D01*
X6539331Y5447030D01*
X6541414Y5450230D01*
X6544564Y5452465D01*
X6548323Y5453380D01*
X6552133Y5452821D01*
X6555435Y5450840D01*
X6563309Y5443982D01*
X6574688Y5436362D01*
X6581292Y5433110D01*
X6581292Y5481269D01*
X6548780Y5481269D01*
X6544868Y5482031D01*
X6541566Y5484266D01*
X6539382Y5487517D01*
X6538620Y5491429D01*
X6538620Y5562549D01*
X6539382Y5566460D01*
X6541566Y5569712D01*
X6544868Y5571947D01*
X6548780Y5572709D01*
X6581292Y5572709D01*
X6581292Y5620867D01*
X6574688Y5617616D01*
X6563309Y5609996D01*
X6555435Y5603138D01*
X6552133Y5601157D01*
X6548323Y5600598D01*
X6544564Y5601512D01*
X6541414Y5603748D01*
X6539331Y5606948D01*
X6538620Y5610758D01*
X6538620Y5697220D01*
X6539331Y5701030D01*
X6541414Y5704230D01*
X6544564Y5706465D01*
X6548323Y5707380D01*
X6552133Y5706821D01*
X6555435Y5704840D01*
X6563309Y5697982D01*
X6574688Y5690362D01*
X6581292Y5687110D01*
X6581292Y5735269D01*
X6548780Y5735269D01*
X6544868Y5736031D01*
X6541566Y5738266D01*
X6539382Y5741517D01*
X6538620Y5745429D01*
X6538620Y5816549D01*
X6539382Y5820460D01*
X6541566Y5823712D01*
X6544868Y5825947D01*
X6548780Y5826709D01*
X6581292Y5826709D01*
X6581292Y5874867D01*
X6574688Y5871616D01*
X6563309Y5863996D01*
X6555435Y5857138D01*
X6552133Y5855157D01*
X6548323Y5854598D01*
X6544564Y5855512D01*
X6541414Y5857748D01*
X6539331Y5860948D01*
X6538620Y5864758D01*
X6538620Y5879795D01*
X6539382Y5883656D01*
X6541566Y5886958D01*
X6612991Y5958382D01*
X6616293Y5960618D01*
X6620205Y5961380D01*
X7999475Y5961380D01*
X8007502Y5962192D01*
X8014716Y5964377D01*
X8021421Y5967933D01*
X8027619Y5973064D01*
X8731656Y6677050D01*
X8734958Y6679285D01*
X8738870Y6680047D01*
X8841181Y6680047D01*
X8844889Y6679336D01*
X8848039Y6677355D01*
X8850325Y6674358D01*
X8854490Y6665874D01*
X8862161Y6654393D01*
X8871254Y6644030D01*
X8881668Y6634937D01*
X8893098Y6627266D01*
X8905494Y6621170D01*
X8918549Y6616750D01*
X8932113Y6614058D01*
X8945880Y6613144D01*
X8959646Y6614058D01*
X8973210Y6616750D01*
X8986266Y6621170D01*
X8998610Y6627266D01*
X9010091Y6634937D01*
X9020505Y6644030D01*
X9029598Y6654393D01*
X9037269Y6665874D01*
X9043365Y6678269D01*
X9047784Y6691325D01*
X9050477Y6704888D01*
X9051391Y6718655D01*
X9050477Y6732422D01*
X9047784Y6745935D01*
X9043365Y6759041D01*
X9037269Y6771386D01*
X9029598Y6782866D01*
X9020505Y6793280D01*
X9010091Y6802374D01*
X8998610Y6810044D01*
X8986266Y6816140D01*
X8973210Y6820560D01*
X8970111Y6821170D01*
X8966454Y6822694D01*
X8963609Y6825488D01*
X8962085Y6829145D01*
X8962085Y6833108D01*
X8963609Y6836816D01*
X8966454Y6839610D01*
X8970111Y6841134D01*
X8973210Y6841744D01*
X8986266Y6846163D01*
X8998610Y6852259D01*
X9010091Y6859930D01*
X9020505Y6869023D01*
X9029598Y6879437D01*
X9037269Y6890867D01*
X9043365Y6903262D01*
X9047784Y6916318D01*
X9050477Y6929881D01*
X9051391Y6943648D01*
X9050477Y6957415D01*
X9047784Y6970979D01*
X9043365Y6984034D01*
X9037269Y6996430D01*
X9033713Y7001713D01*
X9032138Y7005777D01*
X9032392Y7010095D01*
X9034424Y7013956D01*
X9037929Y7016597D01*
X9042146Y7017512D01*
X9095232Y7017512D01*
X9098889Y7016800D01*
X9102090Y7014819D01*
X9104325Y7011822D01*
X9108490Y7003389D01*
X9116161Y6991908D01*
X9125254Y6981545D01*
X9135668Y6972452D01*
X9147098Y6964781D01*
X9159494Y6958685D01*
X9172549Y6954215D01*
X9175648Y6953605D01*
X9179306Y6952081D01*
X9182100Y6949287D01*
X9183624Y6945630D01*
X9183624Y6941667D01*
X9182100Y6938009D01*
X9179306Y6935216D01*
X9175648Y6933692D01*
X9172549Y6933082D01*
X9159494Y6928612D01*
X9147098Y6922516D01*
X9135668Y6914845D01*
X9125254Y6905752D01*
X9116161Y6895388D01*
X9108490Y6883908D01*
X9102394Y6871512D01*
X9097975Y6858457D01*
X9095282Y6844944D01*
X9094368Y6831126D01*
X9095282Y6817359D01*
X9097975Y6803847D01*
X9102394Y6790791D01*
X9108490Y6778396D01*
X9116161Y6766915D01*
X9125254Y6756552D01*
X9135668Y6747459D01*
X9147098Y6739788D01*
X9159494Y6733641D01*
X9172549Y6729222D01*
X9186113Y6726529D01*
X9199880Y6725615D01*
X9213646Y6726529D01*
X9227210Y6729222D01*
X9240266Y6733641D01*
X9252610Y6739788D01*
X9264091Y6747459D01*
X9274505Y6756552D01*
X9283598Y6766915D01*
X9291269Y6778396D01*
X9297365Y6790791D01*
X9301784Y6803847D01*
X9304477Y6817359D01*
X9305391Y6831126D01*
X9304477Y6844944D01*
X9301784Y6858457D01*
X9298787Y6867347D01*
X9298228Y6871055D01*
X9299092Y6874713D01*
X9301226Y6877812D01*
X9337294Y6913880D01*
X9340748Y6916166D01*
X9344761Y6916877D01*
X9348724Y6915962D01*
X9352026Y6913524D01*
X9354108Y6909968D01*
X9356394Y6903262D01*
X9362490Y6890867D01*
X9370161Y6879437D01*
X9379254Y6869023D01*
X9389668Y6859930D01*
X9401098Y6852259D01*
X9413494Y6846163D01*
X9426549Y6841744D01*
X9429648Y6841134D01*
X9433306Y6839610D01*
X9436150Y6836816D01*
X9437624Y6833108D01*
X9437624Y6829145D01*
X9436150Y6825488D01*
X9433306Y6822694D01*
X9429648Y6821170D01*
X9426549Y6820560D01*
X9413494Y6816140D01*
X9401098Y6810044D01*
X9389668Y6802374D01*
X9379254Y6793280D01*
X9370161Y6782866D01*
X9362490Y6771386D01*
X9356394Y6759041D01*
X9351975Y6745935D01*
X9349282Y6732422D01*
X9348368Y6718655D01*
X9349282Y6704888D01*
X9351975Y6691325D01*
X9356394Y6678269D01*
X9362490Y6665874D01*
X9370161Y6654393D01*
X9379254Y6644030D01*
X9389668Y6634937D01*
X9401098Y6627266D01*
X9413494Y6621170D01*
X9426549Y6616750D01*
X9429648Y6616090D01*
X9433306Y6614617D01*
X9436100Y6611772D01*
X9437624Y6608114D01*
X9437624Y6604152D01*
X9436100Y6600494D01*
X9433306Y6597700D01*
X9429648Y6596176D01*
X9426549Y6595567D01*
X9413494Y6591147D01*
X9401098Y6585051D01*
X9389668Y6577380D01*
X9379254Y6568236D01*
X9370161Y6557873D01*
X9362490Y6546392D01*
X9356394Y6534048D01*
X9351975Y6520942D01*
X9349282Y6507429D01*
X9348368Y6493662D01*
X9349282Y6479895D01*
X9351975Y6466332D01*
X9356394Y6453276D01*
X9362490Y6440881D01*
X9370161Y6429400D01*
X9379254Y6419037D01*
X9389668Y6409944D01*
X9401098Y6402273D01*
X9409582Y6398107D01*
X9412579Y6395821D01*
X9414560Y6392672D01*
X9415272Y6388963D01*
X9415272Y5174081D01*
X9414510Y5170220D01*
X9412274Y5166918D01*
X9086951Y4841595D01*
X9083649Y4839360D01*
X9079788Y4838598D01*
X6612178Y4838598D01*
X6608318Y4839360D01*
X6605016Y4841595D01*
X6473596Y4972964D01*
X6471513Y4976063D01*
X6470650Y4979720D01*
X6471158Y4983429D01*
X6474053Y4991912D01*
X6476695Y5005324D01*
X6477609Y5018989D01*
X6476695Y5032654D01*
X6474053Y5046065D01*
X6469634Y5059019D01*
X6463588Y5071313D01*
X6455968Y5082692D01*
X6446977Y5092954D01*
X6436664Y5101996D01*
X6425285Y5109616D01*
X6413042Y5115661D01*
X6400088Y5120030D01*
X6386626Y5122722D01*
X6373012Y5123637D01*
X6359347Y5122722D01*
X6345885Y5120030D01*
X6332931Y5115661D01*
X6320688Y5109616D01*
X6309309Y5101996D01*
X6298996Y5092954D01*
X6290005Y5082692D01*
X6282385Y5071313D01*
X6276340Y5059019D01*
X6271920Y5046065D01*
X6269278Y5032654D01*
X6268364Y5018989D01*
X6269278Y5005324D01*
X6271920Y4991912D01*
X6276340Y4978958D01*
X6282385Y4966665D01*
X6290005Y4955286D01*
X6298996Y4945024D01*
X6309309Y4935982D01*
X6320688Y4928362D01*
X6332931Y4922316D01*
X6345885Y4917948D01*
X6359347Y4915255D01*
X6373012Y4914341D01*
X6386626Y4915255D01*
X6400088Y4917948D01*
X6408572Y4920792D01*
X6412280Y4921351D01*
X6415887Y4920488D01*
X6418986Y4918354D01*
X6564325Y4773066D01*
X6570573Y4767935D01*
X6577228Y4764379D01*
X6584442Y4762195D01*
G37*
G36*
X262331Y8303310D02*
G01*
X334518Y8303310D01*
X331114Y8309914D01*
X321462Y8324850D01*
X310235Y8338667D01*
X297688Y8351215D01*
X283870Y8362442D01*
X268935Y8372094D01*
X262331Y8375497D01*
G37*
G36*
X4650943Y4856327D02*
G01*
X4818634Y4856327D01*
X4818634Y4973421D01*
X4808474Y4972050D01*
X4788154Y4967274D01*
X4768392Y4960620D01*
X4749292Y4952187D01*
X4731054Y4942027D01*
X4713833Y4930241D01*
X4697780Y4916932D01*
X4683048Y4902200D01*
X4669739Y4886147D01*
X4657953Y4868926D01*
G37*
G36*
X5181346Y4856327D02*
G01*
X5349036Y4856327D01*
X5342026Y4868926D01*
X5330240Y4886147D01*
X5316931Y4902200D01*
X5302199Y4916932D01*
X5286146Y4930241D01*
X5268925Y4942027D01*
X5250688Y4952187D01*
X5231587Y4960620D01*
X5211826Y4967274D01*
X5191506Y4972050D01*
X5181346Y4973421D01*
G37*
G36*
X2931261Y8168131D02*
G01*
X2931261Y8216239D01*
X2883154Y8216239D01*
X2886405Y8209686D01*
X2893974Y8198307D01*
X2903016Y8187994D01*
X2913278Y8179003D01*
X2924657Y8171383D01*
G37*
G36*
X6672732Y4925110D02*
G01*
X6679285Y4928362D01*
X6690664Y4935982D01*
X6700977Y4945024D01*
X6709968Y4955286D01*
X6717588Y4966665D01*
X6720840Y4973269D01*
X6672732Y4973269D01*
G37*
G36*
X6581292Y4925110D02*
G01*
X6581292Y4973269D01*
X6533134Y4973269D01*
X6536385Y4966665D01*
X6544005Y4955286D01*
X6552996Y4945024D01*
X6563309Y4935982D01*
X6574688Y4928362D01*
G37*
G36*
X5181346Y5026558D02*
G01*
X5191506Y5027930D01*
X5211826Y5032705D01*
X5231587Y5039360D01*
X5250688Y5047792D01*
X5268925Y5057952D01*
X5286146Y5069738D01*
X5302199Y5083048D01*
X5316931Y5097780D01*
X5330240Y5113832D01*
X5342026Y5131054D01*
X5349036Y5143652D01*
X5181346Y5143652D01*
G37*
G36*
X4818634Y5026558D02*
G01*
X4818634Y5143652D01*
X4650943Y5143652D01*
X4657953Y5131054D01*
X4669739Y5113832D01*
X4683048Y5097780D01*
X4697780Y5083048D01*
X4713833Y5069738D01*
X4731054Y5057952D01*
X4749292Y5047792D01*
X4768392Y5039360D01*
X4788154Y5032705D01*
X4808474Y5027930D01*
G37*
G36*
X6533134Y5064709D02*
G01*
X6581292Y5064709D01*
X6581292Y5112867D01*
X6574688Y5109616D01*
X6563309Y5101996D01*
X6552996Y5092954D01*
X6544005Y5082692D01*
X6536385Y5071313D01*
G37*
G36*
X6672732Y5064709D02*
G01*
X6720840Y5064709D01*
X6717588Y5071313D01*
X6709968Y5082692D01*
X6700977Y5092954D01*
X6690664Y5101996D01*
X6679285Y5109616D01*
X6672732Y5112867D01*
G37*
G36*
X3022701Y8168131D02*
G01*
X3029305Y8171383D01*
X3040684Y8179003D01*
X3050997Y8187994D01*
X3059988Y8198307D01*
X3067608Y8209686D01*
X3070860Y8216239D01*
X3022701Y8216239D01*
G37*
G36*
X6672732Y5179110D02*
G01*
X6679285Y5182362D01*
X6690664Y5189982D01*
X6700977Y5199024D01*
X6709968Y5209286D01*
X6717588Y5220665D01*
X6720840Y5227269D01*
X6672732Y5227269D01*
G37*
G36*
X6581292Y5179110D02*
G01*
X6581292Y5227269D01*
X6533134Y5227269D01*
X6536385Y5220665D01*
X6544005Y5209286D01*
X6552996Y5199024D01*
X6563309Y5189982D01*
X6574688Y5182362D01*
G37*
G36*
X6672732Y5318709D02*
G01*
X6720840Y5318709D01*
X6717588Y5325313D01*
X6709968Y5336692D01*
X6700977Y5346954D01*
X6690664Y5355996D01*
X6679285Y5363616D01*
X6672732Y5366867D01*
G37*
G36*
X6533134Y5318709D02*
G01*
X6581292Y5318709D01*
X6581292Y5366867D01*
X6574688Y5363616D01*
X6563309Y5355996D01*
X6552996Y5346954D01*
X6544005Y5336692D01*
X6536385Y5325313D01*
G37*
G36*
X4650943Y5356352D02*
G01*
X4818634Y5356352D01*
X4818634Y5473446D01*
X4808474Y5472023D01*
X4788154Y5467248D01*
X4768392Y5460644D01*
X4749292Y5452211D01*
X4731054Y5442051D01*
X4713833Y5430266D01*
X4697780Y5416905D01*
X4683048Y5402173D01*
X4669739Y5386120D01*
X4657953Y5368899D01*
G37*
G36*
X5181346Y5356352D02*
G01*
X5349036Y5356352D01*
X5342026Y5368899D01*
X5330240Y5386120D01*
X5316931Y5402173D01*
X5302199Y5416905D01*
X5286146Y5430266D01*
X5268925Y5442051D01*
X5250688Y5452211D01*
X5231587Y5460644D01*
X5211826Y5467248D01*
X5191506Y5472023D01*
X5181346Y5473446D01*
G37*
G36*
X262331Y8074456D02*
G01*
X268935Y8077860D01*
X283870Y8087512D01*
X297688Y8098739D01*
X310235Y8111286D01*
X321462Y8125104D01*
X331114Y8140039D01*
X334518Y8146643D01*
X262331Y8146643D01*
G37*
G36*
X6672732Y5433110D02*
G01*
X6679285Y5436362D01*
X6690664Y5443982D01*
X6700977Y5453024D01*
X6709968Y5463286D01*
X6717588Y5474665D01*
X6720840Y5481269D01*
X6672732Y5481269D01*
G37*
G36*
X9103563Y5568238D02*
G01*
X9103563Y5653582D01*
X9018168Y5653582D01*
X9025026Y5641289D01*
X9036304Y5624931D01*
X9049156Y5609742D01*
X9063380Y5595823D01*
X9078874Y5583377D01*
X9095536Y5572455D01*
G37*
G36*
X9296196Y5568238D02*
G01*
X9304223Y5572455D01*
X9320885Y5583377D01*
X9336379Y5595823D01*
X9350603Y5609742D01*
X9363456Y5624931D01*
X9374733Y5641289D01*
X9381591Y5653582D01*
X9296196Y5653582D01*
G37*
G36*
X6672732Y5572709D02*
G01*
X6720840Y5572709D01*
X6717588Y5579313D01*
X6709968Y5590692D01*
X6700977Y5600954D01*
X6690664Y5609996D01*
X6679285Y5617616D01*
X6672732Y5620867D01*
G37*
G36*
X3022701Y8053679D02*
G01*
X3070860Y8053679D01*
X3067608Y8060283D01*
X3059988Y8071662D01*
X3050997Y8081975D01*
X3040684Y8090966D01*
X3029305Y8098586D01*
X3022701Y8101838D01*
G37*
G36*
X2898800Y5617311D02*
G01*
X2931261Y5617311D01*
X2931261Y5676239D01*
X2872333Y5676239D01*
X2872333Y5643829D01*
X2873044Y5637479D01*
X2874975Y5632043D01*
X2878074Y5627116D01*
X2882138Y5623052D01*
X2887065Y5619953D01*
X2892501Y5618073D01*
G37*
G36*
X3022701Y5617311D02*
G01*
X3055162Y5617311D01*
X3061462Y5618073D01*
X3066948Y5619953D01*
X3071825Y5623052D01*
X3075940Y5627116D01*
X3079038Y5632043D01*
X3080918Y5637479D01*
X3081629Y5643829D01*
X3081629Y5676239D01*
X3022701Y5676239D01*
G37*
G36*
X2722981Y5617362D02*
G01*
X2736646Y5618276D01*
X2750058Y5620918D01*
X2763012Y5625338D01*
X2775305Y5631383D01*
X2786684Y5639003D01*
X2796997Y5647994D01*
X2805988Y5658307D01*
X2813608Y5669686D01*
X2819654Y5681929D01*
X2824073Y5694883D01*
X2826715Y5708345D01*
X2827629Y5721959D01*
X2826715Y5735624D01*
X2824073Y5749086D01*
X2819654Y5762040D01*
X2813608Y5774283D01*
X2805988Y5785662D01*
X2796997Y5795975D01*
X2786684Y5804966D01*
X2775305Y5812586D01*
X2763012Y5818632D01*
X2750058Y5823051D01*
X2736646Y5825693D01*
X2722981Y5826607D01*
X2709316Y5825693D01*
X2695905Y5823051D01*
X2687421Y5820156D01*
X2683713Y5819648D01*
X2680055Y5820460D01*
X2676956Y5822594D01*
X1422654Y7076948D01*
X1416405Y7082078D01*
X1409750Y7085634D01*
X1402486Y7087819D01*
X1394460Y7088581D01*
X998016Y7088581D01*
X994664Y7089190D01*
X991158Y7090409D01*
X987602Y7092543D01*
X985164Y7095947D01*
X984351Y7100011D01*
X985164Y7104075D01*
X987602Y7107428D01*
X991158Y7109612D01*
X994664Y7110831D01*
X998016Y7111390D01*
X1528775Y7111390D01*
X1532686Y7110628D01*
X1535988Y7108393D01*
X2622397Y6021984D01*
X2624480Y6018885D01*
X2625344Y6015278D01*
X2624836Y6011570D01*
X2621940Y6003086D01*
X2619248Y5989624D01*
X2618384Y5975959D01*
X2619248Y5962345D01*
X2621940Y5948883D01*
X2626309Y5935929D01*
X2632405Y5923686D01*
X2639974Y5912307D01*
X2649016Y5901994D01*
X2659278Y5893003D01*
X2670657Y5885383D01*
X2682951Y5879338D01*
X2695905Y5874918D01*
X2709316Y5872276D01*
X2722981Y5871362D01*
X2736646Y5872276D01*
X2750058Y5874918D01*
X2763012Y5879338D01*
X2775305Y5885383D01*
X2786684Y5893003D01*
X2796997Y5901994D01*
X2805988Y5912307D01*
X2813608Y5923686D01*
X2819654Y5935929D01*
X2824073Y5948883D01*
X2826715Y5962345D01*
X2827629Y5975959D01*
X2826715Y5989624D01*
X2824073Y6003086D01*
X2819654Y6016040D01*
X2813608Y6028283D01*
X2805988Y6039662D01*
X2796997Y6049975D01*
X2786684Y6058966D01*
X2775305Y6066586D01*
X2763012Y6072632D01*
X2750058Y6077051D01*
X2736646Y6079693D01*
X2722981Y6080607D01*
X2709316Y6079693D01*
X2695905Y6077051D01*
X2687421Y6074156D01*
X2683713Y6073648D01*
X2680055Y6074460D01*
X2676956Y6076594D01*
X1609547Y7144054D01*
X1607362Y7147306D01*
X1606550Y7151217D01*
X1607362Y7155129D01*
X1609547Y7158380D01*
X1612849Y7160615D01*
X1616710Y7161377D01*
X1732788Y7161377D01*
X1736699Y7160615D01*
X1740001Y7158380D01*
X2622397Y6275984D01*
X2624480Y6272885D01*
X2625344Y6269278D01*
X2624836Y6265570D01*
X2621940Y6257086D01*
X2619248Y6243624D01*
X2618384Y6229959D01*
X2619248Y6216345D01*
X2621940Y6202883D01*
X2626309Y6189929D01*
X2632405Y6177686D01*
X2639974Y6166307D01*
X2649016Y6155994D01*
X2659278Y6147003D01*
X2670657Y6139383D01*
X2682951Y6133338D01*
X2695905Y6128918D01*
X2709316Y6126276D01*
X2722981Y6125362D01*
X2736646Y6126276D01*
X2750058Y6128918D01*
X2763012Y6133338D01*
X2775305Y6139383D01*
X2786684Y6147003D01*
X2796997Y6155994D01*
X2805988Y6166307D01*
X2813608Y6177686D01*
X2819654Y6189929D01*
X2824073Y6202883D01*
X2826715Y6216345D01*
X2827629Y6229959D01*
X2826715Y6243624D01*
X2824073Y6257086D01*
X2819654Y6270040D01*
X2813608Y6282283D01*
X2805988Y6293662D01*
X2796997Y6303975D01*
X2786684Y6312966D01*
X2775305Y6320586D01*
X2763012Y6326632D01*
X2750058Y6331051D01*
X2736646Y6333693D01*
X2722981Y6334607D01*
X2709316Y6333693D01*
X2695905Y6331051D01*
X2687421Y6328156D01*
X2683713Y6327648D01*
X2680055Y6328460D01*
X2676956Y6330594D01*
X1780641Y7226909D01*
X1774393Y7232040D01*
X1767738Y7235596D01*
X1760524Y7237780D01*
X1752498Y7238593D01*
X998016Y7238593D01*
X994664Y7239152D01*
X991158Y7240371D01*
X987602Y7242556D01*
X985164Y7245908D01*
X984351Y7249972D01*
X985164Y7254036D01*
X987602Y7257440D01*
X991158Y7259574D01*
X994664Y7260793D01*
X998016Y7261352D01*
X1886813Y7261352D01*
X1890674Y7260590D01*
X1893976Y7258405D01*
X2622397Y6529984D01*
X2624480Y6526885D01*
X2625344Y6523278D01*
X2624836Y6519570D01*
X2621940Y6511086D01*
X2619248Y6497624D01*
X2618384Y6483959D01*
X2619248Y6470345D01*
X2621940Y6456883D01*
X2626309Y6443929D01*
X2632405Y6431686D01*
X2639974Y6420307D01*
X2649016Y6409994D01*
X2659278Y6401003D01*
X2670657Y6393383D01*
X2682951Y6387338D01*
X2695905Y6382918D01*
X2709316Y6380276D01*
X2722981Y6379362D01*
X2736646Y6380276D01*
X2750058Y6382918D01*
X2763012Y6387338D01*
X2775305Y6393383D01*
X2786684Y6401003D01*
X2796997Y6409994D01*
X2805988Y6420307D01*
X2813608Y6431686D01*
X2819654Y6443929D01*
X2824073Y6456883D01*
X2826715Y6470345D01*
X2827629Y6483959D01*
X2826715Y6497624D01*
X2824073Y6511086D01*
X2819654Y6524040D01*
X2813608Y6536283D01*
X2805988Y6547662D01*
X2796997Y6557975D01*
X2786684Y6566966D01*
X2775305Y6574586D01*
X2763012Y6580631D01*
X2750058Y6585051D01*
X2736646Y6587693D01*
X2722981Y6588607D01*
X2709316Y6587693D01*
X2695905Y6585051D01*
X2687421Y6582156D01*
X2683713Y6581648D01*
X2680055Y6582460D01*
X2676956Y6584594D01*
X1967534Y7294016D01*
X1965350Y7297318D01*
X1964588Y7301179D01*
X1965350Y7305090D01*
X1967534Y7308392D01*
X1970836Y7310577D01*
X1974748Y7311339D01*
X2090826Y7311339D01*
X2094687Y7310577D01*
X2097989Y7308392D01*
X2622397Y6783984D01*
X2624480Y6780885D01*
X2625344Y6777278D01*
X2624836Y6773570D01*
X2621940Y6765086D01*
X2619248Y6751624D01*
X2618384Y6737959D01*
X2619248Y6724345D01*
X2621940Y6710883D01*
X2626309Y6697929D01*
X2632405Y6685686D01*
X2639974Y6674307D01*
X2649016Y6663994D01*
X2659278Y6655003D01*
X2670657Y6647383D01*
X2682951Y6641338D01*
X2695905Y6636918D01*
X2709316Y6634276D01*
X2722981Y6633362D01*
X2736646Y6634276D01*
X2750058Y6636918D01*
X2763012Y6641338D01*
X2775305Y6647383D01*
X2786684Y6655003D01*
X2796997Y6663994D01*
X2805988Y6674307D01*
X2813608Y6685686D01*
X2819654Y6697929D01*
X2824073Y6710883D01*
X2826715Y6724345D01*
X2827629Y6737959D01*
X2826715Y6751624D01*
X2824073Y6765086D01*
X2819654Y6778040D01*
X2813608Y6790283D01*
X2805988Y6801662D01*
X2796997Y6811975D01*
X2786684Y6820966D01*
X2775305Y6828586D01*
X2763012Y6834631D01*
X2750058Y6839051D01*
X2736646Y6841693D01*
X2722981Y6842607D01*
X2709316Y6841693D01*
X2695905Y6839051D01*
X2687421Y6836156D01*
X2683713Y6835648D01*
X2680055Y6836460D01*
X2676956Y6838594D01*
X2138680Y7376922D01*
X2132431Y7382052D01*
X2125776Y7385608D01*
X2118512Y7387793D01*
X2110486Y7388555D01*
X998016Y7388555D01*
X994664Y7389164D01*
X991158Y7390384D01*
X987602Y7392517D01*
X985164Y7395921D01*
X984351Y7399985D01*
X985164Y7404049D01*
X987602Y7407402D01*
X991158Y7409586D01*
X994664Y7410805D01*
X998016Y7411364D01*
X2244801Y7411364D01*
X2248712Y7410602D01*
X2252014Y7408367D01*
X2622397Y7037984D01*
X2624480Y7034885D01*
X2625344Y7031278D01*
X2624836Y7027570D01*
X2621940Y7019086D01*
X2619248Y7005624D01*
X2618384Y6991959D01*
X2619248Y6978345D01*
X2621940Y6964883D01*
X2626309Y6951929D01*
X2632405Y6939686D01*
X2639974Y6928307D01*
X2649016Y6917994D01*
X2659278Y6909003D01*
X2670657Y6901383D01*
X2682951Y6895338D01*
X2695905Y6890918D01*
X2709316Y6888276D01*
X2722981Y6887362D01*
X2736646Y6888276D01*
X2750058Y6890918D01*
X2763012Y6895338D01*
X2775305Y6901383D01*
X2786684Y6909003D01*
X2796997Y6917994D01*
X2805988Y6928307D01*
X2813608Y6939686D01*
X2819654Y6951929D01*
X2824073Y6964883D01*
X2826715Y6978345D01*
X2827629Y6991959D01*
X2826715Y7005624D01*
X2824073Y7019086D01*
X2819654Y7032040D01*
X2813608Y7044283D01*
X2805988Y7055662D01*
X2796997Y7065975D01*
X2786684Y7074966D01*
X2775305Y7082586D01*
X2763012Y7088631D01*
X2750058Y7093051D01*
X2736646Y7095693D01*
X2722981Y7096607D01*
X2709316Y7095693D01*
X2695905Y7093051D01*
X2687421Y7090156D01*
X2683713Y7089648D01*
X2680055Y7090460D01*
X2676956Y7092594D01*
X2325522Y7444028D01*
X2323338Y7447330D01*
X2322576Y7451191D01*
X2323338Y7455103D01*
X2325522Y7458405D01*
X2328824Y7460589D01*
X2332736Y7461351D01*
X2448814Y7461351D01*
X2452674Y7460589D01*
X2455976Y7458405D01*
X2622397Y7291984D01*
X2624480Y7288885D01*
X2625344Y7285278D01*
X2624836Y7281570D01*
X2621940Y7273086D01*
X2619248Y7259624D01*
X2618384Y7245959D01*
X2619248Y7232345D01*
X2621940Y7218883D01*
X2626309Y7205929D01*
X2632405Y7193686D01*
X2639974Y7182307D01*
X2649016Y7171994D01*
X2659278Y7163003D01*
X2670657Y7155383D01*
X2682951Y7149338D01*
X2695905Y7144918D01*
X2709316Y7142276D01*
X2722981Y7141362D01*
X2736646Y7142276D01*
X2750058Y7144918D01*
X2763012Y7149338D01*
X2775305Y7155383D01*
X2786684Y7163003D01*
X2796997Y7171994D01*
X2805988Y7182307D01*
X2813608Y7193686D01*
X2819654Y7205929D01*
X2824073Y7218883D01*
X2826715Y7232345D01*
X2827629Y7245959D01*
X2826715Y7259624D01*
X2824073Y7273086D01*
X2819654Y7286040D01*
X2813608Y7298283D01*
X2805988Y7309662D01*
X2796997Y7319975D01*
X2786684Y7328966D01*
X2775305Y7336586D01*
X2763012Y7342631D01*
X2750058Y7347051D01*
X2736646Y7349693D01*
X2722981Y7350607D01*
X2709316Y7349693D01*
X2695905Y7347051D01*
X2687421Y7344156D01*
X2683713Y7343648D01*
X2680055Y7344460D01*
X2676956Y7346594D01*
X2496667Y7526934D01*
X2490419Y7532065D01*
X2483764Y7535621D01*
X2476500Y7537805D01*
X2468473Y7538567D01*
X998016Y7538567D01*
X994664Y7539177D01*
X991158Y7540396D01*
X987602Y7542530D01*
X985164Y7545933D01*
X984351Y7549997D01*
X985164Y7554061D01*
X987602Y7557414D01*
X991158Y7559598D01*
X994664Y7560818D01*
X998016Y7561376D01*
X2602788Y7561376D01*
X2606700Y7560614D01*
X2610002Y7558379D01*
X2622397Y7545984D01*
X2624480Y7542885D01*
X2625344Y7539278D01*
X2624836Y7535570D01*
X2621940Y7527086D01*
X2619248Y7513624D01*
X2618384Y7499959D01*
X2619248Y7486345D01*
X2621940Y7472883D01*
X2626309Y7459929D01*
X2632405Y7447686D01*
X2639974Y7436307D01*
X2649016Y7425994D01*
X2659278Y7417003D01*
X2670657Y7409383D01*
X2682951Y7403338D01*
X2695905Y7398918D01*
X2709316Y7396276D01*
X2722981Y7395362D01*
X2736646Y7396276D01*
X2750058Y7398918D01*
X2763012Y7403338D01*
X2775305Y7409383D01*
X2786684Y7417003D01*
X2796997Y7425994D01*
X2805988Y7436307D01*
X2813608Y7447686D01*
X2819654Y7459929D01*
X2824073Y7472883D01*
X2826715Y7486345D01*
X2827629Y7499959D01*
X2826715Y7513624D01*
X2824073Y7527086D01*
X2819654Y7540040D01*
X2813608Y7552283D01*
X2805988Y7563662D01*
X2796997Y7573975D01*
X2786684Y7582966D01*
X2775305Y7590586D01*
X2763012Y7596631D01*
X2750058Y7601051D01*
X2736646Y7603693D01*
X2722981Y7604607D01*
X2709316Y7603693D01*
X2695905Y7601051D01*
X2687421Y7598156D01*
X2683713Y7597648D01*
X2680055Y7598460D01*
X2676956Y7600594D01*
X2657754Y7619796D01*
X2655570Y7623098D01*
X2654808Y7626959D01*
X2655570Y7630871D01*
X2657754Y7634173D01*
X2676956Y7653375D01*
X2680055Y7655458D01*
X2683713Y7656322D01*
X2687421Y7655814D01*
X2695905Y7652918D01*
X2709316Y7650276D01*
X2722981Y7649362D01*
X2736646Y7650276D01*
X2750058Y7652918D01*
X2763012Y7657338D01*
X2775305Y7663383D01*
X2786684Y7671003D01*
X2796997Y7679994D01*
X2805988Y7690307D01*
X2813608Y7701686D01*
X2819654Y7713929D01*
X2824073Y7726883D01*
X2826715Y7740345D01*
X2827629Y7753959D01*
X2826715Y7767624D01*
X2824073Y7781086D01*
X2819654Y7794040D01*
X2813608Y7806283D01*
X2805988Y7817662D01*
X2796997Y7827975D01*
X2786684Y7836966D01*
X2775305Y7844586D01*
X2763012Y7850631D01*
X2750058Y7855051D01*
X2736646Y7857693D01*
X2722981Y7858607D01*
X2709316Y7857693D01*
X2695905Y7855051D01*
X2682951Y7850631D01*
X2670657Y7844586D01*
X2659278Y7836966D01*
X2649016Y7827975D01*
X2639974Y7817662D01*
X2632405Y7806283D01*
X2626309Y7794040D01*
X2621940Y7781086D01*
X2619248Y7767624D01*
X2618384Y7753959D01*
X2619248Y7740345D01*
X2621940Y7726883D01*
X2624836Y7718399D01*
X2625344Y7714691D01*
X2624480Y7711084D01*
X2622397Y7707985D01*
X2605989Y7691577D01*
X2602687Y7689392D01*
X2598826Y7688580D01*
X2482748Y7688580D01*
X2478836Y7689392D01*
X2475534Y7691577D01*
X2473350Y7694879D01*
X2472588Y7698740D01*
X2473350Y7702651D01*
X2475534Y7705953D01*
X2676956Y7907375D01*
X2680055Y7909458D01*
X2683713Y7910322D01*
X2687421Y7909814D01*
X2695905Y7906918D01*
X2709316Y7904276D01*
X2722981Y7903362D01*
X2736646Y7904276D01*
X2750058Y7906918D01*
X2763012Y7911338D01*
X2775305Y7917383D01*
X2786684Y7925003D01*
X2796997Y7933994D01*
X2805988Y7944307D01*
X2813608Y7955686D01*
X2819654Y7967929D01*
X2824073Y7980883D01*
X2826715Y7994345D01*
X2827629Y8007959D01*
X2826715Y8021624D01*
X2824073Y8035086D01*
X2819654Y8048040D01*
X2813608Y8060283D01*
X2805988Y8071662D01*
X2796997Y8081975D01*
X2786684Y8090966D01*
X2775305Y8098586D01*
X2763012Y8104631D01*
X2750058Y8109051D01*
X2736646Y8111693D01*
X2722981Y8112607D01*
X2709316Y8111693D01*
X2695905Y8109051D01*
X2682951Y8104631D01*
X2670657Y8098586D01*
X2659278Y8090966D01*
X2649016Y8081975D01*
X2639974Y8071662D01*
X2632405Y8060283D01*
X2626309Y8048040D01*
X2621940Y8035086D01*
X2619248Y8021624D01*
X2618384Y8007959D01*
X2619248Y7994345D01*
X2621940Y7980883D01*
X2624836Y7972399D01*
X2625344Y7968691D01*
X2624480Y7965084D01*
X2622397Y7961985D01*
X2401976Y7741564D01*
X2398674Y7739380D01*
X2394813Y7738567D01*
X2278735Y7738567D01*
X2274824Y7739380D01*
X2271522Y7741564D01*
X2269337Y7744866D01*
X2268575Y7748727D01*
X2269337Y7752638D01*
X2271522Y7755940D01*
X2676956Y8161375D01*
X2680055Y8163458D01*
X2683713Y8164322D01*
X2687421Y8163814D01*
X2695905Y8160918D01*
X2709316Y8158276D01*
X2722981Y8157362D01*
X2736646Y8158276D01*
X2750058Y8160918D01*
X2763012Y8165338D01*
X2775305Y8171383D01*
X2786684Y8179003D01*
X2796997Y8187994D01*
X2805988Y8198307D01*
X2813608Y8209686D01*
X2819654Y8221929D01*
X2824073Y8234883D01*
X2826715Y8248345D01*
X2827629Y8261959D01*
X2826715Y8275624D01*
X2824073Y8289086D01*
X2819654Y8302040D01*
X2813608Y8314283D01*
X2805988Y8325662D01*
X2796997Y8335975D01*
X2786684Y8344966D01*
X2775305Y8352586D01*
X2763012Y8358631D01*
X2750058Y8363051D01*
X2736646Y8365693D01*
X2722981Y8366607D01*
X2709316Y8365693D01*
X2695905Y8363051D01*
X2682951Y8358631D01*
X2670657Y8352586D01*
X2659278Y8344966D01*
X2649016Y8335975D01*
X2639974Y8325662D01*
X2632405Y8314283D01*
X2626309Y8302040D01*
X2621940Y8289086D01*
X2619248Y8275624D01*
X2618384Y8261959D01*
X2619248Y8248345D01*
X2621940Y8234883D01*
X2624836Y8226399D01*
X2625344Y8222691D01*
X2624480Y8219084D01*
X2622397Y8215985D01*
X2197963Y7791551D01*
X2194661Y7789367D01*
X2190800Y7788554D01*
X2074722Y7788554D01*
X2070811Y7789367D01*
X2067509Y7791551D01*
X2065324Y7794853D01*
X2064562Y7798714D01*
X2065324Y7802625D01*
X2067509Y7805928D01*
X2676956Y8415375D01*
X2680055Y8417458D01*
X2683713Y8418322D01*
X2687421Y8417814D01*
X2695905Y8414918D01*
X2709316Y8412276D01*
X2722981Y8411362D01*
X2736646Y8412276D01*
X2750058Y8414918D01*
X2763012Y8419338D01*
X2775305Y8425383D01*
X2786684Y8433003D01*
X2796997Y8441994D01*
X2805988Y8452307D01*
X2813608Y8463686D01*
X2819654Y8475929D01*
X2824073Y8488883D01*
X2826715Y8502345D01*
X2827629Y8515959D01*
X2826715Y8529624D01*
X2824073Y8543086D01*
X2819654Y8556040D01*
X2813608Y8568283D01*
X2805988Y8579662D01*
X2796997Y8589975D01*
X2786684Y8598966D01*
X2775305Y8606586D01*
X2763012Y8612632D01*
X2750058Y8617051D01*
X2736646Y8619693D01*
X2722981Y8620607D01*
X2709316Y8619693D01*
X2695905Y8617051D01*
X2682951Y8612632D01*
X2670657Y8606586D01*
X2659278Y8598966D01*
X2649016Y8589975D01*
X2639974Y8579662D01*
X2632405Y8568283D01*
X2626309Y8556040D01*
X2621940Y8543086D01*
X2619248Y8529624D01*
X2618384Y8515959D01*
X2619248Y8502345D01*
X2621940Y8488883D01*
X2624836Y8480399D01*
X2625344Y8476691D01*
X2624480Y8473084D01*
X2622397Y8469985D01*
X1994001Y7841589D01*
X1990699Y7839354D01*
X1986788Y7838592D01*
X998016Y7838592D01*
X994664Y7839151D01*
X991158Y7840370D01*
X987602Y7842554D01*
X985164Y7845907D01*
X984351Y7849971D01*
X985164Y7854035D01*
X987602Y7857439D01*
X991158Y7859572D01*
X994664Y7860792D01*
X998016Y7861350D01*
X1852472Y7861350D01*
X1860499Y7862163D01*
X1867763Y7864348D01*
X1874418Y7867903D01*
X1880666Y7873034D01*
X2676956Y8669375D01*
X2680055Y8671458D01*
X2683713Y8672322D01*
X2687421Y8671814D01*
X2695905Y8668918D01*
X2709316Y8666276D01*
X2722981Y8665362D01*
X2736646Y8666276D01*
X2750058Y8668918D01*
X2763012Y8673338D01*
X2775305Y8679383D01*
X2786684Y8687003D01*
X2796997Y8695994D01*
X2805988Y8706307D01*
X2813608Y8717686D01*
X2819654Y8729929D01*
X2824073Y8742883D01*
X2826715Y8756345D01*
X2827629Y8769959D01*
X2826715Y8783624D01*
X2824073Y8797086D01*
X2819654Y8810040D01*
X2813608Y8822283D01*
X2805988Y8833662D01*
X2796997Y8843975D01*
X2786684Y8852966D01*
X2775305Y8860586D01*
X2763012Y8866632D01*
X2750058Y8871051D01*
X2736646Y8873693D01*
X2722981Y8874607D01*
X2709316Y8873693D01*
X2695905Y8871051D01*
X2682951Y8866632D01*
X2670657Y8860586D01*
X2659278Y8852966D01*
X2649016Y8843975D01*
X2639974Y8833662D01*
X2632405Y8822283D01*
X2626309Y8810040D01*
X2621940Y8797086D01*
X2619248Y8783624D01*
X2618384Y8769959D01*
X2619248Y8756345D01*
X2621940Y8742883D01*
X2624836Y8734399D01*
X2625344Y8730691D01*
X2624480Y8727084D01*
X2622397Y8723985D01*
X1839975Y7941564D01*
X1836674Y7939379D01*
X1832813Y7938566D01*
X1716735Y7938566D01*
X1712823Y7939379D01*
X1709521Y7941564D01*
X1707337Y7944866D01*
X1706575Y7948726D01*
X1707337Y7952638D01*
X1709521Y7955940D01*
X2676956Y8923375D01*
X2680055Y8925458D01*
X2683713Y8926322D01*
X2687421Y8925814D01*
X2695905Y8922918D01*
X2709316Y8920276D01*
X2722981Y8919362D01*
X2736646Y8920276D01*
X2750058Y8922918D01*
X2763012Y8927338D01*
X2775305Y8933383D01*
X2786684Y8941003D01*
X2796997Y8949994D01*
X2805988Y8960307D01*
X2813608Y8971686D01*
X2819654Y8983929D01*
X2824073Y8996883D01*
X2826715Y9010345D01*
X2827629Y9023959D01*
X2826715Y9037624D01*
X2824073Y9051086D01*
X2819654Y9064040D01*
X2813608Y9076283D01*
X2805988Y9087662D01*
X2796997Y9097975D01*
X2786684Y9106966D01*
X2775305Y9114586D01*
X2763012Y9120632D01*
X2750058Y9125051D01*
X2736646Y9127693D01*
X2722981Y9128607D01*
X2709316Y9127693D01*
X2695905Y9125051D01*
X2682951Y9120632D01*
X2670657Y9114586D01*
X2659278Y9106966D01*
X2649016Y9097975D01*
X2639974Y9087662D01*
X2632405Y9076283D01*
X2626309Y9064040D01*
X2621940Y9051086D01*
X2619248Y9037624D01*
X2618384Y9023959D01*
X2619248Y9010345D01*
X2621940Y8996883D01*
X2624836Y8988399D01*
X2625344Y8984691D01*
X2624480Y8981084D01*
X2622397Y8977985D01*
X1635963Y7991551D01*
X1632661Y7989366D01*
X1628800Y7988553D01*
X998016Y7988553D01*
X994664Y7989163D01*
X991768Y7990179D01*
X985418Y7990890D01*
X890524Y7990890D01*
X886968Y7991652D01*
X883056Y7990890D01*
X726592Y7990890D01*
X720242Y7990179D01*
X714806Y7988249D01*
X709879Y7985150D01*
X705815Y7981086D01*
X702716Y7976158D01*
X700836Y7970723D01*
X700125Y7964424D01*
X700125Y7935518D01*
X700836Y7929219D01*
X701700Y7924952D01*
X700836Y7920736D01*
X700125Y7914436D01*
X700125Y7885531D01*
X700836Y7879232D01*
X701700Y7874965D01*
X700836Y7870698D01*
X700125Y7863840D01*
X708507Y7863840D01*
X711301Y7863433D01*
X714806Y7861706D01*
X720852Y7859572D01*
X724408Y7857439D01*
X726846Y7854035D01*
X727659Y7849971D01*
X726846Y7845907D01*
X724408Y7842554D01*
X720852Y7840370D01*
X714806Y7838287D01*
X711250Y7836509D01*
X708456Y7836103D01*
X700125Y7836103D01*
X700836Y7829245D01*
X701700Y7824978D01*
X700836Y7820710D01*
X700125Y7814411D01*
X700125Y7785557D01*
X700836Y7779258D01*
X701700Y7774990D01*
X700836Y7770723D01*
X700125Y7764424D01*
X700125Y7735519D01*
X700836Y7729220D01*
X701700Y7724952D01*
X700836Y7720736D01*
X700125Y7714437D01*
X700125Y7685531D01*
X700836Y7679232D01*
X701700Y7674965D01*
X700836Y7670749D01*
X700125Y7664450D01*
X700125Y7635544D01*
X700836Y7629245D01*
X701700Y7624978D01*
X700836Y7620711D01*
X700125Y7614412D01*
X700125Y7585557D01*
X700836Y7579258D01*
X701700Y7574991D01*
X700836Y7570724D01*
X700125Y7563866D01*
X708456Y7563866D01*
X711250Y7563459D01*
X714806Y7561681D01*
X720852Y7559598D01*
X724408Y7557414D01*
X726846Y7554061D01*
X727659Y7549997D01*
X726846Y7545933D01*
X724408Y7542530D01*
X720852Y7540396D01*
X714806Y7538262D01*
X711301Y7536535D01*
X708507Y7536129D01*
X700125Y7536129D01*
X700836Y7529271D01*
X701700Y7525003D01*
X700836Y7520736D01*
X700125Y7514437D01*
X700125Y7485532D01*
X700836Y7479233D01*
X701700Y7474966D01*
X700836Y7470698D01*
X700125Y7464399D01*
X700125Y7435545D01*
X700836Y7429246D01*
X701700Y7424978D01*
X700836Y7420711D01*
X700125Y7413853D01*
X708456Y7413853D01*
X711250Y7413447D01*
X714806Y7411669D01*
X720852Y7409586D01*
X724408Y7407402D01*
X726846Y7404049D01*
X727659Y7399985D01*
X726846Y7395921D01*
X724408Y7392517D01*
X720852Y7390384D01*
X714806Y7388250D01*
X711301Y7386523D01*
X708507Y7386116D01*
X700125Y7386116D01*
X700836Y7379258D01*
X701700Y7374991D01*
X700836Y7370724D01*
X700125Y7364425D01*
X700125Y7335520D01*
X700836Y7329220D01*
X701700Y7324953D01*
X700836Y7320737D01*
X700125Y7314438D01*
X700125Y7285532D01*
X700836Y7279233D01*
X701700Y7274966D01*
X700836Y7270750D01*
X700125Y7263841D01*
X708456Y7263841D01*
X711250Y7263434D01*
X714806Y7261707D01*
X720852Y7259574D01*
X724408Y7257440D01*
X726846Y7254036D01*
X727659Y7249972D01*
X726846Y7245908D01*
X724408Y7242556D01*
X720852Y7240371D01*
X714806Y7238288D01*
X711301Y7236561D01*
X708507Y7236155D01*
X700125Y7236155D01*
X700836Y7229246D01*
X701700Y7224979D01*
X700836Y7220712D01*
X700125Y7214412D01*
X700125Y7185558D01*
X700836Y7179259D01*
X701700Y7174992D01*
X700836Y7170724D01*
X700125Y7164425D01*
X700125Y7135571D01*
X700836Y7129272D01*
X701700Y7125004D01*
X700836Y7120737D01*
X700125Y7113828D01*
X708507Y7113828D01*
X711301Y7113422D01*
X714806Y7111695D01*
X720852Y7109612D01*
X724408Y7107428D01*
X726846Y7104075D01*
X727659Y7100011D01*
X726846Y7095947D01*
X724408Y7092543D01*
X720852Y7090409D01*
X714806Y7088276D01*
X711250Y7086549D01*
X708456Y7086142D01*
X700125Y7086142D01*
X700836Y7079234D01*
X701700Y7074966D01*
X700836Y7070750D01*
X700125Y7064451D01*
X700125Y7035546D01*
X700836Y7029246D01*
X702716Y7023811D01*
X705815Y7018883D01*
X709879Y7014819D01*
X714806Y7011720D01*
X720242Y7009790D01*
X726592Y7009079D01*
X883056Y7009079D01*
X886968Y7008317D01*
X890524Y7009079D01*
X985418Y7009079D01*
X991768Y7009790D01*
X994664Y7010806D01*
X998016Y7011365D01*
X1374800Y7011365D01*
X1378661Y7010603D01*
X1381963Y7008418D01*
X2622397Y5767984D01*
X2624480Y5764885D01*
X2625344Y5761278D01*
X2624836Y5757570D01*
X2621940Y5749086D01*
X2619248Y5735624D01*
X2618384Y5721959D01*
X2619248Y5708345D01*
X2621940Y5694883D01*
X2626309Y5681929D01*
X2632405Y5669686D01*
X2639974Y5658307D01*
X2649016Y5647994D01*
X2659278Y5639003D01*
X2670657Y5631383D01*
X2682951Y5625338D01*
X2695905Y5620918D01*
X2709316Y5618276D01*
G37*
G36*
X6672732Y5687110D02*
G01*
X6679285Y5690362D01*
X6690664Y5697982D01*
X6700977Y5707024D01*
X6709968Y5717286D01*
X6717588Y5728665D01*
X6720840Y5735269D01*
X6672732Y5735269D01*
G37*
G36*
X2883154Y8053679D02*
G01*
X2931261Y8053679D01*
X2931261Y8101838D01*
X2924657Y8098586D01*
X2913278Y8090966D01*
X2903016Y8081975D01*
X2893974Y8071662D01*
X2886405Y8060283D01*
G37*
G36*
X3022701Y7037679D02*
G01*
X3070860Y7037679D01*
X3067608Y7044283D01*
X3059988Y7055662D01*
X3050997Y7065975D01*
X3040684Y7074966D01*
X3029305Y7082586D01*
X3022701Y7085838D01*
G37*
G36*
X3022701Y5767679D02*
G01*
X3081629Y5767679D01*
X3081629Y5800140D01*
X3080918Y5806490D01*
X3079038Y5811926D01*
X3075940Y5816854D01*
X3071825Y5820918D01*
X3066948Y5824016D01*
X3061462Y5825896D01*
X3055162Y5826607D01*
X3022701Y5826607D01*
G37*
G36*
X2872333Y5767679D02*
G01*
X2931261Y5767679D01*
X2931261Y5826607D01*
X2898800Y5826607D01*
X2892501Y5825896D01*
X2887065Y5824016D01*
X2882138Y5820918D01*
X2878074Y5816854D01*
X2874975Y5811926D01*
X2873044Y5806490D01*
X2872333Y5800140D01*
G37*
G36*
X4818634Y8026552D02*
G01*
X4818634Y8143646D01*
X4650943Y8143646D01*
X4657953Y8131048D01*
X4669739Y8113826D01*
X4683048Y8097774D01*
X4697780Y8083042D01*
X4713833Y8069732D01*
X4731054Y8057946D01*
X4749292Y8047786D01*
X4768392Y8039353D01*
X4788154Y8032699D01*
X4808474Y8027924D01*
G37*
G36*
X6672732Y5826709D02*
G01*
X6720840Y5826709D01*
X6717588Y5833313D01*
X6709968Y5844692D01*
X6700977Y5854954D01*
X6690664Y5863996D01*
X6679285Y5871616D01*
X6672732Y5874867D01*
G37*
G36*
X9296196Y5846216D02*
G01*
X9381642Y5846216D01*
X9379762Y5849975D01*
X9369298Y5866841D01*
X9357207Y5882640D01*
X9343694Y5897219D01*
X9328759Y5910427D01*
X9312706Y5922111D01*
X9296196Y5931814D01*
G37*
G36*
X9018117Y5846216D02*
G01*
X9103563Y5846216D01*
X9103563Y5931814D01*
X9087053Y5922111D01*
X9070949Y5910427D01*
X9056065Y5897219D01*
X9042552Y5882640D01*
X9030462Y5866841D01*
X9019946Y5849975D01*
G37*
G36*
X5181346Y8026552D02*
G01*
X5191506Y8027924D01*
X5211826Y8032699D01*
X5231587Y8039353D01*
X5250688Y8047786D01*
X5268925Y8057946D01*
X5286146Y8069732D01*
X5302199Y8083042D01*
X5316931Y8097774D01*
X5330240Y8113826D01*
X5342026Y8131048D01*
X5349036Y8143646D01*
X5181346Y8143646D01*
G37*
G36*
X893216Y8014055D02*
G01*
X902919Y8019237D01*
X920851Y8031073D01*
X937666Y8044484D01*
X953211Y8059369D01*
X967384Y8075574D01*
X980033Y8092948D01*
X991209Y8111744D01*
X893216Y8111744D01*
G37*
G36*
X3022701Y5882132D02*
G01*
X3029305Y5885383D01*
X3040684Y5893003D01*
X3050997Y5901994D01*
X3059988Y5912307D01*
X3067608Y5923686D01*
X3070860Y5930239D01*
X3022701Y5930239D01*
G37*
G36*
X2931261Y5882132D02*
G01*
X2931261Y5930239D01*
X2883154Y5930239D01*
X2886405Y5923686D01*
X2893974Y5912307D01*
X2903016Y5901994D01*
X2913278Y5893003D01*
X2924657Y5885383D01*
G37*
G36*
X2883154Y6021679D02*
G01*
X2931261Y6021679D01*
X2931261Y6069838D01*
X2924657Y6066586D01*
X2913278Y6058966D01*
X2903016Y6049975D01*
X2893974Y6039662D01*
X2886405Y6028283D01*
G37*
G36*
X3022701Y6021679D02*
G01*
X3070860Y6021679D01*
X3067608Y6028283D01*
X3059988Y6039662D01*
X3050997Y6049975D01*
X3040684Y6058966D01*
X3029305Y6066586D01*
X3022701Y6069838D01*
G37*
G36*
X666800Y8014055D02*
G01*
X666800Y8111744D01*
X568807Y8111744D01*
X579983Y8092948D01*
X592632Y8075574D01*
X606806Y8059369D01*
X622350Y8044484D01*
X639165Y8031073D01*
X657098Y8019237D01*
G37*
G36*
X2931261Y7914131D02*
G01*
X2931261Y7962239D01*
X2883154Y7962239D01*
X2886405Y7955686D01*
X2893974Y7944307D01*
X2903016Y7933994D01*
X2913278Y7925003D01*
X2924657Y7917383D01*
G37*
G36*
X3022701Y6136132D02*
G01*
X3029305Y6139383D01*
X3040684Y6147003D01*
X3050997Y6155994D01*
X3059988Y6166307D01*
X3067608Y6177686D01*
X3070860Y6184239D01*
X3022701Y6184239D01*
G37*
G36*
X2931261Y6136132D02*
G01*
X2931261Y6184239D01*
X2883154Y6184239D01*
X2886405Y6177686D01*
X2893974Y6166307D01*
X2903016Y6155994D01*
X2913278Y6147003D01*
X2924657Y6139383D01*
G37*
G36*
X2898800Y317347D02*
G01*
X2931261Y317347D01*
X2931261Y376275D01*
X2872333Y376275D01*
X2872333Y343814D01*
X2873044Y337515D01*
X2874975Y332028D01*
X2878074Y327152D01*
X2882138Y323037D01*
X2887065Y319989D01*
X2892501Y318058D01*
G37*
G36*
X3022701Y6275679D02*
G01*
X3070860Y6275679D01*
X3067608Y6282283D01*
X3059988Y6293662D01*
X3050997Y6303975D01*
X3040684Y6312966D01*
X3029305Y6320586D01*
X3022701Y6323838D01*
G37*
G36*
X2883154Y6275679D02*
G01*
X2931261Y6275679D01*
X2931261Y6323838D01*
X2924657Y6320586D01*
X2913278Y6312966D01*
X2903016Y6303975D01*
X2893974Y6293662D01*
X2886405Y6282283D01*
G37*
G36*
X3022701Y7914131D02*
G01*
X3029305Y7917383D01*
X3040684Y7925003D01*
X3050997Y7933994D01*
X3059988Y7944307D01*
X3067608Y7955686D01*
X3070860Y7962239D01*
X3022701Y7962239D01*
G37*
G36*
X5181346Y7856321D02*
G01*
X5349036Y7856321D01*
X5342026Y7868920D01*
X5330240Y7886141D01*
X5316931Y7902194D01*
X5302199Y7916925D01*
X5286146Y7930235D01*
X5268925Y7942021D01*
X5250688Y7952181D01*
X5231587Y7960614D01*
X5211826Y7967268D01*
X5191506Y7972044D01*
X5181346Y7973415D01*
G37*
G36*
X3022701Y6390132D02*
G01*
X3029305Y6393383D01*
X3040684Y6401003D01*
X3050997Y6409994D01*
X3059988Y6420307D01*
X3067608Y6431686D01*
X3070860Y6438239D01*
X3022701Y6438239D01*
G37*
G36*
X2931261Y6390132D02*
G01*
X2931261Y6438239D01*
X2883154Y6438239D01*
X2886405Y6431686D01*
X2893974Y6420307D01*
X2903016Y6409994D01*
X2913278Y6401003D01*
X2924657Y6393383D01*
G37*
G36*
X8899702Y6399022D02*
G01*
X8899702Y6447485D01*
X8851239Y6447485D01*
X8854490Y6440881D01*
X8862161Y6429400D01*
X8871254Y6419037D01*
X8881668Y6409944D01*
X8893098Y6402273D01*
G37*
G36*
X8992057Y6399022D02*
G01*
X8998610Y6402273D01*
X9010091Y6409944D01*
X9020505Y6419037D01*
X9029598Y6429400D01*
X9037269Y6440881D01*
X9040520Y6447485D01*
X8992057Y6447485D01*
G37*
G36*
X9153702Y6511493D02*
G01*
X9153702Y6560007D01*
X9105239Y6560007D01*
X9108490Y6553403D01*
X9116161Y6541922D01*
X9125254Y6531559D01*
X9135668Y6522415D01*
X9147098Y6514795D01*
G37*
G36*
X9246057Y6511493D02*
G01*
X9252610Y6514795D01*
X9264091Y6522415D01*
X9274505Y6531559D01*
X9283598Y6541922D01*
X9291269Y6553403D01*
X9294520Y6560007D01*
X9246057Y6560007D01*
G37*
G36*
X4650943Y7856321D02*
G01*
X4818634Y7856321D01*
X4818634Y7973415D01*
X4808474Y7972044D01*
X4788154Y7967268D01*
X4768392Y7960614D01*
X4749292Y7952181D01*
X4731054Y7942021D01*
X4713833Y7930235D01*
X4697780Y7916925D01*
X4683048Y7902194D01*
X4669739Y7886141D01*
X4657953Y7868920D01*
G37*
G36*
X2883154Y6529679D02*
G01*
X2931261Y6529679D01*
X2931261Y6577838D01*
X2924657Y6574586D01*
X2913278Y6566966D01*
X2903016Y6557975D01*
X2893974Y6547662D01*
X2886405Y6536283D01*
G37*
G36*
X3022701Y6529679D02*
G01*
X3070860Y6529679D01*
X3067608Y6536283D01*
X3059988Y6547662D01*
X3050997Y6557975D01*
X3040684Y6566966D01*
X3029305Y6574586D01*
X3022701Y6577838D01*
G37*
G36*
X8992057Y6539788D02*
G01*
X9040520Y6539788D01*
X9037269Y6546392D01*
X9029598Y6557873D01*
X9020505Y6568236D01*
X9010091Y6577380D01*
X8998610Y6585051D01*
X8992057Y6588302D01*
G37*
G36*
X8851239Y6539788D02*
G01*
X8899702Y6539788D01*
X8899702Y6588302D01*
X8893098Y6585051D01*
X8881668Y6577380D01*
X8871254Y6568236D01*
X8862161Y6557873D01*
X8854490Y6546392D01*
G37*
G36*
X893216Y6564071D02*
G01*
X902919Y6569252D01*
X920851Y6581089D01*
X937666Y6594500D01*
X953211Y6609384D01*
X967384Y6625590D01*
X980033Y6642963D01*
X991209Y6661759D01*
X893216Y6661759D01*
G37*
G36*
X666800Y6564071D02*
G01*
X666800Y6661759D01*
X568807Y6661759D01*
X579983Y6642963D01*
X592632Y6625590D01*
X606806Y6609384D01*
X622350Y6594500D01*
X639165Y6581089D01*
X657098Y6569252D01*
G37*
G36*
X3022701Y7799679D02*
G01*
X3070860Y7799679D01*
X3067608Y7806283D01*
X3059988Y7817662D01*
X3050997Y7827975D01*
X3040684Y7836966D01*
X3029305Y7844586D01*
X3022701Y7847838D01*
G37*
G36*
X2883154Y7799679D02*
G01*
X2931261Y7799679D01*
X2931261Y7847838D01*
X2924657Y7844586D01*
X2913278Y7836966D01*
X2903016Y7827975D01*
X2893974Y7817662D01*
X2886405Y7806283D01*
G37*
G36*
X2931261Y7660131D02*
G01*
X2931261Y7708239D01*
X2883154Y7708239D01*
X2886405Y7701686D01*
X2893974Y7690307D01*
X2903016Y7679994D01*
X2913278Y7671003D01*
X2924657Y7663383D01*
G37*
G36*
X262331Y6624472D02*
G01*
X268935Y6627875D01*
X283870Y6637528D01*
X297688Y6648754D01*
X310235Y6661302D01*
X321462Y6675120D01*
X331114Y6690055D01*
X334518Y6696659D01*
X262331Y6696659D01*
G37*
G36*
X3022701Y7660131D02*
G01*
X3029305Y7663383D01*
X3040684Y7671003D01*
X3050997Y7679994D01*
X3059988Y7690307D01*
X3067608Y7701686D01*
X3070860Y7708239D01*
X3022701Y7708239D01*
G37*
G36*
X3022701Y7545679D02*
G01*
X3070860Y7545679D01*
X3067608Y7552283D01*
X3059988Y7563662D01*
X3050997Y7573975D01*
X3040684Y7582966D01*
X3029305Y7590586D01*
X3022701Y7593838D01*
G37*
G36*
X3022701Y6644131D02*
G01*
X3029305Y6647383D01*
X3040684Y6655003D01*
X3050997Y6663994D01*
X3059988Y6674307D01*
X3067608Y6685686D01*
X3070860Y6692239D01*
X3022701Y6692239D01*
G37*
G36*
X2931261Y6644131D02*
G01*
X2931261Y6692239D01*
X2883154Y6692239D01*
X2886405Y6685686D01*
X2893974Y6674307D01*
X2903016Y6663994D01*
X2913278Y6655003D01*
X2924657Y6647383D01*
G37*
G36*
X9105239Y6652310D02*
G01*
X9153702Y6652310D01*
X9153702Y6700774D01*
X9147098Y6697522D01*
X9135668Y6689852D01*
X9125254Y6680758D01*
X9116161Y6670395D01*
X9108490Y6658914D01*
G37*
G36*
X9246057Y6652310D02*
G01*
X9294520Y6652310D01*
X9291269Y6658914D01*
X9283598Y6670395D01*
X9274505Y6680758D01*
X9264091Y6689852D01*
X9252610Y6697522D01*
X9246057Y6700774D01*
G37*
G36*
X2883154Y7545679D02*
G01*
X2931261Y7545679D01*
X2931261Y7593838D01*
X2924657Y7590586D01*
X2913278Y7582966D01*
X2903016Y7573975D01*
X2893974Y7563662D01*
X2886405Y7552283D01*
G37*
G36*
X4818634Y7526528D02*
G01*
X4818634Y7643622D01*
X4650943Y7643622D01*
X4657953Y7631074D01*
X4669739Y7613853D01*
X4683048Y7597800D01*
X4697780Y7583068D01*
X4713833Y7569708D01*
X4731054Y7557922D01*
X4749292Y7547762D01*
X4768392Y7539329D01*
X4788154Y7532725D01*
X4808474Y7527950D01*
G37*
G36*
X5181346Y7526528D02*
G01*
X5191506Y7527950D01*
X5211826Y7532725D01*
X5231587Y7539329D01*
X5250688Y7547762D01*
X5268925Y7557922D01*
X5286146Y7569708D01*
X5302199Y7583068D01*
X5316931Y7597800D01*
X5330240Y7613853D01*
X5342026Y7631074D01*
X5349036Y7643622D01*
X5181346Y7643622D01*
G37*
G36*
X2931261Y7406131D02*
G01*
X2931261Y7454239D01*
X2883154Y7454239D01*
X2886405Y7447686D01*
X2893974Y7436307D01*
X2903016Y7425994D01*
X2913278Y7417003D01*
X2924657Y7409383D01*
G37*
G36*
X2883154Y6783679D02*
G01*
X2931261Y6783679D01*
X2931261Y6831838D01*
X2924657Y6828586D01*
X2913278Y6820966D01*
X2903016Y6811975D01*
X2893974Y6801662D01*
X2886405Y6790283D01*
G37*
G36*
X3022701Y6783679D02*
G01*
X3070860Y6783679D01*
X3067608Y6790283D01*
X3059988Y6801662D01*
X3050997Y6811975D01*
X3040684Y6820966D01*
X3029305Y6828586D01*
X3022701Y6831838D01*
G37*
G36*
X3022701Y7406131D02*
G01*
X3029305Y7409383D01*
X3040684Y7417003D01*
X3050997Y7425994D01*
X3059988Y7436307D01*
X3067608Y7447686D01*
X3070860Y7454239D01*
X3022701Y7454239D01*
G37*
G36*
X3022701Y7291679D02*
G01*
X3070860Y7291679D01*
X3067608Y7298283D01*
X3059988Y7309662D01*
X3050997Y7319975D01*
X3040684Y7328966D01*
X3029305Y7336586D01*
X3022701Y7339838D01*
G37*
G36*
X262331Y6853326D02*
G01*
X334518Y6853326D01*
X331114Y6859930D01*
X321462Y6874865D01*
X310235Y6888683D01*
X297688Y6901230D01*
X283870Y6912457D01*
X268935Y6922109D01*
X262331Y6925513D01*
G37*
G36*
X2883154Y7291679D02*
G01*
X2931261Y7291679D01*
X2931261Y7339838D01*
X2924657Y7336586D01*
X2913278Y7328966D01*
X2903016Y7319975D01*
X2893974Y7309662D01*
X2886405Y7298283D01*
G37*
G36*
X2931261Y7152131D02*
G01*
X2931261Y7200239D01*
X2883154Y7200239D01*
X2886405Y7193686D01*
X2893974Y7182307D01*
X2903016Y7171994D01*
X2913278Y7163003D01*
X2924657Y7155383D01*
G37*
G36*
X568807Y6888225D02*
G01*
X666800Y6888225D01*
X666800Y6985914D01*
X657098Y6980732D01*
X639165Y6968896D01*
X622350Y6955485D01*
X606806Y6940600D01*
X592632Y6924395D01*
X579983Y6907022D01*
G37*
G36*
X893216Y6888225D02*
G01*
X991209Y6888225D01*
X980033Y6907022D01*
X967384Y6924395D01*
X953211Y6940600D01*
X937666Y6955485D01*
X920851Y6968896D01*
X902919Y6980732D01*
X893216Y6985914D01*
G37*
G36*
X3022701Y6898131D02*
G01*
X3029305Y6901383D01*
X3040684Y6909003D01*
X3050997Y6917994D01*
X3059988Y6928307D01*
X3067608Y6939686D01*
X3070860Y6946239D01*
X3022701Y6946239D01*
G37*
G36*
X2931261Y6898131D02*
G01*
X2931261Y6946239D01*
X2883154Y6946239D01*
X2886405Y6939686D01*
X2893974Y6928307D01*
X2903016Y6917994D01*
X2913278Y6909003D01*
X2924657Y6901383D01*
G37*
G36*
X3022701Y7152131D02*
G01*
X3029305Y7155383D01*
X3040684Y7163003D01*
X3050997Y7171994D01*
X3059988Y7182307D01*
X3067608Y7193686D01*
X3070860Y7200239D01*
X3022701Y7200239D01*
G37*
G36*
X2931261Y3376117D02*
G01*
X2931261Y3424275D01*
X2883154Y3424275D01*
X2886405Y3417671D01*
X2893974Y3406292D01*
X2903016Y3396030D01*
X2913278Y3386988D01*
X2924657Y3379368D01*
G37*

%LPD*%
G36*
X6258204Y5700623D02*
G01*
X6254292Y5701385D01*
X6250990Y5703570D01*
X6041593Y5913018D01*
X6039358Y5916320D01*
X6038596Y5920181D01*
X6038596Y8279790D01*
X6039358Y8283651D01*
X6041593Y8286953D01*
X6326987Y8572347D01*
X6330086Y8574481D01*
X6333693Y8575344D01*
X6337401Y8574786D01*
X6345885Y8571941D01*
X6359347Y8569248D01*
X6373012Y8568334D01*
X6386626Y8569248D01*
X6400088Y8571941D01*
X6413042Y8576310D01*
X6425285Y8582355D01*
X6436664Y8589975D01*
X6446977Y8599017D01*
X6455968Y8609279D01*
X6463588Y8620658D01*
X6467551Y8628684D01*
X6469786Y8631682D01*
X6472986Y8633663D01*
X6476695Y8634374D01*
X6523278Y8634374D01*
X6526987Y8633663D01*
X6530187Y8631682D01*
X6532422Y8628684D01*
X6536385Y8620658D01*
X6544005Y8609279D01*
X6552996Y8599017D01*
X6563309Y8589975D01*
X6574688Y8582355D01*
X6586931Y8576310D01*
X6599885Y8571941D01*
X6613347Y8569248D01*
X6627012Y8568334D01*
X6640626Y8569248D01*
X6654088Y8571941D01*
X6667042Y8576310D01*
X6679285Y8582355D01*
X6690664Y8589975D01*
X6700977Y8599017D01*
X6709968Y8609279D01*
X6717588Y8620658D01*
X6723634Y8632952D01*
X6728053Y8645906D01*
X6730695Y8659317D01*
X6731609Y8672982D01*
X6730695Y8686647D01*
X6728206Y8699296D01*
X6728307Y8703767D01*
X6730288Y8707729D01*
X6733844Y8710472D01*
X6738162Y8711438D01*
X9229699Y8711438D01*
X9233611Y8710676D01*
X9236913Y8708440D01*
X9658400Y8286953D01*
X9660636Y8283651D01*
X9661398Y8279739D01*
X9661398Y7320178D01*
X9660636Y7316266D01*
X9658400Y7312964D01*
X9562439Y7216952D01*
X9559239Y7214819D01*
X9555480Y7214006D01*
X9551720Y7214616D01*
X9548418Y7216597D01*
X9546132Y7219645D01*
X9545269Y7221423D01*
X9537598Y7232903D01*
X9528505Y7243267D01*
X9518091Y7252360D01*
X9506610Y7260031D01*
X9494266Y7266127D01*
X9481210Y7270546D01*
X9478111Y7271207D01*
X9474454Y7272680D01*
X9471609Y7275525D01*
X9470136Y7279182D01*
X9470136Y7283145D01*
X9471609Y7286802D01*
X9474454Y7289596D01*
X9478111Y7291120D01*
X9481210Y7291730D01*
X9494266Y7296150D01*
X9506610Y7302246D01*
X9518091Y7309916D01*
X9528505Y7319060D01*
X9537598Y7329424D01*
X9545269Y7340904D01*
X9551365Y7353249D01*
X9555784Y7366355D01*
X9558477Y7379868D01*
X9559391Y7393635D01*
X9558477Y7407402D01*
X9555784Y7420965D01*
X9551365Y7434021D01*
X9545269Y7446416D01*
X9537598Y7457897D01*
X9528505Y7468260D01*
X9518091Y7477353D01*
X9506610Y7485024D01*
X9494266Y7491120D01*
X9481210Y7495590D01*
X9467646Y7498283D01*
X9453880Y7499146D01*
X9440113Y7498283D01*
X9426549Y7495590D01*
X9413494Y7491120D01*
X9401098Y7485024D01*
X9389668Y7477353D01*
X9380575Y7469378D01*
X9377222Y7467447D01*
X9373412Y7466888D01*
X9369653Y7467803D01*
X9366554Y7470038D01*
X9364421Y7473238D01*
X9363710Y7477048D01*
X9363710Y7624572D01*
X9362897Y7632598D01*
X9360712Y7639812D01*
X9357156Y7646517D01*
X9352076Y7652715D01*
X9277502Y7726984D01*
X9271355Y7732064D01*
X9264650Y7735620D01*
X9257436Y7737805D01*
X9249410Y7738618D01*
X6692392Y7738618D01*
X6684365Y7737805D01*
X6678726Y7736128D01*
X6674967Y7735722D01*
X6671309Y7736687D01*
X6668312Y7738922D01*
X6666280Y7742123D01*
X6665620Y7745831D01*
X6665620Y8304174D01*
X6666382Y8308086D01*
X6668566Y8311337D01*
X6671868Y8313572D01*
X6675780Y8314334D01*
X6705142Y8314334D01*
X6711492Y8315045D01*
X6716928Y8316975D01*
X6721856Y8320024D01*
X6725920Y8324138D01*
X6729018Y8329015D01*
X6730898Y8334502D01*
X6731660Y8340801D01*
X6731660Y8497163D01*
X6730898Y8503462D01*
X6729018Y8508949D01*
X6725920Y8513826D01*
X6721856Y8517940D01*
X6716928Y8520988D01*
X6711492Y8522919D01*
X6705142Y8523630D01*
X6548831Y8523630D01*
X6542481Y8522919D01*
X6537045Y8520988D01*
X6532118Y8517940D01*
X6528054Y8513826D01*
X6524955Y8508949D01*
X6523075Y8503462D01*
X6522364Y8497163D01*
X6522364Y8467750D01*
X6521551Y8463838D01*
X6519367Y8460587D01*
X6516065Y8458352D01*
X6512204Y8457590D01*
X6476695Y8457590D01*
X6472986Y8458301D01*
X6469786Y8460282D01*
X6467551Y8463280D01*
X6463588Y8471306D01*
X6455968Y8482685D01*
X6446977Y8492947D01*
X6436664Y8501989D01*
X6425285Y8509609D01*
X6413042Y8515654D01*
X6400088Y8520023D01*
X6386626Y8522716D01*
X6373012Y8523630D01*
X6359347Y8522716D01*
X6345885Y8520023D01*
X6332931Y8515654D01*
X6320688Y8509609D01*
X6309309Y8501989D01*
X6298996Y8492947D01*
X6290005Y8482685D01*
X6282385Y8471306D01*
X6276340Y8459012D01*
X6271920Y8446058D01*
X6269278Y8432647D01*
X6268364Y8418982D01*
X6269278Y8405317D01*
X6271920Y8391906D01*
X6276340Y8378952D01*
X6282385Y8366658D01*
X6290005Y8355279D01*
X6298996Y8345017D01*
X6309309Y8335975D01*
X6320688Y8328355D01*
X6332931Y8322309D01*
X6345885Y8317941D01*
X6359347Y8315248D01*
X6373012Y8314334D01*
X6386626Y8315248D01*
X6400088Y8317941D01*
X6413042Y8322309D01*
X6425285Y8328355D01*
X6436664Y8335975D01*
X6446977Y8345017D01*
X6455968Y8355279D01*
X6463588Y8366658D01*
X6467551Y8374684D01*
X6469786Y8377681D01*
X6472986Y8379663D01*
X6476695Y8380374D01*
X6512204Y8380374D01*
X6516065Y8379612D01*
X6519367Y8377377D01*
X6521551Y8374125D01*
X6522364Y8370214D01*
X6522364Y8340801D01*
X6523075Y8334502D01*
X6524955Y8329015D01*
X6528054Y8324138D01*
X6532118Y8320024D01*
X6537045Y8316975D01*
X6542481Y8315045D01*
X6548831Y8314334D01*
X6578244Y8314334D01*
X6582105Y8313572D01*
X6585407Y8311337D01*
X6587591Y8308086D01*
X6588404Y8304174D01*
X6588404Y7738668D01*
X6587693Y7735011D01*
X6585712Y7731810D01*
X6582714Y7729575D01*
X6574688Y7725613D01*
X6563309Y7717993D01*
X6552996Y7708950D01*
X6544005Y7698689D01*
X6536385Y7687309D01*
X6532422Y7679283D01*
X6530187Y7676286D01*
X6526987Y7674305D01*
X6523278Y7673594D01*
X6487820Y7673594D01*
X6483908Y7674356D01*
X6480606Y7676591D01*
X6478422Y7679842D01*
X6477660Y7683753D01*
X6477660Y7713167D01*
X6476898Y7719466D01*
X6475018Y7724952D01*
X6471920Y7729829D01*
X6467856Y7733944D01*
X6462928Y7736992D01*
X6457492Y7738922D01*
X6451142Y7739634D01*
X6294831Y7739634D01*
X6288481Y7738922D01*
X6283045Y7736992D01*
X6278118Y7733944D01*
X6274054Y7729829D01*
X6270955Y7724952D01*
X6269075Y7719466D01*
X6268364Y7713167D01*
X6268364Y7556804D01*
X6269075Y7550505D01*
X6270955Y7545019D01*
X6274054Y7540142D01*
X6278118Y7536027D01*
X6283045Y7532979D01*
X6288481Y7531049D01*
X6294831Y7530338D01*
X6451142Y7530338D01*
X6457492Y7531049D01*
X6462928Y7532979D01*
X6467856Y7536027D01*
X6471920Y7540142D01*
X6475018Y7545019D01*
X6476898Y7550505D01*
X6477660Y7556804D01*
X6477660Y7586218D01*
X6478422Y7590129D01*
X6480606Y7593380D01*
X6483908Y7595616D01*
X6487820Y7596378D01*
X6523278Y7596378D01*
X6526987Y7595666D01*
X6530187Y7593685D01*
X6532422Y7590688D01*
X6536385Y7582662D01*
X6544005Y7571282D01*
X6552996Y7561021D01*
X6563309Y7551978D01*
X6574688Y7544358D01*
X6586931Y7538313D01*
X6599885Y7533944D01*
X6613347Y7531252D01*
X6627012Y7530338D01*
X6640626Y7531252D01*
X6654088Y7533944D01*
X6667042Y7538313D01*
X6679285Y7544358D01*
X6690664Y7551978D01*
X6700977Y7561021D01*
X6709968Y7571282D01*
X6717588Y7582662D01*
X6723634Y7594955D01*
X6728053Y7607909D01*
X6730695Y7621320D01*
X6731609Y7634986D01*
X6730593Y7649260D01*
X6730695Y7653731D01*
X6732727Y7657693D01*
X6736232Y7660436D01*
X6740550Y7661402D01*
X9229750Y7661402D01*
X9233662Y7660640D01*
X9236913Y7658455D01*
X9283496Y7612024D01*
X9285732Y7608722D01*
X9286494Y7604810D01*
X9286494Y7592669D01*
X9285782Y7588859D01*
X9283649Y7585608D01*
X9280550Y7583373D01*
X9276791Y7582509D01*
X9272981Y7583068D01*
X9269628Y7584998D01*
X9264091Y7589875D01*
X9252610Y7597546D01*
X9240266Y7603642D01*
X9227210Y7608062D01*
X9213646Y7610754D01*
X9199880Y7611668D01*
X9186113Y7610754D01*
X9172549Y7608062D01*
X9159494Y7603642D01*
X9147098Y7597546D01*
X9135668Y7589875D01*
X9125254Y7580782D01*
X9116161Y7570368D01*
X9108490Y7558887D01*
X9104325Y7550454D01*
X9102090Y7547457D01*
X9098889Y7545476D01*
X9095232Y7544765D01*
X6752640Y7544765D01*
X6744614Y7543952D01*
X6737400Y7541768D01*
X6730746Y7538212D01*
X6724497Y7533081D01*
X6672986Y7481620D01*
X6669887Y7479487D01*
X6666280Y7478623D01*
X6662572Y7479182D01*
X6654088Y7482027D01*
X6640626Y7484719D01*
X6627012Y7485634D01*
X6613347Y7484719D01*
X6599885Y7482027D01*
X6586931Y7477658D01*
X6574688Y7471613D01*
X6563309Y7463993D01*
X6552996Y7454950D01*
X6544005Y7444689D01*
X6536385Y7433309D01*
X6530340Y7421016D01*
X6525920Y7408062D01*
X6523278Y7394651D01*
X6522364Y7380986D01*
X6523278Y7367320D01*
X6525920Y7353909D01*
X6530340Y7340955D01*
X6536385Y7328662D01*
X6544005Y7317282D01*
X6552996Y7307021D01*
X6556146Y7303160D01*
X6557162Y7299198D01*
X6556502Y7295184D01*
X6554368Y7291730D01*
X6551015Y7289393D01*
X6547002Y7288580D01*
X6524193Y7288580D01*
X6520281Y7289342D01*
X6516979Y7291578D01*
X6473596Y7334961D01*
X6471513Y7338059D01*
X6470650Y7341717D01*
X6471158Y7345425D01*
X6474053Y7353909D01*
X6476695Y7367320D01*
X6477609Y7380986D01*
X6476695Y7394651D01*
X6474053Y7408062D01*
X6469634Y7421016D01*
X6463588Y7433309D01*
X6455968Y7444689D01*
X6446977Y7454950D01*
X6436664Y7463993D01*
X6425285Y7471613D01*
X6413042Y7477658D01*
X6400088Y7482027D01*
X6386626Y7484719D01*
X6373012Y7485634D01*
X6359347Y7484719D01*
X6345885Y7482027D01*
X6332931Y7477658D01*
X6320688Y7471613D01*
X6309309Y7463993D01*
X6298996Y7454950D01*
X6290005Y7444689D01*
X6282385Y7433309D01*
X6276340Y7421016D01*
X6271920Y7408062D01*
X6269278Y7394651D01*
X6268364Y7380986D01*
X6269278Y7367320D01*
X6271920Y7353909D01*
X6276340Y7340955D01*
X6282385Y7328662D01*
X6290005Y7317282D01*
X6298996Y7307021D01*
X6309309Y7297978D01*
X6320688Y7290358D01*
X6332931Y7284313D01*
X6345885Y7279944D01*
X6359347Y7277252D01*
X6373012Y7276338D01*
X6386626Y7277252D01*
X6400088Y7279944D01*
X6408572Y7282789D01*
X6412280Y7283348D01*
X6415887Y7282484D01*
X6418986Y7280351D01*
X6476339Y7223048D01*
X6482588Y7217918D01*
X6489242Y7214362D01*
X6496456Y7212177D01*
X6504482Y7211364D01*
X6539687Y7211364D01*
X6543497Y7210653D01*
X6546748Y7208570D01*
X6548983Y7205421D01*
X6549847Y7201662D01*
X6549288Y7197852D01*
X6547357Y7194499D01*
X6544005Y7190689D01*
X6536385Y7179309D01*
X6530340Y7167016D01*
X6525920Y7154062D01*
X6523278Y7140651D01*
X6522364Y7126986D01*
X6523278Y7113320D01*
X6525920Y7099909D01*
X6530340Y7086955D01*
X6536385Y7074662D01*
X6544005Y7063282D01*
X6550863Y7055459D01*
X6552793Y7052106D01*
X6553352Y7048296D01*
X6552488Y7044537D01*
X6550253Y7041438D01*
X6547002Y7039305D01*
X6543243Y7038594D01*
X6520180Y7038594D01*
X6516319Y7039356D01*
X6513017Y7041591D01*
X6473596Y7080961D01*
X6471513Y7084059D01*
X6470650Y7087717D01*
X6471158Y7091425D01*
X6474053Y7099909D01*
X6476695Y7113320D01*
X6477609Y7126986D01*
X6476695Y7140651D01*
X6474053Y7154062D01*
X6469634Y7167016D01*
X6463588Y7179309D01*
X6455968Y7190689D01*
X6446977Y7200950D01*
X6436664Y7209993D01*
X6425285Y7217613D01*
X6413042Y7223658D01*
X6400088Y7228027D01*
X6386626Y7230719D01*
X6373012Y7231634D01*
X6359347Y7230719D01*
X6345885Y7228027D01*
X6332931Y7223658D01*
X6320688Y7217613D01*
X6309309Y7209993D01*
X6298996Y7200950D01*
X6290005Y7190689D01*
X6282385Y7179309D01*
X6276340Y7167016D01*
X6271920Y7154062D01*
X6269278Y7140651D01*
X6268364Y7126986D01*
X6269278Y7113320D01*
X6271920Y7099909D01*
X6276340Y7086955D01*
X6282385Y7074662D01*
X6290005Y7063282D01*
X6298996Y7053021D01*
X6309309Y7043978D01*
X6320688Y7036358D01*
X6332931Y7030313D01*
X6345885Y7025944D01*
X6359347Y7023252D01*
X6373012Y7022338D01*
X6386626Y7023252D01*
X6400088Y7025944D01*
X6408572Y7028789D01*
X6412280Y7029348D01*
X6415887Y7028484D01*
X6418986Y7026351D01*
X6472326Y6973062D01*
X6478574Y6967931D01*
X6485229Y6964375D01*
X6492443Y6962190D01*
X6500469Y6961378D01*
X6543243Y6961378D01*
X6547002Y6960666D01*
X6550253Y6958533D01*
X6552488Y6955434D01*
X6553352Y6951675D01*
X6552793Y6947865D01*
X6550863Y6944512D01*
X6544005Y6936689D01*
X6536385Y6925309D01*
X6530340Y6913016D01*
X6525920Y6900062D01*
X6523278Y6886651D01*
X6522364Y6872986D01*
X6523278Y6859320D01*
X6525920Y6845909D01*
X6530340Y6832955D01*
X6536385Y6820662D01*
X6544005Y6809282D01*
X6547357Y6805472D01*
X6549288Y6802120D01*
X6549847Y6798309D01*
X6548983Y6794550D01*
X6546748Y6791401D01*
X6543497Y6789318D01*
X6539687Y6788607D01*
X6516166Y6788607D01*
X6512306Y6789369D01*
X6509004Y6791553D01*
X6473596Y6826961D01*
X6471513Y6830059D01*
X6470650Y6833717D01*
X6471158Y6837425D01*
X6474053Y6845909D01*
X6476695Y6859320D01*
X6477609Y6872986D01*
X6476695Y6886651D01*
X6474053Y6900062D01*
X6469634Y6913016D01*
X6463588Y6925309D01*
X6455968Y6936689D01*
X6446977Y6946950D01*
X6436664Y6955993D01*
X6425285Y6963613D01*
X6413042Y6969658D01*
X6400088Y6974027D01*
X6386626Y6976719D01*
X6373012Y6977634D01*
X6359347Y6976719D01*
X6345885Y6974027D01*
X6332931Y6969658D01*
X6320688Y6963613D01*
X6309309Y6955993D01*
X6298996Y6946950D01*
X6290005Y6936689D01*
X6282385Y6925309D01*
X6276340Y6913016D01*
X6271920Y6900062D01*
X6269278Y6886651D01*
X6268364Y6872986D01*
X6269278Y6859320D01*
X6271920Y6845909D01*
X6276340Y6832955D01*
X6282385Y6820662D01*
X6290005Y6809282D01*
X6298996Y6799021D01*
X6309309Y6789978D01*
X6320688Y6782358D01*
X6332931Y6776313D01*
X6345885Y6771944D01*
X6359347Y6769252D01*
X6373012Y6768338D01*
X6386626Y6769252D01*
X6400088Y6771944D01*
X6408572Y6774789D01*
X6412280Y6775348D01*
X6415887Y6774484D01*
X6418986Y6772351D01*
X6468313Y6723024D01*
X6474561Y6717944D01*
X6481216Y6714337D01*
X6488480Y6712153D01*
X6496507Y6711391D01*
X6547002Y6711391D01*
X6551015Y6710578D01*
X6554368Y6708241D01*
X6556502Y6704787D01*
X6557162Y6700774D01*
X6556146Y6696811D01*
X6552996Y6692950D01*
X6544005Y6682689D01*
X6536385Y6671309D01*
X6530340Y6659016D01*
X6525920Y6646062D01*
X6523278Y6632651D01*
X6522364Y6618986D01*
X6523278Y6605320D01*
X6525920Y6591909D01*
X6530340Y6578955D01*
X6536385Y6566662D01*
X6544005Y6555282D01*
X6552996Y6545021D01*
X6563309Y6535978D01*
X6574688Y6528358D01*
X6586931Y6522313D01*
X6599885Y6517944D01*
X6613347Y6515252D01*
X6627012Y6514338D01*
X6640626Y6515252D01*
X6654088Y6517944D01*
X6667042Y6522313D01*
X6679285Y6528358D01*
X6690664Y6535978D01*
X6700977Y6545021D01*
X6709968Y6555282D01*
X6717588Y6566662D01*
X6723634Y6578955D01*
X6728053Y6591909D01*
X6730695Y6605320D01*
X6731609Y6618986D01*
X6730695Y6632651D01*
X6728053Y6646062D01*
X6723634Y6659016D01*
X6717588Y6671309D01*
X6709968Y6682689D01*
X6700977Y6692950D01*
X6697827Y6696811D01*
X6696811Y6700774D01*
X6697472Y6704787D01*
X6699656Y6708241D01*
X6702958Y6710578D01*
X6706971Y6711391D01*
X6749491Y6711391D01*
X6757517Y6712153D01*
X6764731Y6714337D01*
X6771386Y6717944D01*
X6777634Y6723024D01*
X6956653Y6902043D01*
X6959955Y6904278D01*
X6963867Y6905040D01*
X8841181Y6905040D01*
X8844889Y6904329D01*
X8848090Y6902348D01*
X8850325Y6899351D01*
X8854490Y6890867D01*
X8862161Y6879437D01*
X8871254Y6869023D01*
X8881668Y6859930D01*
X8893098Y6852259D01*
X8905494Y6846163D01*
X8918549Y6841744D01*
X8921648Y6841134D01*
X8925306Y6839610D01*
X8928150Y6836816D01*
X8929624Y6833108D01*
X8929624Y6829145D01*
X8928150Y6825488D01*
X8925306Y6822694D01*
X8921648Y6821170D01*
X8918549Y6820560D01*
X8905494Y6816140D01*
X8893098Y6810044D01*
X8881668Y6802374D01*
X8871254Y6793280D01*
X8862161Y6782866D01*
X8854490Y6771386D01*
X8850325Y6762953D01*
X8848090Y6759956D01*
X8844889Y6757974D01*
X8841232Y6757263D01*
X8719159Y6757263D01*
X8711133Y6756450D01*
X8703919Y6754266D01*
X8697214Y6750710D01*
X8691016Y6745579D01*
X7986979Y6041593D01*
X7983677Y6039358D01*
X7979765Y6038596D01*
X6600494Y6038596D01*
X6592468Y6037783D01*
X6585254Y6035598D01*
X6578549Y6032042D01*
X6572351Y6026912D01*
X6473037Y5927648D01*
X6467906Y5921400D01*
X6464350Y5914745D01*
X6462166Y5907532D01*
X6461404Y5899505D01*
X6461404Y5895797D01*
X6460591Y5891885D01*
X6458407Y5888634D01*
X6455105Y5886399D01*
X6451244Y5885637D01*
X6294831Y5885637D01*
X6288481Y5884926D01*
X6283045Y5882995D01*
X6278118Y5879947D01*
X6274054Y5875832D01*
X6270955Y5870956D01*
X6269075Y5865469D01*
X6268364Y5859170D01*
X6268364Y5710783D01*
X6267551Y5706872D01*
X6265367Y5703570D01*
X6262065Y5701385D01*
G37*

%LPC*%
G36*
X6672732Y6410706D02*
G01*
X6720840Y6410706D01*
X6717588Y6417310D01*
X6709968Y6428689D01*
X6700977Y6438950D01*
X6690664Y6447993D01*
X6679285Y6455613D01*
X6672732Y6458864D01*
G37*
G36*
X9103563Y8068259D02*
G01*
X9103563Y8153603D01*
X9018168Y8153603D01*
X9025026Y8141309D01*
X9036304Y8124901D01*
X9049156Y8109712D01*
X9063380Y8095843D01*
X9078874Y8083346D01*
X9095536Y8072475D01*
G37*
G36*
X9018117Y8346236D02*
G01*
X9103563Y8346236D01*
X9103563Y8431784D01*
X9087053Y8422081D01*
X9070949Y8410397D01*
X9056065Y8397240D01*
X9042552Y8382660D01*
X9030462Y8366861D01*
X9019946Y8349945D01*
G37*
G36*
X6373012Y6514338D02*
G01*
X6386626Y6515252D01*
X6400088Y6517944D01*
X6413042Y6522313D01*
X6425285Y6528358D01*
X6436664Y6535978D01*
X6446977Y6545021D01*
X6455968Y6555282D01*
X6463588Y6566662D01*
X6469634Y6578955D01*
X6474053Y6591909D01*
X6476695Y6605320D01*
X6477609Y6618986D01*
X6476695Y6632651D01*
X6474053Y6646062D01*
X6469634Y6659016D01*
X6463588Y6671309D01*
X6455968Y6682689D01*
X6446977Y6692950D01*
X6436664Y6701993D01*
X6425285Y6709613D01*
X6413042Y6715658D01*
X6400088Y6720027D01*
X6386626Y6722719D01*
X6373012Y6723634D01*
X6359347Y6722719D01*
X6345885Y6720027D01*
X6332931Y6715658D01*
X6320688Y6709613D01*
X6309309Y6701993D01*
X6298996Y6692950D01*
X6290005Y6682689D01*
X6282385Y6671309D01*
X6276340Y6659016D01*
X6271920Y6646062D01*
X6269278Y6632651D01*
X6268364Y6618986D01*
X6269278Y6605320D01*
X6271920Y6591909D01*
X6276340Y6578955D01*
X6282385Y6566662D01*
X6290005Y6555282D01*
X6298996Y6545021D01*
X6309309Y6535978D01*
X6320688Y6528358D01*
X6332931Y6522313D01*
X6345885Y6517944D01*
X6359347Y6515252D01*
G37*
G36*
X9296196Y8068259D02*
G01*
X9304223Y8072475D01*
X9320885Y8083346D01*
X9336379Y8095843D01*
X9350603Y8109712D01*
X9363456Y8124901D01*
X9374733Y8141309D01*
X9381591Y8153603D01*
X9296196Y8153603D01*
G37*
G36*
X9296196Y8346236D02*
G01*
X9381642Y8346236D01*
X9379762Y8349945D01*
X9369298Y8366861D01*
X9357207Y8382660D01*
X9343694Y8397240D01*
X9328759Y8410397D01*
X9312706Y8422081D01*
X9296196Y8431784D01*
G37*
G36*
X6672732Y6271107D02*
G01*
X6679285Y6274358D01*
X6690664Y6281978D01*
X6700977Y6291021D01*
X6709968Y6301282D01*
X6717588Y6312662D01*
X6720840Y6319266D01*
X6672732Y6319266D01*
G37*
G36*
X6418732Y6271107D02*
G01*
X6425285Y6274358D01*
X6436664Y6281978D01*
X6446977Y6291021D01*
X6455968Y6301282D01*
X6463588Y6312662D01*
X6466840Y6319266D01*
X6418732Y6319266D01*
G37*
G36*
X6581292Y6271107D02*
G01*
X6581292Y6319266D01*
X6533134Y6319266D01*
X6536385Y6312662D01*
X6544005Y6301282D01*
X6552996Y6291021D01*
X6563309Y6281978D01*
X6574688Y6274358D01*
G37*
G36*
X6327292Y6271107D02*
G01*
X6327292Y6319266D01*
X6279134Y6319266D01*
X6282385Y6312662D01*
X6290005Y6301282D01*
X6298996Y6291021D01*
X6309309Y6281978D01*
X6320688Y6274358D01*
G37*
G36*
X6533134Y6410706D02*
G01*
X6581292Y6410706D01*
X6581292Y6458864D01*
X6574688Y6455613D01*
X6563309Y6447993D01*
X6552996Y6438950D01*
X6544005Y6428689D01*
X6536385Y6417310D01*
G37*
G36*
X6279134Y6410706D02*
G01*
X6327292Y6410706D01*
X6327292Y6458864D01*
X6320688Y6455613D01*
X6309309Y6447993D01*
X6298996Y6438950D01*
X6290005Y6428689D01*
X6282385Y6417310D01*
G37*
G36*
X6418732Y6410706D02*
G01*
X6466840Y6410706D01*
X6463588Y6417310D01*
X6455968Y6428689D01*
X6446977Y6438950D01*
X6436664Y6447993D01*
X6425285Y6455613D01*
X6418732Y6458864D01*
G37*

%LPD*%
D10*
X856005Y7049998D02*
G01*
X1394980Y7049998D01*
X2722994Y5721985D01*
X856005Y7149998D02*
G01*
X1548980Y7149998D01*
X2722994Y5975985D01*
X856005Y7199985D02*
G01*
X1752993Y7199985D01*
X2722994Y6229985D01*
X856005Y7299985D02*
G01*
X1906993Y7299985D01*
X2722994Y6483985D01*
X856005Y7349972D02*
G01*
X2111006Y7349972D01*
X2722994Y6737985D01*
X856005Y7449972D02*
G01*
X2265006Y7449972D01*
X2722994Y6991985D01*
X856005Y7499985D02*
G01*
X2468994Y7499985D01*
X2722994Y7245985D01*
X856005Y7599984D02*
G01*
X2622994Y7599984D01*
X2722994Y7499985D01*
X856005Y7949971D02*
G01*
X1648980Y7949971D01*
X2722994Y9023985D01*
X856005Y7899984D02*
G01*
X1852993Y7899984D01*
X2722994Y8769985D01*
X856005Y7799984D02*
G01*
X2006993Y7799984D01*
X2722994Y8515985D01*
X856005Y7749971D02*
G01*
X2210981Y7749971D01*
X2722994Y8261985D01*
X856005Y7649997D02*
G01*
X2619006Y7649997D01*
X2722994Y7753985D01*
X856005Y7699984D02*
G01*
X2414993Y7699984D01*
X2722994Y8007985D01*
X2722879Y3723894D02*
G01*
X2722994Y3977995D01*
X1359992Y2599994D02*
G01*
X1598993Y2599994D01*
X2722994Y3723995D01*
X1359992Y2499995D02*
G01*
X1752993Y2499995D01*
X2722994Y3469995D01*
X1359992Y2449982D02*
G01*
X1956981Y2449982D01*
X2722994Y3215995D01*
X1359992Y2350007D02*
G01*
X2111006Y2350007D01*
X2722994Y2961995D01*
X1359992Y2250008D02*
G01*
X2519006Y2250008D01*
X2722994Y2453995D01*
X1359992Y2299995D02*
G01*
X2314994Y2299995D01*
X2722994Y2707995D01*
X1359992Y1649984D02*
G01*
X1495005Y1649984D01*
X2722994Y421995D01*
X1359992Y1750009D02*
G01*
X1648980Y1750009D01*
X2722994Y675995D01*
X1359992Y1799996D02*
G01*
X1852993Y1799996D01*
X2722994Y929995D01*
X1359992Y1899996D02*
G01*
X2006993Y1899996D01*
X2722994Y1183995D01*
X1359992Y1950008D02*
G01*
X2210981Y1950008D01*
X2722994Y1437995D01*
X1359992Y2049983D02*
G01*
X2365006Y2049983D01*
X2722994Y1691995D01*
X1359992Y2199995D02*
G01*
X2722994Y2199995D01*
X1359992Y2099995D02*
G01*
X2568994Y2099995D01*
X2722994Y1945995D01*
X1099997Y1699996D02*
G01*
X1359992Y1699996D01*
X1359992Y1850009D02*
G01*
X1100010Y1850009D01*
X1099997Y1999995D02*
G01*
X1359992Y1999995D01*
X1099997Y2149995D02*
G01*
X1359979Y2149995D01*
X1099997Y2399995D02*
G01*
X1359992Y2399995D01*
X1099997Y2549994D02*
G01*
X1359979Y2549994D01*
X599998Y7849984D02*
G01*
X856005Y7849971D01*
X599998Y7549984D02*
G01*
X856005Y7549997D01*
X599998Y7399985D02*
G01*
X856005Y7399985D01*
X599998Y7249985D02*
G01*
X856005Y7249998D01*
X599998Y7099985D02*
G01*
X856005Y7099985D01*
X6372986Y8418982D02*
G01*
X6626986Y8418982D01*
X6372986Y8672982D02*
G01*
X6626986Y8672982D01*
X6372986Y8926982D02*
G01*
X6626986Y8926982D01*
X6372986Y9180982D02*
G01*
X6626986Y9180982D01*
X6626859Y8927084D02*
G01*
X6704075Y8849868D01*
X9349993Y8849868D01*
X9800081Y8400034D01*
X9800081Y6800087D01*
X9493758Y6493763D01*
X9453879Y6493763D01*
X6626859Y8673084D02*
G01*
X6704075Y8750045D01*
X9249918Y8750045D01*
X9700006Y8299958D01*
X9700006Y7299960D01*
X9568688Y7168642D01*
X9453879Y7168642D01*
X6626986Y7380986D02*
G01*
X6752158Y7506157D01*
X9199879Y7506157D01*
X6372986Y6872986D02*
G01*
X6495986Y6749986D01*
X6749986Y6749986D01*
X6943648Y6943648D01*
X8945879Y6943648D01*
X6626859Y6872986D02*
G01*
X6772909Y6872986D01*
X6956043Y7056120D01*
X9199879Y7056120D01*
X6372986Y7126986D02*
G01*
X6499986Y6999986D01*
X6749986Y6999986D01*
X6918642Y7168642D01*
X8945879Y7168642D01*
X6626859Y7126986D02*
G01*
X6726936Y7126986D01*
X6881113Y7281163D01*
X9199879Y7281163D01*
X6372986Y7380986D02*
G01*
X6503987Y7249985D01*
X6699986Y7249985D01*
X6849986Y7399985D01*
X6856310Y7393660D01*
X8945879Y7393660D01*
X6372986Y6364986D02*
G01*
X6626986Y6364986D01*
X6626986Y5018989D02*
G01*
X6626986Y5780989D01*
X6372986Y5018989D02*
G01*
X6591985Y4799990D01*
X9099981Y4799990D01*
X9453879Y5153888D01*
X9453879Y6493662D01*
X6372986Y5272989D02*
G01*
X6499986Y5399989D01*
X6499986Y5899988D01*
X6599986Y5999987D01*
X7999984Y5999987D01*
X8718651Y6718655D01*
X8945879Y6718655D01*
X6372986Y5526989D02*
G01*
X5999988Y5899988D01*
X5999988Y8299983D01*
X6372986Y8672982D01*
X6372986Y7634986D02*
G01*
X6626986Y7634986D01*
X6626986Y7634986D02*
G01*
X6626986Y8418982D01*
X9199879Y6831076D02*
G01*
X9325102Y6956297D01*
X9325102Y7625079D01*
X6626859Y7634986D02*
G01*
X6691884Y7700010D01*
X9249918Y7700010D01*
X9325102Y7625079D01*
X9199879Y5749899D02*
G01*
X8945879Y6003899D01*
X8945879Y6493662D01*
X8945879Y6493662D02*
G01*
X9058376Y6606159D01*
X9199879Y6606159D01*
D11*
G01*
X856005Y7049998D03*
G01*
X856005Y7099985D03*
G01*
X856005Y7149998D03*
G01*
X856005Y7199985D03*
G01*
X856005Y7249998D03*
G01*
X856005Y7299985D03*
G01*
X856005Y7349972D03*
G01*
X856005Y7399985D03*
G01*
X856005Y7449972D03*
G01*
X856005Y7499985D03*
G01*
X856005Y7549997D03*
G01*
X856005Y7599984D03*
G01*
X856005Y7649997D03*
G01*
X856005Y7699984D03*
G01*
X856005Y7749971D03*
G01*
X856005Y7799984D03*
G01*
X856005Y7849971D03*
G01*
X856005Y7899984D03*
G01*
X856005Y7949971D03*
D12*
G01*
X1360004Y1649996D03*
D13*
G01*
X1360004Y1699996D03*
D12*
G01*
X1360004Y1749996D03*
D13*
G01*
X1360004Y1799996D03*
D12*
G01*
X1360004Y1849996D03*
D13*
G01*
X1360004Y1899996D03*
D12*
G01*
X1360004Y1949996D03*
D13*
G01*
X1360004Y1999996D03*
D12*
G01*
X1360004Y2049995D03*
D13*
G01*
X1360004Y2099995D03*
D12*
G01*
X1360004Y2149995D03*
D13*
G01*
X1360004Y2199995D03*
D12*
G01*
X1360004Y2249995D03*
D13*
G01*
X1360004Y2299995D03*
D12*
G01*
X1360004Y2349995D03*
D13*
G01*
X1360004Y2399995D03*
D12*
G01*
X1360004Y2449995D03*
D13*
G01*
X1360004Y2499994D03*
D12*
G01*
X1360004Y2549994D03*
D13*
G01*
X1360004Y2599994D03*
D14*
G01*
X9199879Y5749899D03*
G01*
X9199879Y8249920D03*
D15*
G01*
X8945879Y6493662D03*
G01*
X8945879Y6718655D03*
G01*
X8945879Y6943648D03*
G01*
X8945879Y7168642D03*
G01*
X8945879Y7393660D03*
G01*
X9199879Y6606159D03*
G01*
X9199879Y6831152D03*
G01*
X9199879Y7056145D03*
G01*
X9199879Y7281138D03*
G01*
X9199879Y7506157D03*
G01*
X9453879Y6493662D03*
G01*
X9453879Y6718655D03*
G01*
X9453879Y6943648D03*
G01*
X9453879Y7168642D03*
G01*
X9453879Y7393660D03*
D16*
G01*
X6626986Y6364986D03*
G01*
X6372986Y6364986D03*
G01*
X6626986Y6618986D03*
G01*
X6372986Y6618986D03*
G01*
X6626986Y6872986D03*
G01*
X6372986Y6872986D03*
G01*
X6626986Y7126986D03*
G01*
X6372986Y7126986D03*
G01*
X6626986Y7380986D03*
G01*
X6372986Y7380986D03*
G01*
X6626986Y7634986D03*
D17*
G01*
X6372986Y7634986D03*
G01*
X6372986Y5780989D03*
D16*
G01*
X6626986Y5780989D03*
G01*
X6372986Y5526989D03*
G01*
X6626986Y5526989D03*
G01*
X6372986Y5272989D03*
G01*
X6626986Y5272989D03*
G01*
X6372986Y5018989D03*
G01*
X6626986Y5018989D03*
D17*
G01*
X6626986Y8418982D03*
D16*
G01*
X6372986Y8418982D03*
G01*
X6626986Y8672982D03*
G01*
X6372986Y8672982D03*
G01*
X6626986Y8926982D03*
G01*
X6372986Y8926982D03*
G01*
X6626986Y9180982D03*
G01*
X6372986Y9180982D03*
D18*
G01*
X780008Y6774992D03*
G01*
X780008Y8224977D03*
D19*
G01*
X183997Y6774992D03*
G01*
X183997Y8224977D03*
D17*
G01*
X2977006Y5721985D03*
D16*
G01*
X2723006Y5721985D03*
G01*
X2977006Y5975985D03*
G01*
X2723006Y5975985D03*
G01*
X2977006Y6229985D03*
G01*
X2723006Y6229985D03*
G01*
X2977006Y6483985D03*
G01*
X2723006Y6483985D03*
G01*
X2977006Y6737985D03*
G01*
X2723006Y6737985D03*
G01*
X2977006Y6991985D03*
G01*
X2723006Y6991985D03*
G01*
X2977006Y7245985D03*
G01*
X2723006Y7245985D03*
G01*
X2977006Y7499985D03*
G01*
X2723006Y7499985D03*
G01*
X2977006Y7753985D03*
G01*
X2723006Y7753985D03*
G01*
X2977006Y8007985D03*
G01*
X2723006Y8007985D03*
G01*
X2977006Y8261985D03*
G01*
X2723006Y8261985D03*
G01*
X2977006Y8515985D03*
G01*
X2723006Y8515985D03*
G01*
X2977006Y8769985D03*
G01*
X2723006Y8769985D03*
G01*
X2977006Y9023985D03*
G01*
X2723006Y9023985D03*
G01*
X2977006Y9277985D03*
G01*
X2723006Y9277985D03*
D20*
G01*
X1099997Y3024987D03*
G01*
X1099997Y1375003D03*
D21*
G01*
X421995Y3024987D03*
G01*
X421995Y1375003D03*
D17*
G01*
X2977006Y421995D03*
D16*
G01*
X2723006Y421995D03*
G01*
X2977006Y675995D03*
G01*
X2723006Y675995D03*
G01*
X2977006Y929995D03*
G01*
X2723006Y929995D03*
G01*
X2977006Y1183995D03*
G01*
X2723006Y1183995D03*
G01*
X2977006Y1437995D03*
G01*
X2723006Y1437995D03*
G01*
X2977006Y1691995D03*
G01*
X2723006Y1691995D03*
G01*
X2977006Y1945995D03*
G01*
X2723006Y1945995D03*
G01*
X2977006Y2199995D03*
G01*
X2723006Y2199995D03*
G01*
X2977006Y2453995D03*
G01*
X2723006Y2453995D03*
G01*
X2977006Y2707995D03*
G01*
X2723006Y2707995D03*
G01*
X2977006Y2961995D03*
G01*
X2723006Y2961995D03*
G01*
X2977006Y3215995D03*
G01*
X2723006Y3215995D03*
G01*
X2977006Y3469995D03*
G01*
X2723006Y3469995D03*
G01*
X2977006Y3723995D03*
G01*
X2723006Y3723995D03*
G01*
X2977006Y3977995D03*
G01*
X2723006Y3977995D03*
D22*
G01*
X4999990Y2249982D03*
G01*
X4999990Y4749977D03*
G01*
X4999990Y5249976D03*
G01*
X4999990Y7749971D03*
G01*
X4999990Y8249970D03*
G01*
X4999990Y1749983D03*
D23*
G01*
X1099997Y2549982D03*
G01*
X1099997Y2399995D03*
G01*
X1099997Y2149982D03*
G01*
X1099997Y1999995D03*
G01*
X1099997Y1849983D03*
G01*
X1099997Y1699996D03*
G01*
X599998Y7099985D03*
G01*
X599998Y7249972D03*
G01*
X599998Y7399985D03*
G01*
X599998Y7549972D03*
G01*
X599998Y7849971D03*
D24*
G01*
X107213Y8892768D03*
G01*
X107213Y7892770D03*
G01*
X107213Y5892774D03*
G01*
X107213Y4892776D03*
G01*
X107213Y3892778D03*
G01*
X107213Y2892780D03*
G01*
X107213Y1892782D03*
G01*
X1107211Y9892766D03*
G01*
X1107211Y8892768D03*
G01*
X1107211Y6892772D03*
G01*
X1107211Y5892774D03*
G01*
X1107211Y4892776D03*
G01*
X1107211Y3892778D03*
G01*
X1107211Y892784D03*
G01*
X2107209Y9892766D03*
G01*
X2107209Y8892768D03*
G01*
X2107209Y5892774D03*
G01*
X2107209Y4892776D03*
G01*
X2107209Y3892778D03*
G01*
X2107209Y892784D03*
G01*
X3107207Y9892766D03*
G01*
X3107207Y8892768D03*
G01*
X3107207Y7892770D03*
G01*
X3107207Y6892772D03*
G01*
X3107207Y4892776D03*
G01*
X4107205Y9892766D03*
G01*
X4107205Y8892768D03*
G01*
X4107205Y7892770D03*
G01*
X4107205Y6892772D03*
G01*
X4107205Y5892774D03*
G01*
X4107205Y4892776D03*
G01*
X4107205Y3892778D03*
G01*
X4107205Y2892780D03*
G01*
X4107205Y1892782D03*
G01*
X4107205Y892784D03*
G01*
X5107203Y9892766D03*
G01*
X5107203Y8892768D03*
G01*
X5107203Y6892772D03*
G01*
X5107203Y5892774D03*
G01*
X5107203Y3892778D03*
G01*
X5107203Y2892780D03*
G01*
X5107203Y892784D03*
G01*
X6107201Y9892766D03*
G01*
X6107201Y5892774D03*
G01*
X6107201Y4892776D03*
G01*
X6107201Y3892778D03*
G01*
X6107201Y2892780D03*
G01*
X6107201Y1892782D03*
G01*
X7107199Y9892766D03*
G01*
X7107199Y7892770D03*
G01*
X7107199Y5892774D03*
G01*
X7107199Y4892776D03*
G01*
X7107199Y3892778D03*
G01*
X7107199Y2892780D03*
G01*
X7107199Y1892782D03*
G01*
X8107197Y9892766D03*
G01*
X8107197Y7892770D03*
G01*
X8107197Y5892774D03*
G01*
X8107197Y4892776D03*
G01*
X8107197Y3892778D03*
G01*
X8107197Y2892780D03*
G01*
X8107197Y1892782D03*
G01*
X8107197Y892784D03*
G01*
X9107195Y9892766D03*
G01*
X9107195Y7892770D03*
G01*
X9107195Y4892776D03*
G01*
X9107195Y3892778D03*
G01*
X9107195Y2892780D03*
G01*
X9107195Y1892782D03*
G01*
X9107195Y892784D03*
M02*
