G04 Layer: BottomSilkscreenLayer*
G04 EasyEDA v6.5.20, 2023-01-06 03:34:03*
G04 a67cddfb3fce44daa9051d46cbbcc19f,10*
G04 Gerber Generator version 0.2*
G04 Scale: 100 percent, Rotated: No, Reflected: No *
G04 Dimensions in millimeters *
G04 leading zeros omitted , absolute positions ,4 integer and 5 decimal *
%FSLAX45Y45*%
%MOMM*%

%ADD10C,0.2032*%

%LPD*%
D10*
X8499983Y2305042D02*
G01*
X8426091Y2111080D01*
X8352200Y2305042D02*
G01*
X8426091Y2111080D01*
X8291240Y2305042D02*
G01*
X8282005Y2295806D01*
X8272767Y2305042D01*
X8282005Y2314280D01*
X8291240Y2305042D01*
X8282005Y2240389D02*
G01*
X8282005Y2111080D01*
X8100971Y2305042D02*
G01*
X8100971Y2111080D01*
X8100971Y2212680D02*
G01*
X8119445Y2231151D01*
X8137918Y2240389D01*
X8165627Y2240389D01*
X8184098Y2231151D01*
X8202571Y2212680D01*
X8211807Y2184971D01*
X8211807Y2166498D01*
X8202571Y2138789D01*
X8184098Y2120315D01*
X8165627Y2111080D01*
X8137918Y2111080D01*
X8119445Y2120315D01*
X8100971Y2138789D01*
X8040011Y2184971D02*
G01*
X7929176Y2184971D01*
X7929176Y2203442D01*
X7938411Y2221915D01*
X7947647Y2231151D01*
X7966120Y2240389D01*
X7993829Y2240389D01*
X8012302Y2231151D01*
X8030776Y2212680D01*
X8040011Y2184971D01*
X8040011Y2166498D01*
X8030776Y2138789D01*
X8012302Y2120315D01*
X7993829Y2111080D01*
X7966120Y2111080D01*
X7947647Y2120315D01*
X7929176Y2138789D01*
X7822034Y2240389D02*
G01*
X7840507Y2231151D01*
X7858978Y2212680D01*
X7868216Y2184971D01*
X7868216Y2166498D01*
X7858978Y2138789D01*
X7840507Y2120315D01*
X7822034Y2111080D01*
X7794325Y2111080D01*
X7775851Y2120315D01*
X7757378Y2138789D01*
X7748143Y2166498D01*
X7748143Y2184971D01*
X7757378Y2212680D01*
X7775851Y2231151D01*
X7794325Y2240389D01*
X7822034Y2240389D01*
X7434107Y2212680D02*
G01*
X7452578Y2231151D01*
X7471051Y2240389D01*
X7498760Y2240389D01*
X7517234Y2231151D01*
X7535707Y2212680D01*
X7544943Y2184971D01*
X7544943Y2166498D01*
X7535707Y2138789D01*
X7517234Y2120315D01*
X7498760Y2111080D01*
X7471051Y2111080D01*
X7452578Y2120315D01*
X7434107Y2138789D01*
X7262309Y2240389D02*
G01*
X7262309Y2111080D01*
X7262309Y2212680D02*
G01*
X7280783Y2231151D01*
X7299256Y2240389D01*
X7326965Y2240389D01*
X7345438Y2231151D01*
X7363909Y2212680D01*
X7373147Y2184971D01*
X7373147Y2166498D01*
X7363909Y2138789D01*
X7345438Y2120315D01*
X7326965Y2111080D01*
X7299256Y2111080D01*
X7280783Y2120315D01*
X7262309Y2138789D01*
X7201349Y2305042D02*
G01*
X7201349Y2111080D01*
X7201349Y2212680D02*
G01*
X7182878Y2231151D01*
X7164405Y2240389D01*
X7136696Y2240389D01*
X7118222Y2231151D01*
X7099749Y2212680D01*
X7090514Y2184971D01*
X7090514Y2166498D01*
X7099749Y2138789D01*
X7118222Y2120315D01*
X7136696Y2111080D01*
X7164405Y2111080D01*
X7182878Y2120315D01*
X7201349Y2138789D01*
X7029554Y2305042D02*
G01*
X7029554Y2111080D01*
X6968594Y2184971D02*
G01*
X6857758Y2184971D01*
X6857758Y2203442D01*
X6866994Y2221915D01*
X6876229Y2231151D01*
X6894702Y2240389D01*
X6922411Y2240389D01*
X6940885Y2231151D01*
X6959358Y2212680D01*
X6968594Y2184971D01*
X6968594Y2166498D01*
X6959358Y2138789D01*
X6940885Y2120315D01*
X6922411Y2111080D01*
X6894702Y2111080D01*
X6876229Y2120315D01*
X6857758Y2138789D01*
X6654558Y2305042D02*
G01*
X6654558Y2111080D01*
X6654558Y2212680D02*
G01*
X6636085Y2231151D01*
X6617611Y2240389D01*
X6589902Y2240389D01*
X6571429Y2231151D01*
X6552958Y2212680D01*
X6543720Y2184971D01*
X6543720Y2166498D01*
X6552958Y2138789D01*
X6571429Y2120315D01*
X6589902Y2111080D01*
X6617611Y2111080D01*
X6636085Y2120315D01*
X6654558Y2138789D01*
X6482760Y2240389D02*
G01*
X6482760Y2111080D01*
X6482760Y2184971D02*
G01*
X6473525Y2212680D01*
X6455051Y2231151D01*
X6436578Y2240389D01*
X6408869Y2240389D01*
X6347909Y2184971D02*
G01*
X6237074Y2184971D01*
X6237074Y2203442D01*
X6246309Y2221915D01*
X6255547Y2231151D01*
X6274018Y2240389D01*
X6301727Y2240389D01*
X6320200Y2231151D01*
X6338674Y2212680D01*
X6347909Y2184971D01*
X6347909Y2166498D01*
X6338674Y2138789D01*
X6320200Y2120315D01*
X6301727Y2111080D01*
X6274018Y2111080D01*
X6255547Y2120315D01*
X6237074Y2138789D01*
X6065278Y2240389D02*
G01*
X6065278Y2111080D01*
X6065278Y2212680D02*
G01*
X6083749Y2231151D01*
X6102222Y2240389D01*
X6129931Y2240389D01*
X6148405Y2231151D01*
X6166878Y2212680D01*
X6176114Y2184971D01*
X6176114Y2166498D01*
X6166878Y2138789D01*
X6148405Y2120315D01*
X6129931Y2111080D01*
X6102222Y2111080D01*
X6083749Y2120315D01*
X6065278Y2138789D01*
X6004318Y2305042D02*
G01*
X6004318Y2111080D01*
X5911954Y2240389D02*
G01*
X6004318Y2148024D01*
X5967371Y2184971D02*
G01*
X5902718Y2111080D01*
X5795576Y2240389D02*
G01*
X5814047Y2231151D01*
X5832520Y2212680D01*
X5841758Y2184971D01*
X5841758Y2166498D01*
X5832520Y2138789D01*
X5814047Y2120315D01*
X5795576Y2111080D01*
X5767867Y2111080D01*
X5749394Y2120315D01*
X5730920Y2138789D01*
X5721685Y2166498D01*
X5721685Y2184971D01*
X5730920Y2212680D01*
X5749394Y2231151D01*
X5767867Y2240389D01*
X5795576Y2240389D01*
X5660725Y2240389D02*
G01*
X5660725Y2148024D01*
X5651487Y2120315D01*
X5633016Y2111080D01*
X5605307Y2111080D01*
X5586834Y2120315D01*
X5559125Y2148024D01*
X5559125Y2240389D02*
G01*
X5559125Y2111080D01*
X5470456Y2305042D02*
G01*
X5470456Y2148024D01*
X5461218Y2120315D01*
X5442747Y2111080D01*
X5424274Y2111080D01*
X5498165Y2240389D02*
G01*
X5433509Y2240389D01*
X8499975Y1805048D02*
G01*
X8426084Y1611086D01*
X8352193Y1805048D02*
G01*
X8426084Y1611086D01*
X8291233Y1684977D02*
G01*
X8180397Y1684977D01*
X8180397Y1703448D01*
X8189633Y1721921D01*
X8198871Y1731157D01*
X8217341Y1740395D01*
X8245050Y1740395D01*
X8263524Y1731157D01*
X8281997Y1712686D01*
X8291233Y1684977D01*
X8291233Y1666504D01*
X8281997Y1638795D01*
X8263524Y1620321D01*
X8245050Y1611086D01*
X8217341Y1611086D01*
X8198871Y1620321D01*
X8180397Y1638795D01*
X8119437Y1740395D02*
G01*
X8119437Y1611086D01*
X8119437Y1684977D02*
G01*
X8110199Y1712686D01*
X8091728Y1731157D01*
X8073255Y1740395D01*
X8045546Y1740395D01*
X7882986Y1712686D02*
G01*
X7892221Y1731157D01*
X7919930Y1740395D01*
X7947639Y1740395D01*
X7975351Y1731157D01*
X7984586Y1712686D01*
X7975351Y1694213D01*
X7956877Y1684977D01*
X7910695Y1675739D01*
X7892221Y1666504D01*
X7882986Y1648030D01*
X7882986Y1638795D01*
X7892221Y1620321D01*
X7919930Y1611086D01*
X7947639Y1611086D01*
X7975351Y1620321D01*
X7984586Y1638795D01*
X7822026Y1805048D02*
G01*
X7812791Y1795813D01*
X7803553Y1805048D01*
X7812791Y1814286D01*
X7822026Y1805048D01*
X7812791Y1740395D02*
G01*
X7812791Y1611086D01*
X7696410Y1740395D02*
G01*
X7714884Y1731157D01*
X7733357Y1712686D01*
X7742593Y1684977D01*
X7742593Y1666504D01*
X7733357Y1638795D01*
X7714884Y1620321D01*
X7696410Y1611086D01*
X7668701Y1611086D01*
X7650231Y1620321D01*
X7631757Y1638795D01*
X7622519Y1666504D01*
X7622519Y1684977D01*
X7631757Y1712686D01*
X7650231Y1731157D01*
X7668701Y1740395D01*
X7696410Y1740395D01*
X7561559Y1740395D02*
G01*
X7561559Y1611086D01*
X7561559Y1703448D02*
G01*
X7533850Y1731157D01*
X7515379Y1740395D01*
X7487671Y1740395D01*
X7469197Y1731157D01*
X7459959Y1703448D01*
X7459959Y1611086D01*
X7256759Y1768104D02*
G01*
X7238288Y1777339D01*
X7210579Y1805048D01*
X7210579Y1611086D01*
X7140381Y1657266D02*
G01*
X7149619Y1648030D01*
X7140381Y1638795D01*
X7131146Y1648030D01*
X7140381Y1657266D01*
X7014768Y1805048D02*
G01*
X7042477Y1795813D01*
X7060951Y1768104D01*
X7070186Y1721921D01*
X7070186Y1694213D01*
X7060951Y1648030D01*
X7042477Y1620321D01*
X7014768Y1611086D01*
X6996295Y1611086D01*
X6968586Y1620321D01*
X6950113Y1648030D01*
X6940877Y1694213D01*
X6940877Y1721921D01*
X6950113Y1768104D01*
X6968586Y1795813D01*
X6996295Y1805048D01*
X7014768Y1805048D01*
X8499965Y1305052D02*
G01*
X8499965Y1111089D01*
X8499965Y1305052D02*
G01*
X8435309Y1305052D01*
X8407600Y1295816D01*
X8389129Y1277343D01*
X8379891Y1258869D01*
X8370656Y1231160D01*
X8370656Y1184981D01*
X8379891Y1157269D01*
X8389129Y1138798D01*
X8407600Y1120325D01*
X8435309Y1111089D01*
X8499965Y1111089D01*
X8198860Y1240398D02*
G01*
X8198860Y1111089D01*
X8198860Y1212689D02*
G01*
X8217331Y1231160D01*
X8235805Y1240398D01*
X8263514Y1240398D01*
X8281987Y1231160D01*
X8300460Y1212689D01*
X8309696Y1184981D01*
X8309696Y1166507D01*
X8300460Y1138798D01*
X8281987Y1120325D01*
X8263514Y1111089D01*
X8235805Y1111089D01*
X8217331Y1120325D01*
X8198860Y1138798D01*
X8110189Y1305052D02*
G01*
X8110189Y1148034D01*
X8100954Y1120325D01*
X8082480Y1111089D01*
X8064009Y1111089D01*
X8137900Y1240398D02*
G01*
X8073245Y1240398D01*
X8003049Y1184981D02*
G01*
X7892211Y1184981D01*
X7892211Y1203452D01*
X7901449Y1221925D01*
X7910685Y1231160D01*
X7929158Y1240398D01*
X7956867Y1240398D01*
X7975340Y1231160D01*
X7993811Y1212689D01*
X8003049Y1184981D01*
X8003049Y1166507D01*
X7993811Y1138798D01*
X7975340Y1120325D01*
X7956867Y1111089D01*
X7929158Y1111089D01*
X7910685Y1120325D01*
X7892211Y1138798D01*
X7822016Y1221925D02*
G01*
X7831251Y1212689D01*
X7822016Y1203452D01*
X7812780Y1212689D01*
X7822016Y1221925D01*
X7822016Y1157269D02*
G01*
X7831251Y1148034D01*
X7822016Y1138798D01*
X7812780Y1148034D01*
X7822016Y1157269D01*
X8370656Y777344D02*
G01*
X8389129Y795817D01*
X8416838Y805053D01*
X8453782Y805053D01*
X8481491Y795817D01*
X8499965Y777344D01*
X8499965Y758870D01*
X8490729Y740399D01*
X8481491Y731161D01*
X8463020Y721926D01*
X8407600Y703453D01*
X8389129Y694217D01*
X8379891Y684982D01*
X8370656Y666508D01*
X8370656Y638799D01*
X8389129Y620326D01*
X8416838Y611090D01*
X8453782Y611090D01*
X8481491Y620326D01*
X8499965Y638799D01*
X8309696Y805053D02*
G01*
X8309696Y611090D01*
X8309696Y805053D02*
G01*
X8180387Y611090D01*
X8180387Y805053D02*
G01*
X8180387Y611090D01*
X8110189Y721926D02*
G01*
X8119427Y712690D01*
X8110189Y703453D01*
X8100954Y712690D01*
X8110189Y721926D01*
X8110189Y657270D02*
G01*
X8119427Y648035D01*
X8110189Y638799D01*
X8100954Y648035D01*
X8110189Y657270D01*
G36*
X5499963Y950010D02*
G01*
X5499963Y550011D01*
X7699959Y550011D01*
X7699959Y950010D01*
G37*
G36*
X5499963Y1449984D02*
G01*
X5499963Y1049985D01*
X7699959Y1049985D01*
X7699959Y1449984D01*
G37*
M02*
