G04 Layer: TopSolderMaskLayer*
G04 EasyEDA v6.5.20, 2023-01-06 03:34:03*
G04 a67cddfb3fce44daa9051d46cbbcc19f,10*
G04 Gerber Generator version 0.2*
G04 Scale: 100 percent, Rotated: No, Reflected: No *
G04 Dimensions in millimeters *
G04 leading zeros omitted , absolute positions ,4 integer and 5 decimal *
%FSLAX45Y45*%
%MOMM*%

%AMMACRO1*1,1,$1,$2,$3*1,1,$1,$4,$5*1,1,$1,0-$2,0-$3*1,1,$1,0-$4,0-$5*20,1,$1,$2,$3,$4,$5,0*20,1,$1,$4,$5,0-$2,0-$3,0*20,1,$1,0-$2,0-$3,0-$4,0-$5,0*20,1,$1,0-$4,0-$5,$2,$3,0*4,1,4,$2,$3,$4,$5,0-$2,0-$3,0-$4,0-$5,$2,$3,0*%
%AMMACRO2*4,1,4,-1.2509,-0.1905,-1.2509,0.1905,1.2509,0.1905,1.2509,-0.1905,-1.2509,-0.1905,0*%
%AMMACRO3*4,1,4,-1.2509,-0.1918,-1.2509,0.1918,1.2509,0.1918,1.2509,-0.1918,-1.2509,-0.1918,0*%
%ADD10C,3.7008*%
%ADD11C,1.6942*%
%ADD12C,1.6764*%
%ADD13MACRO1,0.1016X0.7874X0.7874X0.7874X-0.7874*%
%ADD14MACRO1,0.1016X-0.7874X-0.7874X-0.7874X0.7874*%
%ADD15MACRO1,0.1016X-1.3X0.15X1.3X0.15*%
%ADD16C,4.3767*%
%ADD17C,2.9817*%
%ADD18MACRO2*%
%ADD19MACRO3*%
%ADD20O,3.0032959999999997X1.6032479999999998*%
%ADD21O,2.6032459999999995X1.4030960000000001*%
%ADD22O,7.101586000000001X4.101592*%

%LPD*%
D10*
G01*
X9199879Y5749899D03*
G01*
X9199879Y8249920D03*
D11*
G01*
X8945879Y6493662D03*
G01*
X8945879Y6718655D03*
G01*
X8945879Y6943648D03*
G01*
X8945879Y7168642D03*
G01*
X8945879Y7393660D03*
G01*
X9199879Y6606159D03*
G01*
X9199879Y6831152D03*
G01*
X9199879Y7056145D03*
G01*
X9199879Y7281138D03*
G01*
X9199879Y7506157D03*
G01*
X9453879Y6493662D03*
G01*
X9453879Y6718655D03*
G01*
X9453879Y6943648D03*
G01*
X9453879Y7168642D03*
G01*
X9453879Y7393660D03*
D12*
G01*
X6626986Y6364986D03*
G01*
X6372986Y6364986D03*
G01*
X6626986Y6618986D03*
G01*
X6372986Y6618986D03*
G01*
X6626986Y6872986D03*
G01*
X6372986Y6872986D03*
G01*
X6626986Y7126986D03*
G01*
X6372986Y7126986D03*
G01*
X6626986Y7380986D03*
G01*
X6372986Y7380986D03*
G01*
X6626986Y7634986D03*
D13*
G01*
X6372987Y7634985D03*
G01*
X6372987Y5780989D03*
D12*
G01*
X6626986Y5780989D03*
G01*
X6372986Y5526989D03*
G01*
X6626986Y5526989D03*
G01*
X6372986Y5272989D03*
G01*
X6626986Y5272989D03*
G01*
X6372986Y5018989D03*
G01*
X6626986Y5018989D03*
D14*
G01*
X6626987Y8418982D03*
D12*
G01*
X6372986Y8418982D03*
G01*
X6626986Y8672982D03*
G01*
X6372986Y8672982D03*
G01*
X6626986Y8926982D03*
G01*
X6372986Y8926982D03*
G01*
X6626986Y9180982D03*
G01*
X6372986Y9180982D03*
D15*
G01*
X856005Y7049998D03*
G01*
X856005Y7099985D03*
G01*
X856005Y7149998D03*
G01*
X856005Y7199985D03*
G01*
X856005Y7249998D03*
G01*
X856005Y7299985D03*
G01*
X856005Y7349972D03*
G01*
X856005Y7399985D03*
G01*
X856005Y7449972D03*
G01*
X856005Y7499984D03*
G01*
X856005Y7549997D03*
G01*
X856005Y7599984D03*
G01*
X856005Y7649997D03*
G01*
X856005Y7699984D03*
G01*
X856005Y7749971D03*
G01*
X856005Y7799984D03*
G01*
X856005Y7849971D03*
G01*
X856005Y7899984D03*
G01*
X856005Y7949971D03*
D16*
G01*
X780008Y6774992D03*
G01*
X780008Y8224977D03*
D17*
G01*
X183997Y6774992D03*
G01*
X183997Y8224977D03*
D14*
G01*
X2976994Y5721985D03*
D12*
G01*
X2723006Y5721985D03*
G01*
X2977006Y5975985D03*
G01*
X2723006Y5975985D03*
G01*
X2977006Y6229985D03*
G01*
X2723006Y6229985D03*
G01*
X2977006Y6483985D03*
G01*
X2723006Y6483985D03*
G01*
X2977006Y6737985D03*
G01*
X2723006Y6737985D03*
G01*
X2977006Y6991985D03*
G01*
X2723006Y6991985D03*
G01*
X2977006Y7245985D03*
G01*
X2723006Y7245985D03*
G01*
X2977006Y7499985D03*
G01*
X2723006Y7499985D03*
G01*
X2977006Y7753985D03*
G01*
X2723006Y7753985D03*
G01*
X2977006Y8007985D03*
G01*
X2723006Y8007985D03*
G01*
X2977006Y8261985D03*
G01*
X2723006Y8261985D03*
G01*
X2977006Y8515985D03*
G01*
X2723006Y8515985D03*
G01*
X2977006Y8769985D03*
G01*
X2723006Y8769985D03*
G01*
X2977006Y9023985D03*
G01*
X2723006Y9023985D03*
G01*
X2977006Y9277985D03*
G01*
X2723006Y9277985D03*
D18*
G01*
X1360042Y1649984D03*
G01*
X1360042Y1700021D03*
G01*
X1360042Y1750060D03*
D19*
G01*
X1360042Y1799971D03*
G01*
X1360042Y1850009D03*
D18*
G01*
X1360042Y1899920D03*
G01*
X1360042Y1949957D03*
G01*
X1360042Y1999995D03*
G01*
X1360042Y2050034D03*
G01*
X1360042Y2100071D03*
D19*
G01*
X1360042Y2149982D03*
D18*
G01*
X1360042Y2199894D03*
G01*
X1360042Y2249931D03*
G01*
X1360042Y2299970D03*
G01*
X1360042Y2350007D03*
G01*
X1360042Y2400045D03*
D19*
G01*
X1360042Y2449956D03*
G01*
X1360042Y2499994D03*
D18*
G01*
X1360042Y2549905D03*
G01*
X1360042Y2599944D03*
D20*
G01*
X1099997Y3024987D03*
G01*
X1099997Y1375003D03*
D21*
G01*
X421995Y3024987D03*
G01*
X421995Y1375003D03*
D14*
G01*
X2976994Y421995D03*
D12*
G01*
X2723006Y421995D03*
G01*
X2977006Y675995D03*
G01*
X2723006Y675995D03*
G01*
X2977006Y929995D03*
G01*
X2723006Y929995D03*
G01*
X2977006Y1183995D03*
G01*
X2723006Y1183995D03*
G01*
X2977006Y1437995D03*
G01*
X2723006Y1437995D03*
G01*
X2977006Y1691995D03*
G01*
X2723006Y1691995D03*
G01*
X2977006Y1945995D03*
G01*
X2723006Y1945995D03*
G01*
X2977006Y2199995D03*
G01*
X2723006Y2199995D03*
G01*
X2977006Y2453995D03*
G01*
X2723006Y2453995D03*
G01*
X2977006Y2707995D03*
G01*
X2723006Y2707995D03*
G01*
X2977006Y2961995D03*
G01*
X2723006Y2961995D03*
G01*
X2977006Y3215995D03*
G01*
X2723006Y3215995D03*
G01*
X2977006Y3469995D03*
G01*
X2723006Y3469995D03*
G01*
X2977006Y3723995D03*
G01*
X2723006Y3723995D03*
G01*
X2977006Y3977995D03*
G01*
X2723006Y3977995D03*
D22*
G01*
X4999990Y2249982D03*
G01*
X4999990Y4749977D03*
G01*
X4999990Y5249976D03*
G01*
X4999990Y7749971D03*
G01*
X4999990Y8249970D03*
G01*
X4999990Y1749983D03*
M02*
